<?xml version="1.0" encoding="utf-8"?>
<!-- Generator: Adobe Illustrator 16.0.0, SVG Export Plug-In . SVG Version: 6.00 Build 0)  -->
<!DOCTYPE svg PUBLIC "-//W3C//DTD SVG 1.1//EN" "http://www.w3.org/Graphics/SVG/1.1/DTD/svg11.dtd">
<svg version="1.1" id="Layer_1" xmlns="http://www.w3.org/2000/svg" xmlns:xlink="http://www.w3.org/1999/xlink" x="0px" y="0px"
	 width="960px" height="560px" viewBox="0 0 960 560" style="enable-background:new 0 0 960 560;" xml:space="preserve">
<path style="fill:#9B8400;stroke:#000000;stroke-miterlimit:10;" d="M463.5,177.333c0,0,9.917,13.667,11.917,15s27.792,26,32.125,28
	s14.729,9,18.062,10.333s4.697,1.667,6.697,2.667s3.349,7,4.016,8.333S524.992,238,524.992,238s-15.663-10.333-20.663-14.333
	S481.082,205,479.748,203c-1.333-2-16.248-16-16.248-16V177.333z"/>
<path style="fill:#9B8400;stroke:#000000;stroke-miterlimit:10;" d="M534,253l2.317-11.333c0,0-18.083-8.173-20.065-9.526
	s-19.613-14.671-19.613-14.671l-25.655-24.372L463.5,187c0,0-1.5,19.893,0,22.613s-2.833,8.72-3.167,10.387s15,9,15,9l32,12.893
	L534,253z"/>
<path style="fill:#9B8400;stroke:#000000;stroke-miterlimit:10;" d="M529.33,264.151L534,253l-15.93-6.635l-28.668-11.696
	l-29.074-13.335c0,0-18.995,18-20.662,22.667S428,262.333,428.333,263s15.667-4.333,18-5s22-3,24-3s20.333,0,23.333,0.667
	s18.334,2,20,2.667S529.33,264.151,529.33,264.151z"/>
<path style="fill:#9B8400;stroke:#000000;stroke-miterlimit:10;" d="M519.333,265.333c0,0-8.667-4-14-4.667s-20.666-2-20.666-2
	s-20.344,1.333-24.339,2s-26.995,5-28.662,7S421.061,273,421.061,273l5.939-9.939c0,0,17.44-2.963,20.667-4.395
	s18.009-3.25,18.009-3.25s23.63-0.25,25.811,0s22.269,2.989,24.571,3.744s13.272,4.99,13.272,4.99L519.333,265.333z"/>
<path style="fill:#9B8400;stroke:#000000;stroke-miterlimit:10;" d="M465.5,119.001c0,0-8.917,10.333-9.917,17.333
	s-3.958,27-2.958,29s1.354,35.333,1.354,35.333s8.925-2.954,8.895-1.642s-0.629-27.691,0.538-32.691s2.088-33.333,2.088-33.333
	V119.001z"/>
<path style="fill:#9B8400;stroke:#000000;stroke-miterlimit:10;" d="M447.333,223.667c0,0-18.683,31.667-19.008,37
	s9.504-12.988,9.504-12.988l15.045-19.048c0,0,6.627-6.716,7.459-8.631s3.167-8.999,3.167-8.999l-0.626-11.976l-8.895,1.642
	c0,0,0.354,10.333,0.021,12.667S447.333,223.667,447.333,223.667z"/>
<path style="fill:#9B8400;stroke:#000000;stroke-miterlimit:10;" d="M419.333,54.001L439,80.667c0,0,8,11,9.667,13.333
	s10.99,9.667,11.662,11.667s5.172,9.333,5.172,11.333s-6.539,11.111-6.539,11.111s-4.709,15.267-5.602,24.558
	s-0.734,12.664-0.734,12.664s-10.959-10.333-13.292-17s-11.008-35.667-11.008-35.667S417.666,58.668,419.333,54.001z"/>
<path style="fill:#9B8400;stroke:#000000;stroke-miterlimit:10;" d="M345,56.001c0,0,8.333-4.334,11.667-2.667s8,2.667,15,2.667
	s27-5.333,28.333-6s10.667-2,12.667,0s6.667,6,6.667,6s5.494,40.182,5.873,42.234s10.198,39.897,11.794,44.901
	s15.625,22.198,15.625,22.198l1.155,24.991c0,0-11.781-8.325-14.447-10.991s-27-20.999-28.667-24.333s-23-25.667-24-28.667
	S363,93.667,360.333,89.667S345,56.001,345,56.001z"/>
<path style="fill:#9B8400;stroke:#000000;stroke-miterlimit:10;" d="M282.039,115.167c0,0,8.646-11.25,13.313-12.583
	s15.991-9.625,17.657-11.292c1.667-1.666,10.328-13.645,12.328-16.312s16.665-18.989,18.665-18.989s15.214,29.671,15.214,29.671
	s20.551,29.024,21.785,30.738s17.561,19.906,19.389,23.6s28.966,30.375,28.966,30.375s23.143,19.95,24.143,19.95s0,22.675,0,22.675
	s-13.833-7.666-18.833-10.333s-32.553-16.667-34.276-17S363,171.334,359,167.334s-39.334-21.667-40.667-22.667
	S282.039,115.167,282.039,115.167z"/>
<path style="fill:#9B8400;stroke:#000000;stroke-miterlimit:10;" d="M248.333,207.334c0,0,2.667-15,7.333-22.667
	s12-20,13.667-24.833s2.667-23.178,4.333-27.339s7.373-19.328,7.373-19.328s23.679,19.285,26.427,21.517
	s29.378,18.264,32.679,20.047s22.133,13.47,26.847,15.617s32.398,13.319,32.398,13.319l34.972,17.373L454,213.334
	c0,0-10.976,17.772-11.851,19.318S420.667,228,410,225.334s-35.333-8-39-8.333s-64-6.442-69-7.388S252,205.334,248.333,207.334z"/>
<path style="fill:#9B8400;stroke:#000000;stroke-miterlimit:10;" d="M265,292.084c0,0-7-1.711-5.667-12.042
	c1.333-10.333,3.831-15.354,2.749-19.687s-7.749-24.929-8.416-29.928s-5.333-22.926-5.333-22.926H269l62.443,5.454l50.546,6.096
	l37.167,8.704l23.172,5.143l-9.485,16.896c0,0-9.197-0.542-13.687,0s-58.156,7.876-62.49,9.209S307,271.666,302.333,273
	S265,292.084,265,292.084z"/>
<path style="fill:#9B8400;stroke:#000000;stroke-miterlimit:10;" d="M321.667,333.334c0,0-11-1.999-14.333-7.666
	s-14-13.334-17.333-15.334s-21.667-14.416-23.333-16.333s30.614-18.805,30.614-18.805s23.92-7.055,26.504-7.712
	s43.208-10.31,43.208-10.31l40.021-5.752l25.831-1.63c0,0-5.079,11.517-5.843,13.269s-9.031,2.941-15.697,5.137
	c-5.447,1.794-28.636,10.47-32.303,13.803s-28.334,20.333-34.667,27S321.667,333.334,321.667,333.334z"/>
<polygon style="fill:#603813;stroke:#000000;stroke-miterlimit:10;" points="342,415.677 341.5,423.001 452.421,455.334 
	562.5,421.668 556,412.5 452.421,444.334 "/>
<path style="fill:#9B8400;stroke:#000000;stroke-miterlimit:10;" d="M403.667,305.668c0,0-12.333,6.333-17.667,8.333
	s-24.334,9-29.667,10s-20.333,4.334-24,6.667s-10.667,2.666-10.667,2.666s21.562-23.372,23.333-25.007s28.483-22.075,31.239-24.117
	c4.866-3.606,29.164-14.444,29.164-14.444l21.122-5.613c0,0-4.878,5.182-7.368,14.182S407.526,303.721,403.667,305.668z"/>
<polygon style="fill:#8C6239;stroke:#000000;stroke-miterlimit:10;" points="461.425,442 547.5,416.781 547.5,364 458.333,385.515 
	"/>
<polygon style="fill:#8C6239;stroke:#000000;stroke-miterlimit:10;" points="545.5,371 545.5,413 554.5,412 554.5,367.334 
	545,369.5 "/>
<path style="fill:none;stroke:#000000;stroke-miterlimit:10;" d="M339,87.668c0,0,12.333,22.331,16.333,25.499"/>
<path style="fill:none;stroke:#000000;stroke-miterlimit:10;" d="M309.667,113.167c0,0,24,19.168,29.333,22.168"/>
<path style="fill:none;stroke:#000000;stroke-miterlimit:10;" d="M374.095,69.668c0,0,9.572,28.666,12.905,32.333"/>
<path style="fill:none;stroke:#000000;stroke-miterlimit:10;" d="M401.333,67.001c7,38.958,8.001,53.892,16,62.333"/>
<path style="fill:none;stroke:#000000;stroke-miterlimit:10;" d="M291.333,149.335c0,0,19,15.667,25.333,18"/>
<path style="fill:none;stroke:#000000;stroke-miterlimit:10;" d="M279.667,187c0,0,19.667,6.001,27.333,7.001"/>
<path style="fill:none;stroke:#000000;stroke-miterlimit:10;" d="M295.667,175.001c12.546,6.842,60.219,18.246,69,21.667"/>
<path style="fill:none;stroke:#000000;stroke-miterlimit:10;" d="M273,228.335c0,0,25.333,1.333,34,0"/>
<path style="fill:none;stroke:#000000;stroke-miterlimit:10;" d="M276.667,261.641c0,0,64.485-19.109,76-19.749"/>
<polygon style="fill:#8C6239;stroke:#000000;stroke-miterlimit:10;" points="439.034,441.074 350.5,419 350.5,365 444.5,385.515 
	444.5,443 "/>
<path style="fill:none;stroke:#000000;stroke-miterlimit:10;" d="M297.333,294.668c0,0,17.667-11,27-13"/>
<path style="fill:none;stroke:#000000;stroke-miterlimit:10;" d="M321.667,307.335c0,0,14-16.334,20.333-19.167"/>
<path style="fill:none;stroke:#000000;stroke-miterlimit:10;" d="M383,307.335c0,0,9.447-18.334,16.39-23.667"/>
<path style="fill:none;stroke:#000000;stroke-miterlimit:10;" d="M445.909,135.335c0,0-6.585-26.666-3.581-32"/>
<path style="stroke:#000000;stroke-miterlimit:10;" d="M534,382c0,0-0.666-3.666-3-2.666S526.332,380,525.666,382s-1.334,3.333,0,5
	s3.782,0,3.782,0s1.552,4.334,4.552,6.334S541.667,398,544,398s9.334-1.334,11-2s5.999-7.333,8.666-9.333s7.667-7.506,7.667-7.506
	s-0.333-1.506,2,0s0.334,2.173,2.667,4.173s1.333,2,4.333,3s4.333,2.491,6.333,1.912s3.334-1.065,4.667-2.731
	s1.292-0.185,1.667-3.181c0.667-5.334,0.667-5.334-2-6.667s0,0-2.667-1.333c-3.591-1.795-3.511-1.241-7-0.12
	c-2.354,0.756-2,1.453-2,1.453s-3.333-1.014-5-2.007s-1.999-0.674-3.333,0s-0.334-1.992-1.334,0.674s-3.334,4-4,5.333
	S553.334,391.334,553,392.334s-5.334,1.667-8.334,2s-10.666-5.334-11-7S534,382,534,382z"/>
<path style="fill:#808080;stroke:#000000;stroke-miterlimit:10;" d="M547.166,344.25c0,0,7.751-19.625,10.084-21.958
	s5.041-14.312,6.041-18.312s0.354-28.324-1.979-33.657s-7.323-14.05-8.323-15.022s-16.646-12.559-16.646-12.559
	s-5.681,22.562-7.014,21.409s5.356,2.515,7.013,4.182s-2.34,5.667-2.34,5.667l14.33,1l5,0.333c0,0,5,0.581,4,4.582s-3,3.584-6,3.584
	s-12.333,0-12.333,0s-2.979-3.165-2.656,0.168s-1.012,7.334-5.678,11s-10,6-13,7S505,307.335,505,307.335s-1.666,1.999,0,2.666
	s9.151-0.431,11,0.333c3.229,1.334,3.229,1.334,7.333,2.334s4.001,2.332,4.667,2.666s8.667-2,11-2s2.666,0.667,4.333,1
	s1.667,2.334,0.667,7.667s-12,19.667-12,19.667L547.166,344.25z"/>
<polygon style="fill:#754C24;stroke:#000000;stroke-miterlimit:10;" points="343.667,347.667 378,340 522.666,337.376 
	552.333,347.667 452.944,373.029 "/>
<path style="stroke:#000000;stroke-miterlimit:10;" d="M531.587,275.667c0,0-0.327-1.858,2.416-1.667s12.363,0.863,12.363,0.863
	l15.903-0.87c0,0,3.195,6.667,1.477,9.674S553,284.962,553,284.962l-16.656-1.294C536.344,283.668,528.081,281.668,531.587,275.667z
	"/>
<ellipse style="stroke:#000000;stroke-miterlimit:10;" cx="449.333" cy="337.376" rx="71.333" ry="13.958"/>
<path style="fill:#4D4D4D;stroke:#000000;stroke-miterlimit:10;" d="M514,321.5h-10c0,0-3.822-0.166-4.078-2.166s-1.078-6,0-8.333
	s2.744-3.666,2.744-3.666s1.732,2.916,4.024,2.885s11.596,1.038,11.596,1.038l8.847,3.16c0,0,2.133,2.916,0,4.583
	S514,321.5,514,321.5z"/>
<ellipse style="fill:#808080;stroke:#000000;stroke-miterlimit:10;" cx="449.333" cy="333.168" rx="67.667" ry="12.833"/>
<path style="fill:#4D4D4D;stroke:#000000;stroke-miterlimit:10;" d="M498.322,324.334c0,0,2.677-0.335,4.344-2.834
	s-2.744-2.166-2.744-2.166s-2.744-4.667,0-8.333s5.078-3.666,5.078-3.666s-1.011-3.668-3.339-3.001s-5.329,1.002-5.995,3.001
	s-1,12.331,0,14.165S498.322,324.334,498.322,324.334z"/>
<path style="fill:#4D4D4D;stroke:#000000;stroke-miterlimit:10;" d="M495.035,326.334l3.287-2c0,0-2.155-0.291-2.656-2.834
	s-0.818-8.847-0.409-11.506s4.124-5.073,4.124-5.073s1.715-2.254,0-3.587s-2.644-2-4.346,0s-4.703,6.334-4.369,8.334
	s-0.385,10.998-0.025,11.832S492.07,324.667,495.035,326.334z"/>
<path style="fill:#4D4D4D;stroke:#000000;stroke-miterlimit:10;" d="M491,324.5h-3c0,0-3,3.834-2.667-0.166s-1.346-9.949-0.025-14
	c1.981-6.081,5.657-11.523,7.692-10.262s-1.668,6.93-2.334,9.596s-0.385,8.832-0.025,11.832S491,324.5,491,324.5z"/>
<path style="fill:#4D4D4D;stroke:#000000;stroke-miterlimit:10;" d="M484.5,340c0,0,0.5-2.668,2.833-5s1.489-6.332,1.489-6.332
	s-1.081-0.666,1.715,0s3.067-2.334,3.067-2.334s-3.499-1.834-4.552-1.834s-5.639-0.166-5.013,1.834s-4.047,3.001-2.877,4.334
	s4.17,2.666,4.17,2.666L484.5,340z"/>
<path style="fill:#4D4D4D;stroke:#000000;stroke-miterlimit:10;" d="M434.333,335.668"/>
<ellipse style="fill:#666666;stroke:#000000;stroke-miterlimit:10;" cx="451.333" cy="333.501" rx="15.667" ry="3.833"/>
<ellipse style="stroke:#000000;stroke-miterlimit:10;" cx="450.954" cy="334.418" rx="5.046" ry="1.25"/>
<polygon style="fill:#603813;stroke:#000000;stroke-miterlimit:10;" points="567,353.667 552.333,347.667 452.944,373.029 
	343.667,347.667 330.167,355.203 450.954,383 "/>
<polygon style="fill:#42210B;stroke:#000000;stroke-miterlimit:10;" points="562.5,361 562.5,355 450.912,383 337.5,356.91 
	337.5,363 450,389.333 "/>
<polygon style="fill:#603813;stroke:#000000;stroke-miterlimit:10;" points="341.5,364 341.5,369 354.667,370.668 356.016,367.334 
	"/>
<polygon style="fill:#603813;stroke:#000000;stroke-miterlimit:10;" points="439.5,387 439.5,391 449.333,393.668 450,389.333 "/>
<polygon style="fill:#603813;stroke:#000000;stroke-miterlimit:10;" points="460.328,392.001 459.264,387 450,389.333 
	449.333,393.668 "/>
<polygon style="fill:#603813;stroke:#000000;stroke-miterlimit:10;" points="545.5,365 545.5,369 554.5,367.334 554.5,364 "/>
<polygon style="fill:#603813;stroke:#000000;stroke-miterlimit:10;" points="343.5,417 343.5,412 356.5,414.5 356.5,419 "/>
<polygon style="fill:#603813;stroke:#000000;stroke-miterlimit:10;" points="442.101,435.834 439.159,441.084 450.5,444.334 
	450.5,439 "/>
<polygon style="fill:#603813;stroke:#000000;stroke-miterlimit:10;" points="461.5,436 461.5,442 450.5,444.334 450.5,439 "/>
<polygon style="fill:#603813;stroke:#000000;stroke-miterlimit:10;" points="545.5,412.5 545.5,417 557.333,415.75 556,412.5 "/>
<polygon style="fill:#603813;stroke:#000000;stroke-miterlimit:10;" points="354.5,371 354.5,413 346.5,412.5 346.5,370 "/>
<polygon style="fill:#603813;stroke:#000000;stroke-miterlimit:10;" points="442.328,391.768 442.101,435.834 450.5,439 
	449.333,393.668 "/>
<polygon style="fill:#603813;stroke:#000000;stroke-miterlimit:10;" points="458.003,392.354 460.328,435.834 450.5,439 
	449.333,393.668 "/>
<polygon style="fill:#42210B;stroke:#000000;stroke-miterlimit:10;" points="562.5,421.668 452.296,455.417 341.188,423.043 
	327.5,427.001 327.5,432 452.944,468.001 575,431.334 "/>
</svg>
