<?xml version="1.0" encoding="utf-8"?>
<!-- Generator: Adobe Illustrator 23.1.0, SVG Export Plug-In . SVG Version: 6.00 Build 0)  -->
<svg version="1.1" xmlns="http://www.w3.org/2000/svg" xmlns:xlink="http://www.w3.org/1999/xlink" x="0px" y="0px"
	 viewBox="0 0 807 682.5" style="enable-background:new 0 0 807 682.5;" xml:space="preserve">
<style type="text/css">
	.st0{opacity:0.43;}
	.st1{fill:#774B35;}
	.st2{fill:#808080;}
	.st3{fill:#B27552;}
	.st4{fill:#E8B79E;}
	.st5{fill:none;stroke:#000000;stroke-width:4;stroke-miterlimit:10;}
</style>
<g id="Layer_1" class="st0">
</g>
<g id="Layer_2">
	<g id="XMLID_1_">
		<g>
			<path class="st1" d="M739.3,20.1c4.6-3.9,11.3-5.3,17-3.5c-4.1,2-7.8,4.7-11,7.8c-4.3,4.2-7.9,9.5-8.8,15.5
				C735.3,33.8,734.5,24.2,739.3,20.1z"/>
			<path class="st1" d="M790.5,40.8c-4.8-0.2-9.6,2.5-11.8,6.7c-2.8,5.3,0.5,13.7,6.5,13.4c4-0.2,7-4.2,7.4-8.2
				c0.5-4-0.9-7.9-2.2-11.7L790.5,40.8z M800.9,42c0.4,13.8-10.3,27.1-23.8,29.9c-0.1,0-0.3,0.1-0.4,0.1l-0.3-2
				c-2.9-0.7-5.8-1.4-8.7-2.1l0,0c-3.5-8.5-3-18.6,1.4-26.6c4.5-8.4,13.1-14.4,22.5-15.9l2.1-1.7C797.9,28.7,800.7,35.2,800.9,42z"
				/>
			<path class="st1" d="M756.3,16.6c5.5-2.7,11.5-4,17.5-3.5c7.6,0.7,14.7,4.7,19.7,10.5l-2.1,1.7c-9.4,1.4-18,7.5-22.5,15.9
				c-4.4,8.1-4.9,18.1-1.4,26.6c0.1,0.3,0.3,0.6,0.4,0.9c-8.5-3.8-17.1-7.7-25.6-11.5l0.6-1.4c-5.2-3.1-7.5-9.9-6.6-15.8
				c0.9-6,4.5-11.3,8.8-15.5C748.5,21.3,752.2,18.6,756.3,16.6z"/>
			<path class="st1" d="M790.4,41c1.3,3.8,2.7,7.7,2.2,11.7c-0.5,4-3.4,8-7.4,8.2c-6,0.4-9.3-8-6.5-13.4c2.2-4.2,7-7,11.8-6.7
				L790.4,41z"/>
			<path class="st2" d="M777.5,91.6c3.1,5.4,1.2,12.6-2.9,17.4c-4.1,4.8-9.9,7.7-15.5,10.5l-3-0.5c0.5-0.6,1-1.2,1.5-1.9
				c3.9-5.3,6.1-12.5,3.3-18.4c-0.9-1.8-2.3-3.3-4.1-4.3l4.3-5.2c0,0,0,0,0,0l0.8,0.7C765.3,84.7,774.4,86.2,777.5,91.6z"/>
			<path class="st1" d="M776.7,72c0.2,0,0.3-0.1,0.4-0.1l0.5,2.3c-6.6,3.9-13.2,7.8-19.8,11.7l-0.3,0.4c-2.8-2.3-5.6-4.6-8.3-6.8
				l-1.1,1c-4.1,1.2-7.7,4-9.8,7.8l-1.4,1.9c-1.4-1-2.8-2-4.1-3l-6.9-0.2c-5,1.3-9.3,5.7-10.1,10.9l0.8,0.1c0.9,0.6,1.9,1.2,2.8,1.8
				l-1.4,2.2c-6.6,15-25.9,23.1-41.2,17.2l-0.7-0.9c-2.2,1.7-4.5,3.4-6.7,5.1c-1.5-0.2-2.4-2.1-2.1-3.6c0.4-1.7,1.7-2.9,2.9-4.1
				c5.6-5.1,11.1-10.3,16.7-15.4c2.1-2,4.3-3.9,6.4-5.9l-0.7-0.8c-9.1-9.1-20.4-16.1-32.6-20.3c3.3-4,7.1-7.5,11.2-10.6
				c3.9-2.9,8-5.4,12.4-7.4c3.5-1.6,7.2-2.9,10.9-3.9c0.9-0.2,1.9-0.5,2.8-0.7c14.5-3,30-1,43.2,5.7l0.1-0.1
				c0.6,0.3,1.3,0.6,1.9,0.8c8.5,3.8,17.1,7.7,25.6,11.5c-0.1-0.3-0.3-0.6-0.4-0.9l0,0c2.9,0.7,5.8,1.4,8.7,2.1L776.7,72z"/>
			<path class="st2" d="M735.4,111.3l-2.7-2.3c-4.5-3-9.1-6-13.6-9.1c-0.9-0.6-1.9-1.2-2.8-1.8l-0.8-0.1c0.8-5.1,5.1-9.5,10.1-10.9
				l6.9,0.2c1.4,1,2.7,2,4.1,3c2.6,1.9,5.3,3.8,7.9,5.7l0.1,0c2.7-3.7,8-3.7,12-1.4c1.8,1,3.2,2.5,4.1,4.3
				c2.8,5.9,0.6,13.1-3.3,18.4c-0.5,0.6-1,1.3-1.5,1.9c-2.3,2.7-5.2,4.8-8.6,5.8c-4.1,1.2-9.1,0.3-11.9-2.9
				C733.1,119,732.9,114.1,735.4,111.3z"/>
			<path class="st2" d="M761.1,89.3l-4.3,5.2c-4-2.3-9.3-2.3-12,1.4l-0.1,0c-2.6-1.9-5.3-3.8-7.9-5.7l1.4-1.9
				c2.1-3.7,5.7-6.6,9.8-7.8l1.1-1c2.8,2.3,5.6,4.5,8.3,6.8C758.7,87.3,759.9,88.3,761.1,89.3z"/>
			<path class="st2" d="M694.3,48.9l0.1,2.6c-3.8,1-7.4,2.3-10.9,3.9l-0.8-2.2c-2.1-1.4-4.2-2.8-6.3-4.2c-0.1-1.8-0.5-3.5-1.3-5.2
				l2.7-0.6c2-3.6,6.8-5.5,10.7-4.2C692.3,40.4,695,44.8,694.3,48.9z"/>
			<path class="st2" d="M337.5,329c-4.9-4-10.2-7.5-15.7-10.6c-3.9-2.1-7.9-4.1-12-5.7c-1.4-0.6-2.8-1.1-4.3-1.6
				c-1.2,0-2.5,0-3.7-0.1c60.1-38,119.8-76.5,179.2-115.6c59.6-39.3,118.9-79.1,177.8-119.6l-0.1-1c0.4-0.5,0.8-1,1.2-1.5
				c12.2,4.2,23.4,11.2,32.6,20.3l0.7,0.8c-2.1,2-4.2,3.9-6.4,5.9l-4.1-4.4L351.9,343C347.6,337.9,342.7,333.2,337.5,329z"/>
			<path class="st2" d="M536.3,224.3c-57.7,43.8-115.4,87.6-173.1,131.4l-1.4,0.9c-2.9-4.8-6.2-9.3-9.9-13.6L682.7,95.9l4.1,4.4
				c-5.5,5.1-11.1,10.3-16.7,15.4c-1.3,1.2-2.6,2.4-2.9,4.1c-0.3,1.5,0.6,3.4,2.1,3.6C624.9,157,580.6,190.7,536.3,224.3z"/>
			<path class="st2" d="M676.3,49c2.1,1.4,4.2,2.8,6.3,4.2l0.8,2.2c-4.4,2-8.6,4.5-12.4,7.4l-2.8-0.1c-7.7,3.9-18.4-0.7-20.9-8.9
				c-2.5-8.3,3.8-18,12.4-19.1c6.4-0.8,12.8,3.4,15.4,9.2C675.8,45.4,676.2,47.2,676.3,49z"/>
			<path class="st1" d="M587.8,283.1c12.2,18.8,16.3,42.7,11,64.5c-5.3,21.9-20,41.4-39.6,52.5c-10.6,6-22.4,9.6-33.4,15
				c-11,5.3-21.5,13-26.6,24.1l-0.7,0.6c-8.9-10.7-18.9-23.5-27.7-34.1c16.2-20.6,42.7-29.6,66.5-40.6c23.9-11,48.6-27.9,53.3-53.8
				C592.3,301.8,591,292.2,587.8,283.1z"/>
			<path class="st3" d="M285,479.7c3.9,3.1,8.7,5.4,13.6,5.2c5.1-0.2,10.3-3.9,10.8-9c0.5-5.1-5.3-10.1-9.9-7.8
				c-5,2.5-5.4,10.8-10.8,12.1C287.3,480.5,286.1,480.3,285,479.7z M207.3,466.7l-0.4-0.9c-2-1.5-3.9-3.1-5.9-4.6l65.1-53.9
				c2.9,2.7,5.7,5.4,8.4,8.1c3.5-8.5,9.2-18.4,14.7-25.5l0,0l62.7-46.9c3.6,4.3,7,8.8,9.9,13.6l1.4-0.9
				c57.7-43.8,115.4-87.6,173.1-131.4c13.6,10.4,30.3,25.1,40.5,38.7c4.5,6,8.3,12.8,10.9,19.9c0-0.1-0.1-0.1-0.1-0.2
				c0.1,0.1,0.1,0.2,0.2,0.3c0,0,0,0,0,0c3.3,9.1,4.5,18.7,2.8,28.2c-4.7,25.8-29.4,42.8-53.3,53.8c-23.9,11-50.3,20-66.5,40.6
				c-5.2-0.7-10.3,2.2-15,4.3l-1.1-0.1c0.2-8.5-8.4-15.2-16.9-15.7c-8.5-0.5-16.6,3.4-23.9,7.7c-18.7,11-35.7,24.9-50.2,41.1
				c-6.2,6.9-12.6,15-12.3,24.3c0.4,11.2,9.7,22.4,19.5,30.9c1.8,1.6,3.6,3.1,5.4,4.4c0.1,0.3,0.2,0.5,0.3,0.8l-0.5,0.2
				c-2.9,3.3-5.8,6.6-8.7,9.8l0,1c-12.7-0.3-24.6,8-32.5,18.2c-8.4,10.8-13.3,23.9-19.9,35.9c-21.7,39.8-62.3,68.6-107,76
				c-27,4.5-55.2,1.1-80.6-9.1c-16.6-6.6-32-16.2-45.2-28.3c-11.1-10.2-20.6-21.9-29.5-34.1l6-2.9c4.7,5.5,13.5,0,18.5-5.3
				C114.3,525,158.6,491.6,207.3,466.7z M331.1,390.6l-0.5-1.4c-0.7-3.3,4-5.7,6.8-3.9c0.6,0.4,1.1,0.8,1.5,1.4
				c1.5,2,1.6,5.1,0.7,7.5c-1.2,3.1-3.8,5.4-6.3,7.6c-14.4,12.7-28.7,25.3-43.1,38c-7.8,6.8-16.3,15.6-14.7,25.8
				c0.7,4.7,3.5,8.8,7,12.1c0.7,0.9,1.5,1.6,2.4,2.1c-0.1-0.1-0.2-0.1-0.3-0.2c-0.7-0.6-1.4-1.2-2.1-1.8c-1-1.3-1.7-3-1.8-4.7
				c-0.2-4.1,2-7.8,4.2-11.3c10.4-15.8,23.3-29.8,38.1-41.5c4.8-3.7,9.8-7.3,13.6-11.9c3.9-4.7,6.5-10.7,5.6-16.7
				c-0.3-1.8-1-3.6-1.9-5.1c-2.3-3.6-6.1-6.2-10.3-5.9c-6,0.3-10.8,8-7.4,13C325.4,392.6,328.3,391.6,331.1,390.6z"/>
			<path class="st1" d="M498.5,439.8c0.3,0.3,0.5,0.6,0.7,0.9c-4.7,2.6-7.3,3.7-12,6.3l-1.2-0.9c-2.2-3.9-5-7.9-8.1-11.8
				c-6.9-8.7-15.3-17-22.3-24.3c4.8-2.1,9.9-5,15-4.3C479.6,416.3,489.6,429,498.5,439.8z"/>
			<path class="st3" d="M49.6,392c-18.9,18.5-31,44-33.2,70.4c-2.3,27.4,5.9,55.5,22.6,77.4l0,0c-0.8,0.1-1.5,0.2-2.3,0.3l-5.6,2.4
				c-6.7-10.2-12.9-20.7-17.1-32.1C1,474.5,9.5,432.6,32.4,401.9c22.8-30.7,58.6-50.4,96.1-57.9c7.1-1.4,14.5-2.5,20.8-6
				c6.1-3.3,11.2-9.3,11.4-16.1l0.3,0c0.8-3.6,6-4.4,9.2-2.5c3.2,1.9,5,5.4,7.5,8.2c8.8,10,24.3,10.1,37.4,7.5
				c25.2-5.1,48.8-17.8,67-35.9c3.8-3.8,7.4-7.9,9.4-12.9c1.9-5,1.9-11-1.4-15.3c-2.9-3.9-8.9-5.5-13-3.2l-0.4-0.7
				c0.3-2.6,0.7-5.1,1-7.7l0.8,0c29.9-2.6,41.9-40.9,81.3-62.2c30.9-16.7,90.4-23.3,119.8-4.1l1.5,2.3
				c-59.4,39.1-119.1,77.6-179.2,115.6c1.2,0,2.5,0,3.7,0.1c1.4,0.5,2.9,1,4.3,1.6l-33.4,22.1c-3.6-2.2-8.5-2.4-12.8-1.8
				c-17.5,2.4-31.9,14.3-46.6,24.2c-14.6,9.9-32.7,18.4-49.5,12.8c4.3-0.9,8.9-1.8,12.3-4.6c3.4-2.8,5.2-8.2,2.6-11.8
				c-2.2-3.1-6.7-3.8-10.2-2.5c-7.3,2.6-9.9,12-7.2,19.3c0.5,1.5,1.3,2.8,2.2,4c5.7,7.3,16.3,9.2,25.4,7.1c9-2.1,16.9-7.5,24.5-12.8
				c14.6-10.1,29.2-20.2,43.7-30.3c2.5-1.7,5.1-3.5,8-4c2.1-0.4,4.4,0.1,6,1.4l-33.5,22.1c-0.9-0.5-1.9-0.9-2.8-1.4
				c-0.4,1.4-0.9,2.8-1.4,4.2l-10.2,6.8l-59.1,67.4c-1.6-1.2-3.1-2.5-4.7-3.7l-0.8-0.6c-23.1,28.6-46.2,57.2-69.3,85.8l-5.9-4.8
				c9.1-11.3,15.1-24.9,16.4-39.4c3.2-34.2-20.1-69.1-52.9-79.2L49.6,392z"/>
			<path class="st1" d="M478,434.3l-1.2,0.9c-14.6-6.6-30-0.9-42.2,5.4c-24,12.3-45.6,32.4-60.1,57.4l-3.7,0.3
				c-9.8-8.5-19.1-19.8-19.5-30.9c-0.3-9.3,6.1-17.3,12.3-24.3c14.4-16.2,31.4-30.1,50.2-41.1c7.3-4.3,15.4-8.3,23.9-7.7
				c8.5,0.5,17.1,7.2,16.9,15.7l1.1,0.1C462.6,417.3,471.1,425.7,478,434.3z"/>
			<path class="st1" d="M394.6,542c-2.9,4.4-6.3,6-9.2,10.4c-5.5-10.5-10.2-27.2-15.7-37.7c-0.8-0.1-1.7-0.1-2.5-0.1l0-1
				c2.9-3.3,5.8-6.6,8.7-9.8l0.5-0.2C380.5,516.6,385.4,531.9,394.6,542z"/>
			<path class="st1" d="M369.6,514.6c5.5,10.5,10.2,27.2,15.7,37.7c-11.8,0.3-20.9,12-28.1,21.3c-7.2,9.3-11.9,20.2-17.9,30.4
				c-21.6,37.2-60.9,64.1-103.6,69.3c-42.8,5.2-81.3-4.7-108.7-37.9c25.4,10.2,53.6,13.6,80.6,9.1c44.7-7.4,85.3-36.3,107-76
				c6.6-12,11.5-25,19.9-35.9c7.9-10.2,19.8-18.5,32.5-18.2C368,514.5,368.8,514.5,369.6,514.6z"/>
			<path class="st3" d="M351.9,343l-62.7,46.9c-5.3-5-11.3-9.8-17.7-14.3l66-46.6C342.7,333.2,347.6,337.9,351.9,343z"/>
			<path d="M342.3,391.6c0.9,6-1.7,12-5.6,16.7c-3.9,4.7-8.9,8.2-13.6,11.9c-14.8,11.7-27.7,25.7-38.1,41.5
				c-2.2,3.4-4.5,7.2-4.2,11.3c0.1,1.7,0.8,3.3,1.8,4.7c-3.5-3.3-6.3-7.4-7-12.1c-1.5-10.2,7-19,14.7-25.8
				c14.4-12.7,28.7-25.3,43.1-38c2.5-2.2,5-4.5,6.3-7.6c1-2.4,0.8-5.5-0.7-7.5l1.4-0.3C341.3,388,342,389.8,342.3,391.6z"/>
			<path d="M340.3,386.5l-1.4,0.3c-0.4-0.5-0.9-1-1.5-1.4c-2.8-1.7-7.4,0.7-6.8,3.9l0.5,1.4c-2.8,1-5.7,1.9-8.5,2.9
				c-3.4-5,1.3-12.7,7.4-13C334.2,380.3,338.1,382.8,340.3,386.5z"/>
			<path class="st3" d="M321.8,318.4c5.5,3.1,10.8,6.6,15.7,10.6l-66,46.6c-5.7-4-11.8-7.7-17.8-11.1l22.1-15c0.2,0,0.3,0,0.5-0.1
				c1.5-0.4,2.6-1.3,3.3-2.5L321.8,318.4z"/>
			<path class="st3" d="M321.8,318.4l-42.1,28.5c1.9-3,1.5-7.8-1.2-10.5c-0.7-0.7-1.4-1.2-2.1-1.7l33.4-22.1
				C313.9,314.3,317.9,316.2,321.8,318.4z"/>
			<path d="M299.5,468.1c4.6-2.3,10.4,2.7,9.9,7.8c-0.5,5.1-5.7,8.8-10.8,9c-5,0.2-9.7-2.2-13.6-5.2c1.1,0.6,2.4,0.8,3.7,0.5
				C294,478.9,294.5,470.6,299.5,468.1z"/>
			<path class="st4" d="M289.2,389.9L289.2,389.9c-5.5,7.1-11.2,17.1-14.7,25.5c-2.7-2.7-5.5-5.4-8.4-8.1l2-1.6L289.2,389.9z"/>
			<path class="st4" d="M289.2,389.9l-21.1,15.8l-2,1.6c-5-4.6-10.2-9.2-15.6-13.7l12.9-12.3l8-5.7
				C277.9,380.1,283.9,384.8,289.2,389.9z"/>
			<path class="st3" d="M274.8,335.8l1.5-1c0.8,0.5,1.5,1,2.1,1.7c2.7,2.7,3,7.5,1.2,10.5l-3.8,2.6l-22.1,15
				c-4.2-2.4-8.3-4.6-12.4-6.6L274.8,335.8z"/>
			<path d="M276.3,334.8l-1.5,1c-1.6-1.3-4-1.7-6-1.4c-3,0.5-5.5,2.3-8,4c-14.6,10.1-29.2,20.2-43.7,30.3
				c-7.6,5.3-15.5,10.7-24.5,12.8c-9,2.1-19.6,0.2-25.4-7.1c-0.9-1.2-1.7-2.6-2.2-4l2.5-0.4c16.8,5.5,34.9-2.9,49.5-12.8
				c14.7-9.9,29.1-21.8,46.6-24.2C267.9,332.3,272.7,332.5,276.3,334.8z"/>
			<path class="st4" d="M271.5,375.6l-8,5.7l-12.9,12.3c-5.6-4.6-11.2-9.1-16.7-13.2l5.8-6.5l14-9.5
				C259.7,367.9,265.8,371.7,271.5,375.6z"/>
			<path class="st3" d="M266.1,407.3L201,461.2c-3.9-3.1-7.8-6.1-11.6-9.2l61.2-58.3C255.9,398.1,261.1,402.7,266.1,407.3z"/>
			<path class="st4" d="M253.7,364.5l-14,9.5l-5.8,6.5c-0.6-0.4-1.2-0.9-1.7-1.3h-0.3c0.1-6.2,2.9-12.4,5.2-18.5l4.3-2.8
				C245.4,360,249.5,362.2,253.7,364.5z"/>
			<path class="st3" d="M250.5,393.6L189.3,452c-3.9-3.1-7.9-6.2-11.8-9.3l56.3-62.2C239.4,384.5,245,389,250.5,393.6z"/>
			<path class="st3" d="M231.8,379.2h0.3c0.6,0.4,1.2,0.9,1.7,1.3l-56.3,62.2c-3.3-2.6-6.6-5.2-9.9-7.8l59.1-67.4l10.2-6.8
				C234.8,366.8,232,372.9,231.8,379.2z"/>
			<path d="M189.3,452c3.9,3.1,7.8,6.1,11.6,9.2c2,1.5,3.9,3.1,5.9,4.6l0.4,0.9c-48.7,24.9-93,58.3-130.4,98.3
				c-5,5.3-13.8,10.8-18.5,5.3c-3.8-4.5-0.1-11.2,3.7-15.8c10.3-12.7,20.5-25.4,30.8-38.1c23.1-28.6,46.2-57.2,69.3-85.8l0.8,0.6
				c1.6,1.2,3.1,2.5,4.7,3.7c3.3,2.6,6.6,5.2,9.9,7.8C181.5,445.7,185.4,448.8,189.3,452z"/>
			<path d="M182.3,353.5c2.6,3.6,0.8,9-2.6,11.8c-3.4,2.8-7.9,3.8-12.3,4.6l-2.5,0.4c-2.7-7.3-0.1-16.6,7.2-19.3
				C175.7,349.8,180.1,350.4,182.3,353.5z"/>
			<path d="M50.5,393c32.8,10.1,56.1,45,52.9,79.2c-1.3,14.4-7.4,28.1-16.4,39.4c-11.9,14.9-29.2,25.6-48,28.3l0,0
				c-16.7-21.8-24.9-50-22.6-77.4c2.3-26.4,14.3-51.9,33.2-70.4L50.5,393z"/>
			<path class="st3" d="M92.9,516.3c-10.3,12.7-20.5,25.4-30.8,38.1c-3.7,4.6-7.5,11.3-3.7,15.8l-6,2.9c-4-5.5-8-11.2-11.9-16.8
				c-3.2-4.5-6.3-9.1-9.4-13.7l5.6-2.4c0.8-0.1,1.5-0.2,2.3-0.3c18.9-2.8,36.1-13.5,48-28.3L92.9,516.3z"/>
		</g>
		<g>
			<path class="st5" d="M160.6,320.8c0,0.4,0,0.7,0,1.1c-0.2,6.8-5.3,12.9-11.4,16.1c-6.4,3.5-13.7,4.5-20.8,6
				c-37.5,7.5-73.2,27.2-96.1,57.9C9.5,432.6,1,474.5,14.1,510.5c4.2,11.4,10.3,22,17.1,32.1c3,4.6,6.2,9.2,9.4,13.7
				c3.9,5.6,7.9,11.3,11.9,16.8c8.9,12.2,18.4,23.9,29.5,34.1c13.2,12.1,28.6,21.6,45.2,28.3c25.4,10.2,53.6,13.6,80.6,9.1
				c44.7-7.4,85.3-36.3,107-76c6.6-12,11.5-25,19.9-35.9c7.9-10.2,19.8-18.5,32.5-18.2c0.8,0,1.6,0.1,2.5,0.1"/>
			<path class="st5" d="M160.9,321.9c0.8-3.6,6-4.4,9.2-2.5c3.2,1.9,5,5.4,7.5,8.2c8.8,10,24.3,10.1,37.4,7.5
				c25.2-5.1,48.8-17.8,67-35.9c3.8-3.8,7.4-7.9,9.4-12.9c1.9-5,1.9-11-1.4-15.3c-2.9-3.9-8.9-5.5-13-3.2c-0.4,0.2-0.8,0.5-1.2,0.8"
				/>
			<path class="st5" d="M367.2,513.5c2.9-3.3,5.8-6.6,8.7-9.8"/>
			<path class="st5" d="M376.1,502.7c-1.8-1.4-3.6-2.9-5.4-4.4c-9.8-8.5-19.1-19.8-19.5-30.9c-0.3-9.3,6.1-17.3,12.3-24.3
				c14.4-16.2,31.4-30.1,50.2-41.1c7.3-4.3,15.4-8.3,23.9-7.7c8.5,0.5,17.1,7.2,16.9,15.7"/>
			<path class="st5" d="M455.7,410c4.8-2.1,9.9-5,15-4.3"/>
			<path class="st5" d="M587.8,283.1c0,0,0-0.1-0.1-0.1c-2.6-7.1-6.4-13.9-10.9-19.9c-10.2-13.6-26.9-28.3-40.5-38.7
				c-0.2-0.1-0.3-0.2-0.5-0.4"/>
			<path class="st5" d="M470.7,405.7c16.2-20.6,42.7-29.6,66.5-40.6c23.9-11,48.6-27.9,53.3-53.8c1.7-9.5,0.4-19.1-2.8-28.2"/>
			<path class="st5" d="M278.4,259.5c29.9-2.6,41.9-40.9,81.3-62.2c30.9-16.7,90.4-23.3,119.8-4.1"/>
			<path class="st5" d="M127.1,635.5L127.1,635.5c27.4,33.3,65.9,43.1,108.7,37.9c42.8-5.2,82-32,103.6-69.3
				c5.9-10.2,10.6-21.1,17.9-30.4c7.2-9.3,16.3-21,28.1-21.3"/>
			<path class="st5" d="M369.6,514.6c5.5,10.5,10.2,27.2,15.7,37.7"/>
			<path class="st5" d="M374.5,498c14.5-25,36.1-45.1,60.1-57.4c12.2-6.2,27.6-12,42.2-5.4"/>
			<path class="st5" d="M455.7,410c6.9,7.3,15.4,15.7,22.3,24.3c3.1,3.9,5.9,7.8,8.1,11.8"/>
			<path class="st5" d="M470.7,405.7c8.8,10.6,18.8,23.4,27.7,34.1c0.3,0.3,0.5,0.6,0.7,0.9"/>
			<path class="st5" d="M487.3,447c4.7-2.6,7.3-3.7,12-6.3"/>
			<path class="st5" d="M385.4,552.4c2.9-4.4,6.3-6,9.2-10.4"/>
			<path class="st5" d="M376.1,502.7c0.1,0.3,0.2,0.5,0.3,0.8c4.1,13.1,9,28.4,18.2,38.5"/>
			<path class="st5" d="M591,286.7c-1.1-1.3-2.2-2.5-3.3-3.8c0-0.1-0.1-0.1-0.1-0.2c0.1,0.1,0.1,0.2,0.2,0.3c0,0,0,0,0,0
				c12.2,18.8,16.3,42.7,11,64.5c-5.3,21.9-20,41.4-39.6,52.5c-10.6,6-22.4,9.6-33.4,15c-11,5.3-21.5,13-26.6,24.1"/>
			<path class="st5" d="M50.5,393c32.8,10.1,56.1,45,52.9,79.2c-1.3,14.4-7.4,28.1-16.4,39.4c-11.9,14.9-29.2,25.6-48,28.3
				c-0.8,0.1-1.5,0.2-2.3,0.3"/>
			<path class="st5" d="M51.7,390c-0.7,0.7-1.4,1.3-2.1,2c-18.9,18.5-31,44-33.2,70.4c-2.3,27.4,5.9,55.5,22.6,77.4"/>
			<path class="st5" d="M277.6,259.4c-0.3,2.6-0.7,5.1-1,7.7"/>
			<path class="st5" d="M284.9,479.7c-0.1-0.1-0.2-0.1-0.3-0.2c-0.7-0.6-1.4-1.2-2.1-1.8c-3.5-3.3-6.3-7.4-7-12.1
				c-1.5-10.2,7-19,14.7-25.8c14.4-12.7,28.7-25.3,43.1-38c2.5-2.2,5-4.5,6.3-7.6c1-2.4,0.8-5.5-0.7-7.5c-0.4-0.5-0.9-1-1.5-1.4
				c-2.8-1.7-7.4,0.7-6.8,3.9"/>
			<path class="st5" d="M285,479.7c1.1,0.6,2.4,0.8,3.7,0.5c5.4-1.3,5.9-9.6,10.8-12.1c4.6-2.3,10.4,2.7,9.9,7.8
				c-0.5,5.1-5.7,8.8-10.8,9C293.6,485.2,288.9,482.8,285,479.7z"/>
			<path class="st5" d="M285,479.7C284.9,479.7,284.9,479.7,285,479.7"/>
			<path class="st5" d="M333.7,389.8c-0.9,0.3-1.7,0.6-2.5,0.9c-2.8,1-5.7,1.9-8.5,2.9c-3.4-5,1.3-12.7,7.4-13
				c4.2-0.2,8.1,2.3,10.3,5.9c1,1.6,1.7,3.3,1.9,5.1c0.9,6-1.7,12-5.6,16.7c-3.9,4.7-8.9,8.2-13.6,11.9
				c-14.8,11.7-27.7,25.7-38.1,41.5c-2.2,3.4-4.5,7.2-4.2,11.3c0.1,1.7,0.8,3.3,1.8,4.7c0.7,0.9,1.5,1.6,2.4,2.1"/>
			<path class="st5" d="M162.2,430.5c-23.1,28.6-46.2,57.2-69.3,85.8c-10.3,12.7-20.5,25.4-30.8,38.1c-3.7,4.6-7.5,11.3-3.7,15.8
				c4.7,5.5,13.5,0,18.5-5.3c37.4-39.9,81.7-73.3,130.4-98.3c0.9-0.5,1.8-0.9,2.8-1.4"/>
			<path class="st5" d="M163,431.1c1.6,1.2,3.1,2.5,4.7,3.7c3.3,2.6,6.6,5.2,9.9,7.8c3.9,3.1,7.8,6.2,11.8,9.3
				c3.9,3.1,7.8,6.1,11.6,9.2c2,1.5,3.9,3.1,5.9,4.6"/>
			<path class="st5" d="M274.6,342c-2.3-0.9-4.9,1.9-4.3,4.3c0.6,2.2,3.2,3.5,5.5,3.2c0.2,0,0.3,0,0.5-0.1c1.5-0.4,2.6-1.3,3.3-2.5
				c1.9-3,1.5-7.8-1.2-10.5c-0.7-0.7-1.4-1.2-2.1-1.7c-3.6-2.2-8.5-2.4-12.8-1.8c-17.5,2.4-31.9,14.3-46.6,24.2
				c-14.6,9.9-32.7,18.4-49.5,12.8c4.3-0.9,8.9-1.8,12.3-4.6c3.4-2.8,5.2-8.2,2.6-11.8c-2.2-3.1-6.7-3.8-10.2-2.5
				c-7.3,2.6-9.9,12-7.2,19.3c0.5,1.5,1.3,2.8,2.2,4c5.7,7.3,16.3,9.2,25.4,7.1c9-2.1,16.9-7.5,24.5-12.8
				c14.6-10.1,29.2-20.2,43.7-30.3c2.5-1.7,5.1-3.5,8-4c2.1-0.4,4.4,0.1,6,1.4c0.7,0.5,1.3,1.2,1.6,2c1.2,2.8-1.2,6.7-4.1,6.1"/>
			<path class="st5" d="M303.1,310.3c0.8,0.3,1.6,0.5,2.4,0.8c1.4,0.5,2.9,1,4.3,1.6c4.1,1.6,8.1,3.6,12,5.7
				c5.5,3.1,10.8,6.6,15.7,10.6c5.2,4.2,10.1,8.9,14.5,14c3.6,4.3,7,8.8,9.9,13.6"/>
			<path class="st5" d="M658.7,75.9c-58.9,40.4-118.1,80.3-177.8,119.6c-59.4,39.1-119.1,77.6-179.2,115.6c1.2,0,2.5,0,3.7,0.1
				c0.3,0,0.7,0,1,0"/>
			<path class="st5" d="M363.2,355.7c57.7-43.8,115.4-87.6,173.1-131.4c44.3-33.7,88.6-67.3,132.9-100.9c2.2-1.7,4.5-3.4,6.7-5.1
				c0.1-0.1,0.3-0.2,0.4-0.3"/>
			<path class="st5" d="M658.6,72.9c0.4,0.1,0.8,0.3,1.2,0.4c12.2,4.2,23.4,11.2,32.6,20.3"/>
			<path class="st5" d="M676.6,119.2c15.3,5.9,34.6-2.2,41.2-17.2"/>
			<path class="st5" d="M658.6,74.9c0.4-0.5,0.8-1,1.2-1.5c3.3-4,7.1-7.5,11.2-10.6c3.9-2.9,8-5.4,12.4-7.4
				c3.5-1.6,7.2-2.9,10.9-3.9c0.9-0.2,1.9-0.5,2.8-0.7c14.5-3,30-1,43.2,5.7c0.6,0.3,1.2,0.6,1.8,0.9"/>
			<path class="st5" d="M716.4,98c0.9,0.6,1.9,1.2,2.8,1.8c4.5,3,9,6.1,13.6,9.1"/>
			<path class="st5" d="M732.7,87.2c1.4,1,2.7,2,4.1,3c2.6,1.9,5.3,3.8,7.9,5.7"/>
			<path class="st5" d="M744.9,95.9c2.7-3.7,8-3.7,12-1.4c1.8,1,3.2,2.5,4.1,4.3c2.8,5.9,0.6,13.1-3.3,18.4c-0.5,0.6-1,1.3-1.5,1.9
				c-2.3,2.7-5.2,4.8-8.6,5.8c-4.1,1.2-9.1,0.3-11.9-2.9c-2.5-2.9-2.7-7.8-0.2-10.7c0.3-0.3,0.6-0.6,0.9-0.9"/>
			<path class="st5" d="M748,80.5c-4.1,1.2-7.7,4-9.8,7.8"/>
			<path class="st5" d="M731.7,86.9c-2-0.5-4-0.4-5.9,0.1c-5,1.3-9.3,5.7-10.1,10.9c-0.1,0.8-0.2,1.6-0.1,2.3"/>
			<path class="st5" d="M749.1,79.5c2.8,2.3,5.6,4.5,8.3,6.8c1.2,1,2.4,2,3.6,3c0,0,0,0,0,0"/>
			<path class="st5" d="M761.9,89.9c3.4-5.2,12.5-3.8,15.6,1.7c3.1,5.4,1.2,12.6-2.9,17.4c-4.1,4.8-9.9,7.7-15.5,10.5"/>
			<path class="st5" d="M682.7,53.2c-2.1-1.4-4.2-2.8-6.3-4.2c-0.1-0.1-0.1-0.1-0.2-0.1"/>
			<path class="st5" d="M676.3,50.1c0-0.4,0-0.7,0-1.1c-0.1-1.8-0.5-3.5-1.3-5.2c-2.6-5.8-9-10-15.4-9.2
				c-8.6,1.1-14.9,10.8-12.4,19.1c2.5,8.3,13.2,12.8,20.9,8.9"/>
			<path class="st5" d="M677.7,43.2c2-3.6,6.8-5.5,10.7-4.2c3.9,1.3,6.6,5.8,5.9,9.8"/>
			<path class="st5" d="M743,55.8c-5.2-3.1-7.5-9.9-6.6-15.8c0.9-6,4.5-11.3,8.8-15.5c3.2-3.2,7-5.9,11-7.8c5.5-2.7,11.5-4,17.5-3.5
				c7.6,0.7,14.7,4.7,19.7,10.5c4.4,5.1,7.2,11.6,7.4,18.4c0.4,13.8-10.3,27.1-23.8,29.9c-0.1,0-0.3,0.1-0.4,0.1
				c-0.4,0.1-0.9,0.2-1.3,0.2"/>
			<path class="st5" d="M757.8,85.9c6.6-3.9,13.2-7.8,19.8-11.7"/>
			<path class="st5" d="M791.4,25.4c-9.4,1.4-18,7.5-22.5,15.9c-4.4,8.1-4.9,18.1-1.4,26.6c0.1,0.3,0.3,0.6,0.4,0.9
				c-8.5-3.8-17.1-7.7-25.6-11.5c-0.6-0.3-1.3-0.6-1.9-0.8"/>
			<path class="st5" d="M776.3,70c-2.9-0.7-5.8-1.4-8.7-2.1"/>
			<path class="st5" d="M790.6,40.8c-0.1,0-0.1,0-0.2,0c-4.8-0.2-9.6,2.5-11.8,6.7c-2.8,5.3,0.5,13.7,6.5,13.4c4-0.2,7-4.2,7.4-8.2
				c0.5-4-0.9-7.9-2.2-11.7"/>
			<path class="st5" d="M736.4,40c-1.1-6.2-1.9-15.8,2.9-19.9c4.6-3.9,11.3-5.3,17-3.5c0.2,0.1,0.4,0.1,0.6,0.2"/>
			<path class="st5" d="M693.1,94.4c-2.1,2-4.2,3.9-6.4,5.9c-5.5,5.1-11.1,10.3-16.7,15.4c-1.3,1.2-2.6,2.4-2.9,4.1
				c-0.3,1.5,0.6,3.4,2.1,3.6c0.1,0,0.3,0,0.5,0"/>
			<polyline class="st5" points="661.5,80.5 309.8,312.7 276.3,334.8 274.8,335.8 241.3,357.9 237,360.7 226.8,367.5 			"/>
			<polyline class="st5" points="682.7,95.9 351.9,343 289.2,389.9 268.1,405.7 			"/>
			<polyline class="st5" points="667.1,84.3 321.8,318.4 279.6,346.9 275.8,349.5 253.7,364.5 239.7,374 			"/>
			<polyline class="st5" points="676.3,89.3 337.5,329 271.5,375.6 263.5,381.3 			"/>
			<polyline class="st5" points="163.9,439.2 167.7,434.8 226.8,367.5 			"/>
			<polyline class="st5" points="172.3,448.5 177.5,442.6 233.9,380.5 239.7,374 			"/>
			<polyline class="st5" points="184.9,456.1 189.3,452 250.5,393.6 263.5,381.3 			"/>
			<polyline class="st5" points="195.4,465.8 201,461.2 266.1,407.3 268.1,405.7 			"/>
			<path class="st5" d="M232.1,379.2c0.6,0.4,1.2,0.9,1.7,1.3c5.5,4.1,11.1,8.5,16.7,13.2c5.3,4.4,10.6,9,15.6,13.7
				c2.9,2.7,5.7,5.4,8.4,8.1c0.3,0.3,0.6,0.6,0.9,0.9"/>
			<path class="st5" d="M231.8,379.9c0-0.2,0-0.5,0-0.7c0.1-6.2,2.9-12.4,5.2-18.5c0.5-1.4,1-2.8,1.4-4.2"/>
			<path class="st5" d="M238.5,356.5c0.9,0.5,1.9,0.9,2.8,1.4c4.1,2.1,8.2,4.3,12.4,6.6c6,3.4,12.1,7.1,17.8,11.1
				c6.4,4.5,12.5,9.2,17.7,14.3l0,0"/>
			<path class="st5" d="M274.2,416.3c0.1-0.3,0.2-0.6,0.4-0.9c3.5-8.5,9.2-18.4,14.7-25.5"/>
		</g>
	</g>
</g>
</svg>
