<?xml version="1.0" encoding="utf-8"?>
<!-- Generator: Adobe Illustrator 23.1.0, SVG Export Plug-In . SVG Version: 6.00 Build 0)  -->
<svg version="1.1" id="Layer_2" xmlns="http://www.w3.org/2000/svg" xmlns:xlink="http://www.w3.org/1999/xlink" x="0px" y="0px"
	 viewBox="0 0 388.1 806.8" style="enable-background:new 0 0 388.1 806.8;" xml:space="preserve">
<style type="text/css">
	.st0{fill:#E6E6E6;}
	.st1{fill:#999999;}
	.st2{fill:#808080;}
	.st3{fill:#B3B3B3;}
	.st4{fill:#666666;}
	.st5{fill:#C1272D;}
	.st6{fill:none;stroke:#000000;stroke-width:4;stroke-miterlimit:10;}
</style>
<g id="XMLID_1_">
	<g>
		<path class="st0" d="M164.1,273.1c2.4,1.2,4.1,4,3.7,6.7c-0.2,1.1-0.7,2.2-1.4,3.1c-1.5,1.8-4,2.8-6.3,2.3
			c-2.3-0.5-4.1-2.5-4.7-4.8c-0.3-1.1-0.3-2.3,0.1-3.4c1.1-3.3,5.4-5.2,8.5-3.8L164.1,273.1z"/>
		<path class="st0" d="M280.7,335.4l1.4-0.5c0.3-0.2,0.6-0.5,0.9-0.7l0.3,0.4c3,1.4,4.8,5.1,3.9,8.3c-0.2,0.7-0.5,1.4-1,1.9
			c-1.5,2.1-4.3,3.3-6.8,2.8c-3.3-0.7-5.6-4.3-4.8-7.5c0.4-1.5,1.3-2.7,2.6-3.5C278.3,335.8,279.5,335.4,280.7,335.4z"/>
		<path class="st0" d="M207.5,336.3c0.1,0,0.2-0.1,0.3-0.1l3.7,0c2,0.7,3.5,2.8,3.7,4.9c0.1,0.7,0,1.5-0.2,2.2
			c-0.9,2.8-4.2,4.5-7.1,3.7s-4.6-4.1-3.9-6.9C204.5,338.3,205.9,336.9,207.5,336.3z"/>
		<path class="st1" d="M379.8,99.3c0,0.7-0.1,1.5-0.1,2.2l-0.2,0c-7.8,1.4-15.7,2.9-23.5,4.3l-1.6,0.2c-5.3-9.3-10.7-18.2-16.4-26.8
			c1.6-1.6,3.5-3.1,5.5-4.2l0.8-1c1.3,1.8,3.5,2.9,5.6,2.6l10.9-3.1C367.6,82.4,374.2,91.1,379.8,99.3z"/>
		<path class="st1" d="M361.6,224.2l-0.3,0.3c-0.5-0.5-1.3-0.8-2-0.7c-0.9,0.1-1.7,0.7-2.3,1.4c-0.8,0.9-1.3,2.1-1.4,3.4l-8-0.4
			c0.7-12,1.4-24.1,2-36.1c1.6-28.5,3.2-57.1,4.7-85.9l1.6-0.2c7.8-1.4,15.7-2.9,23.5-4.3l0.2,0c-2.1,43.2-4.3,86-6.4,128.8l-9-0.4
			c0-0.8-0.2-1.6-0.5-2.4C363.3,226.3,362.5,225.2,361.6,224.2z"/>
		<path class="st1" d="M356.8,321.8l-0.2,0.6c-2.1-0.5-4.5,0.8-5.2,2.9c-0.1,0.3-0.2,0.6-0.2,0.9l-9-0.5c1.8-32.6,3.6-65.1,5.4-97.5
			l8,0.4c-0.1,1.5,0.3,2.9,1.3,4c1.9,2,5.7,1.7,6.9-0.7c0.3-0.6,0.5-1.3,0.5-2l9,0.4c-1.6,32.2-3.2,64.4-4.8,96.8l-8.4-0.4
			C360.3,324.6,358.8,322.5,356.8,321.8z"/>
		<path class="st1" d="M360.1,326.7l8.4,0.4c-0.6,12.8-1.3,25.5-1.9,38.3l-5.4,0.4c-6.8-2.5-13.6-3.5-21.1-2.8
			c0.7-12.5,1.3-25,2-37.4l9,0.5c-0.1,1.9,1.1,4,3,4.6c2.5,0.9,5.6-1.1,5.9-3.8C360.1,326.9,360.1,326.8,360.1,326.7z"/>
		<path class="st2" d="M221.8,717.6c-0.4-7.5-0.8-15-1.1-22.5l5.1-0.2c32.9,1.3,65.7,5.7,97.8,13.2c13.4,3.1,27.4,7.1,37.4,16.6
			c10,9.5,14.7,26.1,6.7,37.4c-5.1,7.3-14.1,10.8-22.5,13.6c-95.2,31.9-200.7,32-295.9,0.4c-9.2-3-19.5-7.6-22.3-16.9
			c-1.9-6.2,0.3-13,4.3-18.1c4-5.1,9.5-8.7,15.1-11.9c39.5-22.6,85.9-29,131-34.9l1.8,0c0.1,8.2,0.3,16.4,0.4,24.6
			c7.6,4.8,17,6.6,25.9,5.2c1.7-0.3,3.5-0.6,5.1-1.1C214.6,721.8,218.4,720,221.8,717.6L221.8,717.6z M155.6,770.2l-8.3-2.9
			c-2.8-5.4-6.4-10.4-10.8-14.6c-2.1-2.1-5.3-4.1-7.8-2.6c-2.9,1.7-2.1,6.2-0.6,9.2c1.7,3.4,3.8,6.5,6.1,9.4l-6.4,4.4
			c-3.3,2.9-3.1,8.6-0.2,11.9c2.9,3.3,7.9,4.3,12.1,3.1c3.4-1,6.4-3.1,8.8-5.8c0.6-0.6,1.1-1.3,1.6-1.9
			C152.5,777.3,154.1,773.7,155.6,770.2z M152.8,747.6c0.1-0.6,0.3-1.2,0.4-1.7l0,0c3.7,4,10.5,4.6,14.9,1.3l3.2-3.5
			c3.2-3.5,1.6-9.9-2.5-12.2c-4.2-2.3-9.8-0.9-13,2.6c-3.2,3.5-4.3,8.6-3.7,13.3L152.8,747.6z"/>
		<path class="st1" d="M321.6,385.5c6.2-7.5,12.4-14.9,18.6-22.4c7.5-0.8,14.3,0.3,21.1,2.8c1.6,0.6,3.2,1.2,4.8,1.9
			c-17,19.3-33.8,39-48.2,58l-0.8-0.6c-4.7-1.4-14.3-4.1-22.8-6.7C303.4,407.4,312.5,396.5,321.6,385.5z"/>
		<path class="st1" d="M344.3,74l-0.8,1c-2,1.2-3.8,2.6-5.5,4.2c-8.2-12.4-16.8-24.4-26.1-36.8l0,0c0.9-0.3,1.7-0.6,2.6-0.9
			c5.9-2.1,11.9-4.1,17.9-6.2c8.1,12,18.5,25.2,28.4,38.1l-10.9,3.1C347.8,77,345.6,75.8,344.3,74z"/>
		<path class="st0" d="M343,191.6c0,0.9-1,2.3-1.1,4.3c-0.1,2.2-1.5,4.2-3.4,5.3c-0.9,0.5-1.8,0.8-2.8,0.8c-1.7,0.1-3.3-0.6-4.6-1.6
			c-0.9-0.7-1.6-1.6-2-2.7c-0.1-0.4-0.3-0.7-0.3-1.1c-0.5-2.4,0.5-5.1,2.3-6.8c0.5-0.4,1.1-0.8,1.7-1.1c2.9-1.3,6.6-0.5,8.7,1.9
			C342.7,190.8,343,191.1,343,191.6z"/>
		<path class="st1" d="M336.8,278.8c0.5,1.2,0.6,2.6,0.2,3.9c-0.5,1.6-1.8,2.8-3.3,3.5c-1.3,0.5-2.7,0.7-4,0.3
			c-1.2-0.4-2.3-1.2-3-2.2c-0.6-0.9-1.1-2-1.1-3.1c-0.1-0.6,0-1.3,0.2-1.9c0.4-1.5,1.6-2.8,3-3.6v0c3.9-24,3.9-50.6,2.1-74.9
			l0.4-0.4c1.3,1.1,2.9,1.7,4.6,1.6c1-0.1,1.9-0.4,2.8-0.8l1.2,0c-0.9,24.5-1.9,53.1-2.8,77.6L336.8,278.8z"/>
		<path class="st1" d="M341.5,190.7c-2.1-2.4-5.8-3.2-8.7-1.9c-0.6,0.3-1.2,0.7-1.7,1.1l-0.6-0.2c-10.2-19-22.7-36.7-37.3-52.6
			c1.7-1,2.8-3,3-4.9c0.1-1.1,0-2.1-0.4-3.1C310.8,150,326.6,169.7,341.5,190.7z"/>
		<path class="st1" d="M333.6,286.2l0.2,0.5c-13.8,15.8-26.9,33.5-39.6,50.8c-1.9,2.6-3.8,5.2-5.7,7.7c-0.2,0.3-0.4,0.5-0.5,0.7
			l-1.7-1.3c0.4-0.6,0.8-1.2,1-1.9c0.9-3.2-0.9-6.9-3.9-8.3l-0.3-0.4v0c17.2-13.5,31.8-30.3,42.7-49.3l0.9-0.5c0.7,1,1.8,1.8,3,2.2
			C331,286.9,332.4,286.8,333.6,286.2z"/>
		<path class="st1" d="M332.4,35.4c-6,2-11.9,4.1-17.9,6.2l-0.3-0.8c-69.8-4.3-144.8-16.3-212.6-22l-0.3-0.3
			c1.8-1.6,3.5-3.2,5.3-4.7l0.8-0.1C184.3,21.5,255.6,27.4,332.4,35.4z"/>
		<path class="st3" d="M331.1,200.4l-0.4,0.4c1.8,24.3,1.8,50.9-2.1,74.9v0c-1.4,0.7-2.6,2-3,3.6c-0.2,0.6-0.2,1.2-0.2,1.9l-6.5,0.7
			c-0.5,0-1,0-1.4,0c-0.3-27.1,0.7-54.2,3-81.2l0-0.2l8.5-2.7C329.6,198.8,330.3,199.7,331.1,200.4z"/>
		<path class="st3" d="M309.4,282h0.6c2.5,0,5.1,0,7.6-0.1c0.5,0,0.9,0,1.4,0l6.5-0.7c0.1,1.1,0.5,2.2,1.1,3.1l-0.9,0.5
			c-10.9,19-25.5,35.8-42.7,49.3v0c-0.3,0.3-0.6,0.5-0.9,0.7l-1.4,0.5c-1.2,0-2.4,0.4-3.4,1.1l0,0c-17.8,10.3-42.8,11.9-62,4.7
			c-0.2-2.1-1.7-4.2-3.7-4.9l-3.7,0c-0.1,0-0.2,0.1-0.3,0.1c-18.3-13.1-32.4-32-39.7-53.2l-1.4-0.2c0.8-0.9,1.3-1.9,1.4-3.1
			c0.4-2.7-1.3-5.5-3.7-6.7c-0.3-0.1-0.6-0.3-0.9-0.4l0.2-0.5c-7.1-25.1-5.7-52.5,4.1-76.7l-0.3-0.4c2.1-1.5,3.5-4.1,3.1-6.7
			c-0.2-1.2-0.8-2.3-1.6-3.1l1.6-0.1c9.1-21.4,25.1-39.9,44.9-52c0.5,0.2,1.1,0.4,1.7,0.4c3.7,0.5,7.4-2.4,8-6l1.3,0.1
			c19.4-4.1,39.8-3.6,59,1.5l0.2,0c-0.4,1.8-0.2,3.8,0.8,5.5c1.2,1.9,3.4,3.3,5.6,2.9c0.6-0.1,1.1-0.3,1.6-0.6
			c14.5,15.9,27.1,33.6,37.3,52.6l0.6,0.2c-1.8,1.7-2.8,4.3-2.3,6.8c0.1,0.4,0.2,0.8,0.3,1.1l-8.5,2.7c-2.1-0.1-4.1-0.3-6.2-0.4
			l-0.9,0.2C310.8,227.4,309.4,254.7,309.4,282z M209.1,198.5c-2.5,0-5.1-0.3-7.6-0.2c-1.3,32.2-2.5,64.3-3.8,96.5v1
			c3.5,0.3,7.7,0.1,11.1,0.4c0.6-32.5,1.2-64.9,1.7-97.4L209.1,198.5z M303.8,181.3c0.1-9.5,0.2-19,0.3-28.6h-0.4
			c-2.4,0-4.8,0-7.1,0C299.1,162.1,301.4,171.9,303.8,181.3z M277.3,180.8l0.8-0.5c0.4-8.9,0.3-17.7-0.2-26.6l-0.8-0.1
			c-2.4,4.8-4.8,9.5-7.1,14.3C271.5,172.2,274.5,176.9,277.3,180.8z M295.5,174.2l-1.3,0.4c-0.8,2.8-1.6,7.1-2.4,10
			c1.5,0.1,4.3,0.5,6.1-0.4C297.5,180.7,296.7,177.4,295.5,174.2z M260.6,150.4l0,0.4c1,2.4,2.6,6.7,3.6,9c1.1-1.9,4.6-7.1,5.8-9
			C266.6,150.9,263.8,150.3,260.6,150.4z M291.9,199.2c-2.4-0.1-4.7-0.3-7.1-0.4c-1.6,37.6-3.8,73.5-5.3,111.1l1,0
			c3-0.3,5.2-0.1,8.2-0.4v-0.4c1-36.6,2.1-73.2,3.1-109.8L291.9,199.2z M240.9,325.8l0.1-1.6c2.8-41.7,3.9-83.6,3.2-125.4
			c-2.5,0.5-6.1,0.4-8.6,0.9c-1.2,40.7-2.4,83.9-3.6,124.6l0,1C235.1,325.6,237.8,325.6,240.9,325.8z M225.4,309.5l0.1-1
			c1.5-37.1,1.3-71.7,2.8-108.7c-3.5,0-4.6-0.2-8.1-0.2l-0.7,0.2c-0.3,36.3-1.7,72.6-4.2,108.8C219,308.9,221.6,309.2,225.4,309.5z
			 M216.1,182.1c7.2,1.2,13.5,1.2,20.6,0.1c0.3-0.1,0.7-0.1,1.1-0.2l8.7,0.1c6.4-1.9,9.2-7.7,9.3-14.5c0.1-7.1-5-13.9-11.8-15.8
			l-9.3-0.1c-3.8,1.7-6.7,5-8.2,8.9l-1.6-0.6C221.9,167.3,219.1,175.2,216.1,182.1z M260.1,184.6c2.7,0,7.3,0,10,0
			c-1.7-3.3-3.1-6.1-4.8-9.5l-1.1,0.5c-1.4,2.8-2.9,5.7-4.3,8.6L260.1,184.6z M200.2,182.4c4.3,0.2,6.3,0.3,10.6-0.3
			c-4.4-8.6-8.1-21.8-11.9-30.8C199.7,161.4,199.4,172.3,200.2,182.4z M192.6,199.3l0-0.5c-3.2-0.2-6.3-0.3-9.5-0.5l-1,0.1
			c-0.6,28.7-1.3,57.4-2,86c2.1-0.1,8.4,0.6,10.4,0.5C191.2,256.3,191.9,227.8,192.6,199.3z"/>
		<path class="st4" d="M307.9,376c0.4-0.1,0.7-0.4,0.8-0.8C308.3,375.3,308.1,375.6,307.9,376z M302.8,368.1
			c0.2-0.1,0.3-0.2,0.5-0.4C303.1,367.8,302.9,367.9,302.8,368.1z M289.8,346.2l-1.3-1c1.9-2.6,3.8-5.1,5.7-7.7l2.2,1.6
			c0.8-1,2.5-0.9,3.3,0.1c0.8,1,0.3,2.7-0.8,3.2c1,0.2,2.1,0.4,3.1,0.6c-0.6,1.3-1.1,2.7-1.7,4c1.2-0.2,2.4-0.4,3.6-0.6
			c-0.4,1.3-0.8,2.5-1.3,3.8c0.8-0.7,2.1-0.4,2.5,0.5c0.3,0.7,0,1.5-0.6,2c-0.2,0.1-0.5,0.2-0.7,0.3c0.3,0,0.5-0.1,0.7-0.3
			c1.1-0.3,2.5,0.3,3,1.4c0.6,1.3-0.3,3.1-1.7,3.5c1.4,0.3,2.7,0.6,4,1.1c-0.4,0.9-0.8,1.9-1.1,2.8c1.1-0.8,2.8-0.5,3.5,0.6
			c0.6,1,0.4,2.4-0.5,3.2c-0.2,0.1-0.3,0.2-0.4,0.3c0.2-0.1,0.3-0.2,0.4-0.3c0.8-0.5,2-0.2,2.6,0.6c0.6,1,0.1,2.5-1,2.8
			c1.2,0,2.4,0,3.7-0.1c-0.5,1.3-1,2.5-1.5,3.8c0.7-0.9,2.2-0.9,2.9,0c0.7,0.9,0.3,2.4-0.7,2.8c0.7,0.1,1.5,0.2,2.2,0.3
			c-0.5,0.9-0.9,1.9-1.4,2.8c0.7-0.3,1.4-0.6,2.2-0.8c-0.2,2.2-1.5,4.3-3.3,5.6l-1.3-0.1c-0.4,0.5-0.9,0.8-1.6,0.8c-1,0-1.9-1-1.8-2
			c-0.3,1.2-2.4,0.7-2.6-0.6c-0.1-0.9,0.3-1.7,0.9-2.4c0.3-0.2,0.5-0.5,0.7-0.8c-0.2,0.2-0.5,0.5-0.7,0.8c-0.9,0.6-2.1,0.6-2.9-0.1
			c-0.7-0.7-0.8-1.9-0.4-2.8c-0.8,0.3-2-0.2-2.4-1.1c-0.5-1.3,0.3-2.8,1-4c-0.7,1.3-2.7,1.6-3.8,0.6c-0.9-0.9-0.8-2.5,0-3.4
			c-0.8,0.4-1.9,0.3-2.5-0.4c-0.8-0.8-0.7-2.3,0.2-3c-1,0.7-2.6,0.3-3.1-0.8c-0.6-1.1,0-2.6,1.2-3c-1,0.6-2.5,0.1-3.1-0.9
			c-0.5-1-0.1-2.3,0.8-2.9c-0.9,0.4-2.1,0.1-2.6-0.8c-0.6-0.9-0.2-2.4,0.7-2.9c-1.1,0.3-2.4-0.3-2.8-1.3c-0.5-1-0.1-2.4,0.9-3
			c-0.9,0.5-2.1,0.2-2.6-0.7C289.3,347.7,289.4,346.8,289.8,346.2z"/>
		<path class="st4" d="M320.6,200.5l0,0.2c-2.3,27-3.3,54.1-3,81.2c-2.5,0-5.1,0.1-7.6,0.1h-0.6c0-27.3,1.4-54.6,4.1-81.7l0.9-0.2
			C316.5,200.2,318.5,200.3,320.6,200.5z"/>
		<path class="st1" d="M211.5,421.8L211.5,421.8c32-0.2,80.3-2.1,81.7-2.1c0.3-0.4,0.7-0.8,1-1.2c8.5,2.6,18,5.3,22.8,6.7l0.8,0.6
			c-0.3,0.4-0.5,0.7-0.8,1.1c-32.5,0.2-65.6,1.3-98.7,3.8c-2.3,0.2-4.5,0.4-6.8,0.5c-8.3,0.7-16.5,1.4-24.8,2.3
			c-4.1,0.4-8.2,0.9-12.3,1.4c-15.6,1.8-31.2,4-46.6,6.5c-12.4,2.1-27.1,5.9-37.8,0.2h0c-1.3-0.7-2.5-1.5-3.6-2.5c-1-1-1.9-2-2.8-3
			l1-1c31-4.5,65.3-6.7,96.3-11.2c-0.7-3-1.9-7.8-0.1-10.3c0.9-1.3,9.3-1,15.2-0.6c3.8,0.3,6.6,0.7,5.4,0.7c-0.8,0-1.5,0-2.3-0.1
			c1.2,0.1,1.9,0.1,2.3,0.1c1.1,0,2.3,0.1,3.4,0.1c2.2,0.1,4.4,0.2,6.5,0.3C211.5,415.7,211.5,419,211.5,421.8z"/>
		<path class="st0" d="M293.3,137.1c-0.5,0.3-1.1,0.5-1.6,0.6c-2.2,0.3-4.4-1-5.6-2.9c-1-1.6-1.3-3.6-0.8-5.5
			c0.1-0.6,0.3-1.1,0.6-1.6c1.1-2.2,5.7-1.6,8.1-1.8c0.9,0.9,1.5,2,1.9,3.1c0,0,0,0,0,0c0.3,1,0.5,2,0.4,3.1
			C296.1,134.1,295,136.1,293.3,137.1z"/>
		<path class="st1" d="M216.6,118.6c-1.6,0.4-3.1,1.3-4.2,2.5l-1.6-1.5c0.7-0.7,1.3-1.4,2-2.2l0.1-1.8c0.5,0,1.1,0.1,1.6,0.1
			c24.3-0.2,52.7,5.1,76.8,8.3c0.9,0.4,1.8,0.9,2.5,1.6c0.1,0.1,0.1,0.1,0.2,0.2c-2.5,0.2-7-0.4-8.1,1.8c-0.3,0.5-0.5,1.1-0.6,1.6
			l-0.2,0c-19.2-5.1-39.6-5.6-59-1.5l-1.3-0.1c0.1-0.4,0.1-0.7,0.1-1.1c-0.1-4-4.2-7.3-8-6.6L216.6,118.6z"/>
		<path class="st4" d="M291.9,199.2l0,0.1c-1,36.6-2.1,73.2-3.1,109.8v0.4c-3,0.3-5.2,0.1-8.2,0.4l-1,0c1.6-37.6,3.7-73.4,5.3-111.1
			C287.1,198.9,289.5,199,291.9,199.2z"/>
		<path class="st1" d="M286.3,344.8l1.7,1.3c-1.7,2.3-3.4,4.7-5.2,7c-25.2-1.1-52.8-1.2-78.1-0.3l0-1.3
			c-19.9-22-38.3-45.2-55.1-69.6l0-0.8c0.1,0,0.2,0,0.3,0c0.3,0,0.6,0,0.8,0l4.8-0.6c0.6,2.3,2.4,4.3,4.7,4.8
			c2.3,0.5,4.8-0.5,6.3-2.3l1.4,0.2c7.3,21.3,21.4,40.1,39.7,53.2c-1.6,0.7-3,2.1-3.4,3.8c-0.8,2.8,1.1,6.1,3.9,6.9s6.1-0.9,7.1-3.7
			c0.2-0.7,0.3-1.5,0.2-2.2c19.2,7.2,44.3,5.6,62-4.7l0,0c-1.3,0.8-2.2,2.1-2.6,3.5c-0.8,3.2,1.6,6.8,4.8,7.5
			C282,348.1,284.8,346.8,286.3,344.8z"/>
		<path class="st3" d="M243.9,151.7c6.8,1.9,11.8,8.7,11.8,15.8c-0.1,6.8-2.9,12.6-9.3,14.5l-8.7-0.1c-0.4,0.1-0.7,0.1-1.1,0.2
			l-0.1-0.7c-6.3-1.9-11-8.1-11.3-14.6c-0.1-2.2,0.3-4.4,1.1-6.4c1.5-3.9,4.5-7.2,8.2-8.9L243.9,151.7z"/>
		<path class="st4" d="M244.3,198.8c0.6,41.8-0.4,83.7-3.2,125.4l-0.1,1.6c-3.1-0.3-5.8-0.3-8.9-0.5l0-1
			c1.2-40.7,2.4-83.9,3.6-124.6C238.2,199.2,241.8,199.3,244.3,198.8z"/>
		<path class="st4" d="M228.2,199.8c-1.5,37.1-1.3,71.7-2.8,108.7l-0.1,1c-3.8-0.3-6.4-0.6-10.1-0.9c2.6-36.2,3.9-72.5,4.2-108.8
			l0.7-0.2C223.6,199.6,224.8,199.7,228.2,199.8z"/>
		<path class="st0" d="M216.9,119.9c3.9-0.7,8,2.7,8,6.6c0,0.4,0,0.8-0.1,1.1c-0.6,3.6-4.4,6.4-8,6c-0.6-0.1-1.1-0.2-1.7-0.4
			c-3.2-1.3-5.3-5-4.7-8.4c0.3-1.4,0.9-2.6,1.9-3.6c1.1-1.2,2.6-2.1,4.2-2.5L216.9,119.9z"/>
		<path class="st2" d="M221.8,717.6L221.8,717.6c-3.4,2.4-7.2,4.3-11.2,5.4l-0.4-1.4c-5.1-98.1-4.7-191.4,1.4-289.4l-0.1-1.1
			c2.3-0.2,4.5-0.4,6.8-0.5l0,0.2c-2.4,88.1-1.6,176.3,2.4,264.3C221.1,702.6,221.4,710.1,221.8,717.6z"/>
		<path class="st4" d="M139.5,145.7l0.2,0c1.9,1.1,4.4-0.8,4.7-3c0-0.3,0-0.6,0-0.9c-1-0.2-2-0.1-2.9,0.4
			C140.2,142.9,139.6,144.3,139.5,145.7z M132,116.4l0.8,0.2c0.3-0.3,0.6-0.5,1-0.6c1-0.4,2.3-0.3,2.9,0.7c0.6,1,0,2.4-0.8,3.3
			c-0.2,0.1-0.4,0.3-0.5,0.5c0.1-0.2,0.3-0.3,0.4-0.4c0,0,0,0,0,0c0.6-0.4,1.6-0.4,2.2,0.2c0.8,0.7,0.9,2,0.5,3l1.7,0.2
			c2.4-2.5,4.7-5,7.1-7.5l1.5-0.8c21.1,1,42.9,0,64,0.9l-0.1,1.8c-0.7,0.7-1.3,1.4-2,2.2c-19.7,21.1-36.9,40.6-55.4,62.6
			c-0.8,0.9-1.6,1.9-2.4,2.9l-0.9-0.7c-0.2,0-0.4,0-0.6-0.1c-20.5-1.5-41.4-3.6-62.1-2.2l-0.1-0.1c11.2-17.3,24.5-33.2,39.4-47.4
			l0.5,0c0-0.6,0.2-1.2,0.5-1.6c-0.8,0.8-2.3,0.9-3.2,0.1c-1-0.9-0.8-2.7,0.2-3.5l-0.5,0c-1,0.6-2.6-0.1-3-1.3c-0.3-1-0.1-2,0.3-3
			l-0.8-0.3c-0.6,0.9-2,1.3-2.8,0.5c-0.9-0.9-0.4-2.7,0.8-3.2l-2.5,0c-0.6,0.3-1.3,0.3-1.8,0c-1-0.6-1.3-2-1-3.1
			c0.3-1.1,1-2.1,1.6-3l-2.7,0c-0.5,0.7-1.6,1-2.4,0.6c-1-0.5-1.5-1.7-1.4-2.8c0.1-1.1,0.6-2.2,1.2-3.1l-2,0
			c-0.8,0.6-1.9,0.6-2.6-0.1c-0.9-0.9-0.5-2.6,0.6-3.2l-1.5-0.2c-0.7,0.7-1.7,1-2.7,0.8c-0.1-1.8,0.3-3.6,1-5.3l-1-0.2
			c-0.8,1.1-2,2.1-3.2,1.8c-1.3-0.3-2-2-1.7-3.3c0.3-1.3,1.2-2.4,2.2-3.4l-1.3,0c-0.5,0.4-1.1,0.7-1.8,0.7c-1.5,0-2.6-1.6-2.6-3.2
			c0-1.5,0.7-2.9,1.5-4.2L95,91c-0.6,0.8-1.3,1.4-2.2,1.3c-1.2-0.1-2-1.4-1.9-2.6c0-1.2,0.6-2.3,1.2-3.3l-1.8-0.1
			c-0.4,0.7-1,1.2-1.8,1.4c-1.2,0.3-2.6-0.4-3-1.6c-0.3-0.9,0.2-2,1-2.5l-2.2,0c-0.9,0.3-1.9,0.2-2.5-0.5c-0.6-0.7-0.6-1.8-0.2-2.6
			c0.4-0.9,1.1-1.5,1.8-2.2l-1.3,0c-0.4,0.4-0.8,0.8-1.4,1c-1.1,0.4-2.6-0.2-2.7-1.4c0-0.6,0.3-1.1,0.7-1.5c1.1-1.5,2.3-3,3.6-4.4
			c0.2-0.2,0.4-0.4,0.6-0.6l-0.5-0.5c0.9-1,1.8-2.1,3.1-2.6c1.3-0.5,2.9-0.4,3.8,0.6c0.7,0.9,0.4,2.4-0.5,3l1.3,0
			c1-0.3,2.1-0.1,2.8,0.7c0.9,1,0.8,2.8-0.2,3.8l0.8,0.2c1.4-1.1,3.7-0.8,4.7,0.6c1,1.3,0.6,3.4-0.6,4.4l1,0c0.9-0.7,2.3-0.8,3.2,0
			c0.8,0.8,0.8,2.3,0,3.2l1.6,0.1c0.6-0.6,1.6-0.8,2.4-0.3c1,0.6,1.3,2,1,3.2c-0.2,0.9-0.7,1.6-1.2,2.4l2.8,0.1
			c1.1-0.6,2.4,0.7,2.4,1.8c0,1.2-0.8,2.2-1.6,3.2l1.4,0.6c0.6-1.8,3.3-2.4,4.6-1c1.3,1.5,0.2,4.3-1.7,4.5l2.1,1
			c0.4-0.8,1.6-1.3,2.5-0.9c1.3,0.6,1.7,2.2,1.2,3.5c-0.2,0.5-0.4,0.9-0.8,1.3l1,0.3c0.3-0.3,0.8-0.4,1.2-0.4c1.3,0,2.3,1.2,2.3,2.4
			c0,0.3-0.1,0.6-0.2,0.9l0.8,0.1c0.5-0.9,2-1.1,2.8-0.4c0.9,0.8,1.1,2.2,0.7,3.3c-0.2,0.7-0.7,1.3-1.1,1.9l2.3,0.3
			c0.5-0.6,1.2-0.9,2-0.8c1.4,0.2,2.5,1.6,2.3,3C132.8,115.2,132.4,115.9,132,116.4z"/>
		<path class="st1" d="M165.3,183.2L165.3,183.2c-2.3-0.6-4.8,0.3-6.4,2l-3.6-3c18.5-22,35.8-41.5,55.4-62.6l1.6,1.5
			c-0.9,1-1.6,2.3-1.9,3.6c-0.6,3.4,1.5,7.1,4.7,8.4c-19.8,12.2-35.8,30.6-44.9,52l-1.6,0.1C167.8,184.3,166.6,183.6,165.3,183.2z"
			/>
		<path class="st2" d="M211.6,431.1l0.1,1.1c-6,98-6.5,191.4-1.4,289.4l0.4,1.4c-1.7,0.5-3.4,0.9-5.1,1.1l-9.8-2.5
			c-1-94.6-1.9-193.4-2.9-288l-6-0.2C195,432.5,203.3,431.8,211.6,431.1z"/>
		<path class="st4" d="M210.7,198.8c-0.6,32.5-1.2,64.9-1.7,97.4c-3.5-0.3-7.7-0.1-11.1-0.4v-1c1.3-32.2,2.5-64.3,3.8-96.5
			c2.5-0.1,5.1,0.2,7.6,0.2L210.7,198.8z"/>
		<path class="st2" d="M195.7,721.6l9.8,2.5c-8.9,1.3-18.3-0.4-25.9-5.2c-0.2-8.2-0.3-16.4-0.4-24.6c-1.6-86.2-3.1-172.4-4.6-258.6
			l-0.1-0.9c4.1-0.5,8.2-0.9,12.3-1.4l6,0.2C193.7,528.2,194.7,627,195.7,721.6z"/>
		<path class="st5" d="M204.9,412.6l0,1.1c-1.1-0.1-2.3-0.1-3.4-0.1c1.2,0-1.5-0.4-5.4-0.7c-3.4-10.1-2.7-21-3-31.7
			c-0.3-10.7-2.1-23.6-9.4-31.4l0.1-0.4c3.1,0.6,6.1,1.1,9.2,1.7l-0.1,0.8C200.8,371,198.8,394.9,204.9,412.6z"/>
		<path class="st4" d="M125.8,330.6c0.5,0.7,1.3,1.1,2.2,1C127.3,331.2,126.6,330.9,125.8,330.6z M116.9,353.4
			c-0.3-0.4-0.7-0.7-1.1-1C116,352.9,116.4,353.2,116.9,353.4z M133.8,337.2c-0.3-0.5-0.7-0.9-1.2-1.1
			C132.9,336.7,133.3,337,133.8,337.2z M133.3,341.4c-1.3,1-3.4,0.8-4.5-0.5c-0.1-0.2-0.2-0.4-0.4-0.6c0.1,0.2,0.2,0.4,0.4,0.6
			c0.7,1.3,0.4,3-0.6,4c-1.2,1.2-3.4,1.1-4.6,0c0.9,1.4,1.8,3.4,0.5,4.5c-0.7,0.6-1.8,0.5-2.7,0.4c-0.9-0.1-2,0-2.6,0.7
			c-0.6,0.8,0.3,2.2,1.1,1.6c-0.4,1.2-1.9,1.7-3,1.3c1,1.4,1,3.4-0.1,4.7c-1.4,1.5-4,1.5-5.4,0c1.4,1.8,1.3,4.7-0.2,6.4
			c-1.7,1.8-4.8,2.1-6.7,0.6l0.5-0.3c-2-2.8-4-5.6-6-8.5l0.1-0.1c-1.3-1.1-1.8-3.2-0.7-4.6c1.1-1.3,3.2-1.3,4.5-0.2
			c0.2,0.5,0.5,1,0.9,1.3c-0.2-0.6-0.5-1-0.9-1.3c-0.7-1.7-0.4-3.8,1-5c1.6-1.5,4.4-1.3,5.9,0.2c0.1,0.2,0.2,0.3,0.4,0.4
			c-0.1-0.2-0.3-0.3-0.4-0.4c-1.4-1.8-1.3-4.7,0.4-6.3c1.3-1.3,3.4-1.6,5.1-0.9c0.4,0.6,1,1.1,1.7,1.1c-0.5-0.5-1-0.9-1.7-1.1
			c-0.3-0.6-0.5-1.4-0.2-2.1c0.5-1.4,2-2.2,3.4-2.3c0.8-0.1,1.6,0,2.4,0.2c0.5,0.5,1.2,0.8,1.9,0.6c-0.6-0.2-1.3-0.4-1.9-0.6
			c-0.6-0.6-0.9-1.5-0.8-2.3c0.3-1.5,2-2.5,3.5-2.6c0.8,0,1.6,0.1,2.3,0.4c-0.4-0.6-0.7-1.3-0.6-2c0.1-1,0.8-1.8,1.7-2.3l-1-2.1
			c-13.7-15.2-26.8-31-39.3-47.3l0.5-0.5c20.6,3.4,41.5,5,62.3,4.5l0,0.8c16.8,24.4,35.3,47.7,55.1,69.6l0,1.3c-0.5,0-0.9,0-1.4,0
			l0,0.2c-3.5-0.6-6.9-1.3-10.4-1.9c-3.1-0.6-6.1-1.1-9.2-1.7c-14.7-2.6-29.4-5.3-44.1-7.9L133.3,341.4z"/>
		<path class="st4" d="M192.6,198.7l0,0.5c-0.7,28.5-1.3,57-2,85.6c-2.1,0.1-8.4-0.6-10.4-0.5c0.7-28.7,1.3-57.3,2-86l1-0.1
			C186.2,198.4,189.4,198.6,192.6,198.7z"/>
		<path class="st2" d="M153.2,745.8L153.2,745.8c-0.2,0.6-0.3,1.1-0.4,1.7l-0.8-0.2c-0.6-4.7,0.5-9.8,3.7-13.3
			c3.2-3.5,8.8-4.9,13-2.6c4.1,2.3,5.7,8.6,2.5,12.2l-3.2,3.5C163.7,750.5,156.9,749.8,153.2,745.8z"/>
		<path class="st0" d="M170.3,188.4c0.5,2.6-0.9,5.3-3.1,6.7c-1,0.7-2.1,1.1-3.3,1.1c-3.8,0.2-7.3-3.5-6.9-7.3
			c0.1-1.4,0.8-2.8,1.9-3.8c1.6-1.7,4.1-2.6,6.4-2l0,0c1.3,0.4,2.5,1.1,3.4,2.1C169.5,186.2,170.1,187.2,170.3,188.4z"/>
		<path class="st1" d="M152.9,185.1c0.8-1,1.6-1.9,2.4-2.9l3.6,3c-1,1-1.7,2.4-1.9,3.8c-0.4,3.8,3.1,7.5,6.9,7.3
			c1.2-0.1,2.3-0.5,3.3-1.1l0.3,0.4c-9.8,24.2-11.2,51.6-4.1,76.7l-0.2,0.5c0.3,0.1,0.6,0.2,0.9,0.4l-0.1,0.2
			c-3.2-1.5-7.4,0.4-8.5,3.8c-0.4,1.1-0.4,2.3-0.1,3.4l-4.8,0.6c-0.3,0-0.6,0-0.8,0l0-0.6c0.5-31.6,1-63.2,1.6-94.8l0.1-1.2
			c0.2,0,0.4,0,0.6,0.1L152.9,185.1z"/>
		<path class="st2" d="M147.3,767.3l8.3,2.9c-1.5,3.5-3.2,7-5.5,10.2c-0.5,0.7-1,1.3-1.6,1.9l-8.2-7.4c-2.2-1.9-4.3-4-6.1-6.3
			c-2.4-2.9-4.4-6.1-6.1-9.4c-1.5-3-2.4-7.5,0.6-9.2c2.6-1.5,5.7,0.5,7.8,2.6C140.9,756.9,144.5,761.9,147.3,767.3z"/>
		<path class="st4" d="M151.4,184.3l-0.1,1.2c-0.5,31.6-1.1,63.2-1.6,94.8l0,0.6c-0.1,0-0.2,0-0.3,0c-20.9,0.5-41.8-1.1-62.3-4.5
			l-1.3-1.1c-2.8-30.9-2-62.1,2.6-92.8l0.4,0.1c0.1-0.2,0.3-0.4,0.4-0.6l0.1,0.1C110,180.6,131,182.8,151.4,184.3z"/>
		<path class="st2" d="M140.4,774.9l8.2,7.4c-2.4,2.7-5.4,4.9-8.8,5.8c-4.2,1.2-9.2,0.2-12.1-3.1c-2.9-3.3-3-9,0.2-11.9l6.4-4.4
			C136.1,770.9,138.2,773,140.4,774.9z"/>
		<path class="st1" d="M106.8,13.7c-1.8,1.6-3.6,3.1-5.3,4.7c-11.4,10.2-22.3,20.9-32.8,32c-1.3,1.4-2.6,2.8-3.9,4.2
			c-7.3,7.9-14.4,16.1-21.2,24.4l-0.2,1.9c-3.2,64-6.4,128-9.6,192c-1.7,34.2-3.4,68.4-1.1,102.5c6.8,8,13.7,16.6,20.9,25.4
			c1.6,1.9,3.2,3.9,4.8,5.8c8.1,9.9,16.5,19.9,25.3,29.4c0.9,1,1.9,2,2.8,3c1.1,1,2.4,1.8,3.6,2.5c-7.5-0.3-15.5-2.2-23-2.5
			c-21.3-20.9-39-40.4-57.9-63.4l0.1-0.1c2.2-97.3,4.5-194.6,6.7-291.9l0.9,0C36.5,59.2,59.7,34.6,79,10.7
			C89.2,12.2,99.7,10.7,106.8,13.7z"/>
		<path class="st4" d="M69.4,396.2l0.2,0.2c-3.1,2.8-6.2,5.6-9.2,8.5l-1.9,1.6c-1.6-2-3.2-3.9-4.8-5.8l1.9-1.6
			c1.9-2.3,4.1-4.4,6.4-6.4c0.7-0.6,1.5-1.2,2.5-1.3c1.2-0.2,2.4,0.5,3.2,1.5c0.1,0.1,0.2,0.2,0.3,0.4
			C68.6,394.2,69,395.2,69.4,396.2z"/>
	</g>
	<g>
		<path class="st6" d="M43.6,78.9c6.8-8.3,13.9-16.5,21.2-24.4c1.3-1.4,2.6-2.8,3.9-4.2c10.5-11.1,21.4-21.8,32.8-32
			c1.8-1.6,3.5-3.2,5.3-4.7"/>
		<path class="st6" d="M43.4,80.8c-3.2,64-6.4,128-9.6,192c-1.7,34.2-3.4,68.4-1.1,102.5"/>
		<path class="st6" d="M32.8,375.3c6.8,8,13.7,16.6,20.9,25.4c1.6,1.9,3.2,3.9,4.8,5.8c8.1,9.9,16.5,19.9,25.3,29.4
			c0.9,1,1.9,2,2.8,3"/>
		<path class="st6" d="M90.1,441.5c10.6,5.7,25.4,1.9,37.8-0.2c15.4-2.6,30.9-4.7,46.6-6.5c4.1-0.5,8.2-0.9,12.3-1.4
			c8.2-0.9,16.5-1.6,24.8-2.3c2.3-0.2,4.5-0.4,6.8-0.5c33.1-2.5,66.2-3.6,98.7-3.8"/>
		<path class="st6" d="M86.5,439c1.1,1,2.4,1.8,3.6,2.5"/>
		<path class="st6" d="M107.5,13.5c76.8,7.9,148.1,13.9,224.9,21.8"/>
		<path class="st6" d="M332.4,35.4c8.1,12,18.5,25.2,28.4,38.1c6.8,8.9,13.4,17.6,18.9,25.8"/>
		<path class="st6" d="M379.8,99.3c0,0.7-0.1,1.5-0.1,2.2c-2.1,43.2-4.3,86-6.4,128.8c-1.6,32.2-3.2,64.4-4.8,96.8
			c-0.6,12.8-1.3,25.5-1.9,38.3"/>
		<path class="st6" d="M317.1,426.8c0.3-0.4,0.5-0.7,0.8-1.1c14.4-19,31.2-38.7,48.2-58c0.2-0.2,0.3-0.4,0.5-0.6"/>
		<path class="st6" d="M106.8,13.7c-7.1-3-17.5-1.4-27.8-3"/>
		<path class="st6" d="M79,10.7C59.7,34.6,36.5,59.2,16.9,83.5"/>
		<path class="st6" d="M16,83.6c-2.2,97.3-4.5,194.6-6.7,291.9"/>
		<path class="st6" d="M9.2,375.5L9.2,375.5c19,23,36.6,42.6,58,63.5"/>
		<path class="st6" d="M67.2,439c7.5,0.3,15.5,2.2,23,2.5h0"/>
		<path class="st6" d="M293.3,419.7c0.3-0.4,0.7-0.8,1-1.2c9.1-11,18.2-22,27.3-33c6.2-7.5,12.4-14.9,18.6-22.4"/>
		<path class="st6" d="M354.3,106.1c-1.5,28.8-3.1,57.4-4.7,85.9c-0.7,12.1-1.4,24.1-2,36.1c-1.8,32.5-3.7,64.9-5.4,97.5
			c-0.7,12.4-1.3,24.9-2,37.4"/>
		<path class="st6" d="M340.2,363.1c7.5-0.8,14.3,0.3,21.1,2.8c1.6,0.6,3.2,1.2,4.8,1.9c0.2,0.1,0.4,0.2,0.6,0.3"/>
		<path class="st6" d="M355.9,105.8c7.8-1.4,15.7-2.9,23.5-4.3"/>
		<path class="st6" d="M311.3,41.7c0.2,0.3,0.4,0.5,0.6,0.8c9.3,12.4,17.9,24.3,26.1,36.8c5.7,8.6,11.1,17.5,16.4,26.8"/>
		<path class="st6" d="M101.7,18.7c67.8,5.7,142.8,17.8,212.6,22"/>
		<path class="st6" d="M311.9,42.4c0.9-0.3,1.7-0.6,2.6-0.9c5.9-2.1,11.9-4.1,17.9-6.2"/>
		<path class="st6" d="M292.9,418c0.5,0.1,0.9,0.3,1.4,0.4c8.5,2.6,18,5.3,22.8,6.7"/>
		<path class="st6" d="M84.7,435c31-4.5,65.3-6.7,96.3-11.2"/>
		<path class="st6" d="M181,423.8c-0.7-3-1.9-7.8-0.1-10.3c0.9-1.3,9.3-1,15.2-0.6c3.8,0.3,6.6,0.7,5.4,0.7c-0.4,0-1.1,0-2.3-0.1"/>
		<path class="st6" d="M211.6,421.8c31.9-0.2,80.3-2.1,81.7-2.1c0,0,0,0,0,0"/>
		<path class="st6" d="M211.6,425.1c0-0.8,0-2-0.1-3.4c0-2.8-0.1-6.1-0.1-7.8c-2.2-0.1-4.4-0.2-6.5-0.3c-1.1-0.1-2.3-0.1-3.4-0.1
			c-0.8,0-1.5,0-2.3-0.1c-0.1,0-0.3,0-0.4,0"/>
		<path class="st6" d="M66.2,55.8c1.7,2.5,3.4,5,5.1,7.4"/>
		<path class="st6" d="M69.4,51.1c2.9,2.6,5.6,5.4,7.9,8.4"/>
		<path class="st6" d="M78.8,61.7c-0.8-0.5-1.7-0.8-2.6-0.8c-1.8,0-3.6,0.9-4.6,2.4c-0.1,0.1-0.1,0.2-0.2,0.3
			c-1.4,2.5-0.4,6,1.9,7.6c2.3,1.6,5.7,1.4,8-0.3"/>
		<path class="st6" d="M82.5,70.7c0.9-1,1.8-2.1,3.1-2.6c1.3-0.5,2.9-0.4,3.8,0.6c0.7,0.9,0.4,2.4-0.5,3c-0.2,0.1-0.4,0.2-0.6,0.2"
			/>
		<path class="st6" d="M88.9,72.5c0.3-0.4,0.7-0.7,1.2-0.8c1-0.3,2.1-0.1,2.8,0.7c0.9,1,0.8,2.8-0.2,3.8c-0.1,0.1-0.2,0.1-0.3,0.2"
			/>
		<path class="st6" d="M93.5,76.3c1.4-1.1,3.7-0.8,4.7,0.6c1,1.3,0.6,3.4-0.6,4.4c-0.1,0.1-0.2,0.2-0.3,0.3"/>
		<path class="st6" d="M83.3,70.8c-0.1,0.1-0.2,0.3-0.4,0.4c-0.2,0.2-0.4,0.4-0.6,0.6c-1.3,1.4-2.5,2.8-3.6,4.4
			c-0.3,0.5-0.7,1-0.7,1.5c0,1.2,1.6,1.8,2.7,1.4c0.5-0.2,1-0.6,1.4-1c0.4-0.4,0.7-0.9,1-1.4"/>
		<path class="st6" d="M83.5,78.2c-0.7,0.6-1.4,1.3-1.8,2.2c-0.4,0.8-0.4,1.9,0.2,2.6c0.6,0.7,1.6,0.8,2.5,0.5
			c0.3-0.1,0.6-0.2,0.8-0.4c1-0.7,1.6-1.8,2.2-2.9"/>
		<path class="st6" d="M87.4,83.3c-0.3,0-0.5,0.1-0.7,0.3c-0.8,0.5-1.3,1.6-1,2.5c0.4,1.2,1.8,1.9,3,1.6c0.8-0.2,1.4-0.7,1.8-1.4
			c0.2-0.4,0.4-0.9,0.4-1.3"/>
		<path class="st6" d="M92.1,86.4c-0.6,1-1.2,2.1-1.2,3.3c0,1.2,0.8,2.5,1.9,2.6c0.9,0.1,1.7-0.5,2.2-1.3c0.3-0.4,0.6-0.9,0.8-1.4"
			/>
		<path class="st6" d="M96.3,90.9c-0.7,1.3-1.5,2.7-1.5,4.2c0,1.5,1.1,3.1,2.6,3.2c0.7,0,1.2-0.3,1.8-0.7c0.5-0.4,1-0.9,1.4-1.4"/>
		<path class="st6" d="M100.5,97.7c-0.9,1-1.9,2.1-2.2,3.4c-0.3,1.3,0.4,3,1.7,3.3c1.3,0.3,2.4-0.7,3.2-1.8c0.2-0.2,0.3-0.4,0.5-0.7
			"/>
		<path class="st6" d="M104.3,102.8c-0.7,1.7-1.1,3.5-1,5.3c0.9,0.3,2-0.1,2.7-0.8c0.2-0.2,0.3-0.4,0.4-0.6"/>
		<path class="st6" d="M107.9,107.3c-0.2,0-0.3,0.1-0.5,0.2c-1.1,0.6-1.5,2.3-0.6,3.2c0.7,0.7,1.8,0.6,2.6,0.1
			c0.4-0.3,0.7-0.7,0.7-1.2"/>
		<path class="st6" d="M111.5,110.7c-0.6,0.9-1.2,2-1.2,3.1c-0.1,1.1,0.4,2.3,1.4,2.8c0.8,0.4,1.9,0.2,2.4-0.6
			c0.1-0.2,0.2-0.3,0.3-0.5"/>
		<path class="st6" d="M116.8,116.1c-0.7,0.9-1.4,1.9-1.6,3c-0.3,1.1,0,2.4,1,3.1c0.5,0.3,1.3,0.3,1.8,0c0.5-0.2,0.8-0.6,0.8-1.1"/>
		<path class="st6" d="M121.1,122.1c-0.2,0-0.4,0.1-0.6,0.1c-1.2,0.5-1.8,2.3-0.8,3.2c0.8,0.8,2.2,0.4,2.8-0.5
			c0.2-0.3,0.3-0.7,0.3-1.1"/>
		<path class="st6" d="M123.8,124.2c-0.2,0.4-0.3,0.7-0.4,1.1c-0.4,1-0.6,2.1-0.3,3c0.4,1.2,2,1.9,3,1.3c0.1-0.1,0.3-0.2,0.4-0.4"/>
		<path class="st6" d="M129.9,132.7c0.2-0.2,0.3-0.4,0.3-0.7"/>
		<path class="st6" d="M127.3,129.3c-0.2,0.1-0.4,0.2-0.6,0.4c-1,0.8-1.2,2.6-0.2,3.5c0.9,0.8,2.4,0.6,3.2-0.1"/>
		<path class="st6" d="M130.1,132.6c-0.1,0.1-0.1,0.1-0.2,0.1c-0.1,0.1-0.2,0.2-0.3,0.3c-0.4,0.4-0.5,1-0.5,1.6
			c0,0.7,0.3,1.3,0.8,1.8c1.1,1,3.1,0.6,3.8-0.7"/>
		<path class="st6" d="M98,82.2c0.1-0.3,0.3-0.6,0.6-0.9c0.9-0.7,2.3-0.8,3.2,0c0.8,0.8,0.8,2.3,0,3.2c-0.2,0.3-0.5,0.5-0.8,0.6"/>
		<path class="st6" d="M103.1,85.4c0-0.3,0.2-0.6,0.4-0.8c0.6-0.6,1.6-0.8,2.4-0.3c1,0.6,1.3,2,1,3.2c-0.2,0.9-0.7,1.6-1.2,2.4
			c-0.2,0.3-0.3,0.5-0.5,0.7"/>
		<path class="st6" d="M108.5,89.9c1.1-0.6,2.4,0.7,2.4,1.8c0,1.2-0.8,2.2-1.6,3.2"/>
		<path class="st6" d="M110.6,95.7c0-0.1,0-0.2,0.1-0.2c0.6-1.8,3.3-2.4,4.6-1c1.3,1.5,0.2,4.3-1.7,4.5"/>
		<path class="st6" d="M115.5,101c-0.1-0.4,0-0.7,0.1-1c0.4-0.8,1.6-1.3,2.5-0.9c1.3,0.6,1.7,2.2,1.2,3.5c-0.2,0.5-0.4,0.9-0.8,1.3
			c-0.6,0.7-1.3,1.2-2,1.6"/>
		<path class="st6" d="M118.8,106.4c-0.2-0.8,0.3-1.6,0.9-2.1c0.3-0.3,0.8-0.4,1.2-0.4c1.3,0,2.3,1.2,2.3,2.4c0,0.3-0.1,0.6-0.2,0.9
			c-0.4,0.8-1.2,1.5-2.1,1.6"/>
		<path class="st6" d="M123.7,107.5c0-0.1,0.1-0.2,0.1-0.3c0.5-0.9,2-1.1,2.8-0.4c0.9,0.8,1.1,2.2,0.7,3.3c-0.2,0.7-0.7,1.3-1.1,1.9
			c-0.3,0.4-0.6,0.7-0.9,1"/>
		<path class="st6" d="M128,114.2c-0.1-0.6,0.1-1.3,0.5-1.8c0.5-0.6,1.2-0.9,2-0.8c1.4,0.2,2.5,1.6,2.3,3c-0.1,0.7-0.4,1.3-0.9,1.8
			c-0.5,0.5-1.1,0.9-1.8,1.1"/>
		<path class="st6" d="M131.4,118c0.4-0.5,0.9-1.1,1.4-1.5c0.3-0.3,0.6-0.5,1-0.6c1-0.4,2.3-0.3,2.9,0.7c0.6,1,0,2.4-0.8,3.3
			c0,0,0,0,0,0c-0.1,0.2-0.3,0.3-0.4,0.4c-0.7,0.7-1.5,1.5-1.8,2.5"/>
		<path class="st6" d="M135.2,120.8c0-0.2,0.1-0.3,0.1-0.4c0.1-0.2,0.3-0.4,0.5-0.5c0.6-0.4,1.6-0.4,2.2,0.2c0.8,0.7,0.9,2,0.5,3
			c-0.1,0.1-0.1,0.3-0.2,0.4c-0.6,1.1-1.5,1.8-2.5,2.5"/>
		<path class="st6" d="M138.1,125c0.2-0.8,1.6-0.6,1.9,0.2c0.3,0.8-0.1,1.6-0.6,2.3c-1.4,2.2-3.1,4.3-5.2,5.9"/>
		<path class="st6" d="M136.4,132.8c1.4,1.7,3.4,2.8,5,4.2c1.4,1.3,2.7,2.9,2.8,4.7c0,0.3,0,0.6,0,0.9c-0.2,2.2-2.8,4.1-4.7,3"/>
		<path class="st6" d="M88.8,182.6c0.1-0.2,0.3-0.4,0.4-0.6c11.2-17.3,24.5-33.2,39.4-47.4"/>
		<path class="st6" d="M140.3,123.1c2.4-2.5,4.7-5,7.1-7.5"/>
		<path class="st6" d="M152.6,185.4c0.1-0.1,0.2-0.2,0.3-0.4c0.8-1,1.6-1.9,2.4-2.9c18.5-22,35.8-41.5,55.4-62.6
			c0.7-0.7,1.3-1.4,2-2.2"/>
		<path class="st6" d="M89.3,182.1c20.7-1.4,41.6,0.8,62.1,2.2c0.2,0,0.4,0,0.6,0.1"/>
		<path class="st6" d="M148.8,114.8c21.1,1,42.9,0,64,0.9c0.5,0,1.1,0.1,1.6,0.1"/>
		<path class="st6" d="M214.4,115.7c24.3-0.2,52.7,5.1,76.8,8.3"/>
		<path class="st6" d="M149.5,146.3c-0.9-1.4-1.9-2.8-3.3-3.7c-0.5-0.4-1.2-0.6-1.8-0.8c-1-0.2-2-0.1-2.9,0.4
			c-1.2,0.7-1.8,2.1-2,3.5c0,0.1,0,0.2,0,0.3c-0.2,2.2,0.6,4.5,2.4,5.8c1.8,1.2,4.7,0.9,5.8-1"/>
		<path class="st6" d="M85.9,275.3c-2.8-30.9-2-62.1,2.6-92.8c0-0.1,0-0.2,0-0.2"/>
		<path class="st6" d="M151.4,185.5c-0.5,31.6-1.1,63.2-1.6,94.8"/>
		<path class="st6" d="M87.2,276.5c20.6,3.4,41.5,5,62.3,4.5c0.1,0,0.2,0,0.3,0c0.3,0,0.6,0,0.8,0"/>
		<path class="st6" d="M149.5,281.8c16.8,24.4,35.3,47.7,55.1,69.6"/>
		<path class="st6" d="M139.6,341.5c14.7,2.6,29.4,5.3,44.1,7.9c3.1,0.6,6.1,1.1,9.2,1.7c3.5,0.6,7,1.3,10.4,1.9
			c0.8,0.1,1.6,0.3,2.3,0.4"/>
		<path class="st6" d="M55.6,399.2c1.9-2.3,4.1-4.4,6.4-6.4c0.7-0.6,1.5-1.2,2.5-1.3c1.2-0.2,2.4,0.5,3.2,1.5
			c0.1,0.1,0.2,0.2,0.3,0.4c0.6,0.9,1,1.9,1.4,2.9"/>
		<path class="st6" d="M60.3,405c3.1-2.8,6.2-5.7,9.2-8.5c0,0,0,0,0.1-0.1"/>
		<path class="st6" d="M140.1,317.6c-1.1-0.6-2.5-0.1-3.2,0.9c-0.7,0.9-0.8,2.3-0.5,3.4c0.2,0.6,0.6,1.2,1,1.7
			c0.9,1,2.1,1.6,3.4,1.7c2,0.1,3.9-1.1,4.7-2.9"/>
		<path class="st6" d="M139.6,321c-0.7,0.9-1.5,1.8-2.2,2.6c-1,1.3-2.1,2.5-3.1,3.8"/>
		<path class="st6" d="M102.8,351.4c-1.3-1-3.4-1.1-4.5,0.2c-1.1,1.3-0.6,3.5,0.7,4.6c0.4,0.3,0.9,0.5,1.4,0.6"/>
		<path class="st6" d="M102.8,351.4c0.2,0.5,0.5,1,0.9,1.3C103.6,352.2,103.3,351.8,102.8,351.4z"/>
		<path class="st6" d="M109.7,346.6c-1.5-1.5-4.3-1.7-5.9-0.2c-1.4,1.2-1.7,3.3-1,5"/>
		<path class="st6" d="M109.7,346.6c0.1,0.2,0.2,0.3,0.4,0.4C110,346.9,109.9,346.8,109.7,346.6z"/>
		<path class="st6" d="M115.1,339.4c-1.7-0.6-3.8-0.4-5.1,0.9c-1.7,1.6-1.8,4.5-0.4,6.3"/>
		<path class="st6" d="M115.1,339.4c0.4,0.6,1,1.1,1.7,1.1C116.4,340,115.8,339.6,115.1,339.4z"/>
		<path class="st6" d="M120.7,335.2c-0.8-0.2-1.6-0.3-2.4-0.2c-1.4,0.1-2.9,0.9-3.4,2.3c-0.2,0.7-0.1,1.5,0.2,2.1"/>
		<path class="st6" d="M120.7,335.2c0.5,0.5,1.2,0.8,1.9,0.6C122,335.6,121.4,335.3,120.7,335.2z"/>
		<path class="st6" d="M125.8,330.6c-0.8-0.3-1.5-0.4-2.3-0.4c-1.6,0.1-3.2,1.1-3.5,2.6c-0.2,0.8,0.2,1.7,0.8,2.3"/>
		<path class="st6" d="M125.8,330.6c0.5,0.7,1.3,1.1,2.2,1C127.3,331.2,126.6,330.9,125.8,330.6z"/>
		<path class="st6" d="M125.8,330.6C125.8,330.6,125.8,330.6,125.8,330.6"/>
		<path class="st6" d="M132.7,327.9c-1-1.2-2.5-2.1-4.1-2c-0.6,0-1.2,0.2-1.7,0.5c-0.9,0.5-1.5,1.3-1.7,2.3c-0.1,0.7,0.1,1.4,0.6,2"
			/>
		<path class="st6" d="M111.1,357.7c0.1,0.1,0.2,0.2,0.3,0.3c0,0,0,0,0,0c1.4,1.8,1.3,4.7-0.2,6.4c-1.7,1.8-4.8,2.1-6.7,0.6"/>
		<path class="st6" d="M116.9,353.4c1,1.4,1,3.4-0.1,4.7c-1.4,1.5-4,1.5-5.4,0"/>
		<path class="st6" d="M116.9,353.4c-0.5-0.2-0.9-0.5-1.1-1C116.3,352.7,116.6,353,116.9,353.4z"/>
		<line class="st6" x1="116.9" y1="353.4" x2="116.9" y2="353.4"/>
		<path class="st6" d="M128.8,341c0.7,1.3,0.4,3-0.6,4c-1.2,1.2-3.4,1.1-4.6,0c0.9,1.4,1.8,3.4,0.5,4.5c-0.7,0.6-1.8,0.5-2.7,0.4
			c-0.9-0.1-2,0-2.6,0.7c-0.6,0.8,0.3,2.2,1.1,1.6c-0.4,1.2-1.9,1.7-3,1.3"/>
		<path class="st6" d="M128.8,341c-0.2-0.2-0.3-0.4-0.4-0.6C128.6,340.5,128.7,340.7,128.8,341z"/>
		<path class="st6" d="M133.8,337.2c0.8,1.2,0.7,3-0.3,4c-0.1,0.1-0.1,0.1-0.2,0.2c-1.3,1-3.4,0.8-4.5-0.5"/>
		<path class="st6" d="M133.8,337.2c-0.5-0.2-1-0.5-1.2-1.1C133.2,336.4,133.6,336.8,133.8,337.2z"/>
		<path class="st6" d="M132.7,329.1c1.4,0.8,2.8,1.7,3.6,3c0.9,1.3,1.2,3.2,0.2,4.4c-0.6,0.8-1.8,1-2.7,0.7"/>
		<path class="st6" d="M79.8,385.6c0.1,0.5,0.2,1.1,0.2,1.6c0.1,2.8-1.3,5.7-3.7,7c-2.3,1.2-5.4,0.7-7-1.3c-0.1-0.2-0.3-0.4-0.4-0.6
			"/>
		<path class="st6" d="M79.8,385.6c-2.1-1.1-3.6-3.4-3.4-5.8C78.1,381.5,79.3,383.5,79.8,385.6z"/>
		<path class="st6" d="M89.2,377.7c0.1,0.5,0.2,1.1,0.1,1.6c-0.1,3.5-3,6.7-6.4,7c-1.1,0.1-2.2-0.2-3.1-0.7"/>
		<path class="st6" d="M89.2,377.7c-3.1-0.3-5.8-3.4-5.3-6.5C86.6,372.4,88.7,374.9,89.2,377.7z"/>
		<path class="st6" d="M96.3,370.5c0,0.3,0,0.6,0,0.8c-0.2,3.3-3.1,6.4-6.5,6.4c-0.2,0-0.4,0-0.6,0"/>
		<path class="st6" d="M96.3,370.5c-2.4-0.6-4.5-2.4-6.2-4.3c-0.7-0.8-1.4-2.3-0.4-2.8c0.4-0.2,1-0.1,1.4,0.1
			C94,364.6,96.1,367.5,96.3,370.5z"/>
		<path class="st6" d="M103.2,364.9c1.1,2.9-2.1,6-5.2,5.9c-0.6,0-1.1-0.1-1.6-0.3"/>
		<path class="st6" d="M98.9,356.3c2,2.8,4,5.7,6,8.5c0,0,0,0,0.1,0.1"/>
		<path class="st6" d="M86.7,277c12.5,16.3,25.6,32,39.3,47.3"/>
		<path class="st6" d="M139.3,341.3c-0.7-1.2-1.4-2.4-2.1-3.6"/>
		<path class="st6" d="M203.4,352.7c0.4,0,0.9,0,1.4,0c25.3-0.9,52.9-0.8,78.1,0.3c0,0,0,0,0.1,0"/>
		<path class="st6" d="M282.1,354c0.2-0.3,0.5-0.6,0.7-1c1.7-2.3,3.4-4.6,5.2-7c0.2-0.3,0.4-0.5,0.5-0.7c1.9-2.6,3.8-5.1,5.7-7.7
			c12.7-17.3,25.8-35,39.6-50.8"/>
		<path class="st6" d="M311.2,378.9c-0.6,0.7-1,1.5-0.9,2.4c0.2,1.2,2.3,1.8,2.6,0.6c-0.1,1,0.8,1.9,1.8,2c0.6,0,1.2-0.3,1.6-0.8
			c0.2-0.3,0.3-0.7,0.3-1"/>
		<path class="st6" d="M311.2,378.9c0.3-0.2,0.5-0.5,0.7-0.8C311.6,378.3,311.4,378.6,311.2,378.9z"/>
		<path class="st6" d="M307.9,376c-0.4,0.9-0.4,2.1,0.4,2.8c0.8,0.7,2,0.7,2.9,0.1"/>
		<path class="st6" d="M307.9,376c0.4-0.1,0.7-0.4,0.8-0.8C308.3,375.3,308.1,375.6,307.9,376z"/>
		<line class="st6" x1="307.9" y1="376" x2="307.9" y2="376"/>
		<path class="st6" d="M302.7,368.1c-0.8,0.9-0.9,2.5,0,3.4c1.1,1,3.1,0.7,3.8-0.6c-0.7,1.2-1.5,2.7-1,4c0.3,0.9,1.5,1.3,2.4,1.1"/>
		<path class="st6" d="M302.8,368.1c0.2-0.1,0.3-0.2,0.5-0.4C303.1,367.8,302.9,367.9,302.8,368.1z"/>
		<path class="st6" d="M302.8,368.1C302.8,368.1,302.7,368.1,302.8,368.1"/>
		<path class="st6" d="M296.4,356.9c-0.1,0.1-0.2,0.1-0.3,0.2c0,0,0,0,0,0c-0.9,0.6-1.2,1.9-0.8,2.9c0.5,1.1,2,1.5,3.1,0.9
			c-1.1,0.4-1.7,1.9-1.2,3c0.5,1.1,2.1,1.5,3.1,0.8c-0.9,0.7-1,2.2-0.2,3c0.6,0.7,1.7,0.8,2.5,0.4"/>
		<path class="st6" d="M290.4,345.7c-0.2,0.1-0.4,0.3-0.6,0.5c-0.4,0.6-0.6,1.4-0.2,2.1c0.5,0.9,1.8,1.2,2.6,0.7c-1,0.6-1.4,2-0.9,3
			c0.5,1,1.7,1.6,2.8,1.3c-1,0.5-1.3,2-0.7,2.9c0.5,0.9,1.7,1.2,2.6,0.8"/>
		<path class="st6" d="M311.9,365.2c0.8-0.5,2-0.2,2.6,0.6c0.6,1,0.1,2.5-1,2.8c1.2,0,2.4,0,3.7-0.1c-0.5,1.3-1,2.5-1.5,3.8
			c0.7-0.9,2.2-0.9,2.9,0c0.7,0.9,0.3,2.4-0.7,2.8c0.7,0.1,1.5,0.2,2.2,0.3c-0.5,0.9-0.9,1.9-1.4,2.8c0.7-0.3,1.4-0.6,2.2-0.8
			c-0.2,2.2-1.5,4.3-3.3,5.6c-0.4,0.3-0.7,0.5-1.1,0.7"/>
		<path class="st6" d="M311.9,365.2c-0.1,0.1-0.3,0.2-0.4,0.3C311.6,365.4,311.7,365.3,311.9,365.2z"/>
		<path class="st6" d="M304.6,352.7c1.1-0.3,2.5,0.3,3,1.4c0.6,1.3-0.3,3.1-1.7,3.5c1.4,0.3,2.7,0.6,4,1.1c-0.4,0.9-0.8,1.9-1.1,2.8
			c1.1-0.8,2.8-0.5,3.5,0.6c0.6,1,0.4,2.4-0.5,3.2"/>
		<path class="st6" d="M304.6,352.7c-0.2,0.2-0.4,0.3-0.7,0.3C304.2,352.9,304.4,352.8,304.6,352.7z"/>
		<path class="st6" d="M296.5,339.2c0.8-1,2.5-0.9,3.3,0.1c0.8,1,0.3,2.7-0.8,3.2c1,0.2,2.1,0.4,3.1,0.6c-0.6,1.3-1.1,2.7-1.7,4
			c1.2-0.2,2.4-0.4,3.6-0.6c-0.4,1.3-0.8,2.5-1.3,3.8c0.8-0.7,2.1-0.4,2.5,0.5c0.3,0.7,0,1.5-0.6,2"/>
		<path class="st6" d="M318.5,383.1c1.1,0.7,2.2,1.5,3.2,2.4c1.7,1.6,3.1,3.5,4.1,5.7"/>
		<path class="st6" d="M356.9,322.4c-0.1,0-0.2,0-0.3-0.1c-2.1-0.5-4.5,0.8-5.2,2.9c-0.1,0.3-0.2,0.6-0.2,0.9c-0.1,1.9,1.1,4,3,4.6
			c2.5,0.9,5.6-1.1,5.9-3.8c0-0.1,0-0.2,0-0.3c0.1-2.1-1.4-4.2-3.4-5c-0.4-0.1-0.8-0.3-1.2-0.3"/>
		<path class="st6" d="M361.6,225c-0.1-0.2-0.2-0.4-0.3-0.5c-0.5-0.5-1.3-0.8-2-0.7c-0.9,0.1-1.7,0.7-2.3,1.4
			c-0.8,0.9-1.3,2.1-1.4,3.4c-0.1,1.5,0.3,2.9,1.3,4c1.9,2,5.7,1.7,6.9-0.7c0.3-0.6,0.5-1.3,0.5-2c0-0.8-0.2-1.6-0.5-2.4
			c-0.5-1.2-1.3-2.3-2.2-3.3c-0.1-0.2-0.3-0.3-0.4-0.5"/>
		<path class="st6" d="M210.9,335.9c-1-0.2-2.1-0.2-3,0.2c-0.1,0-0.2,0.1-0.3,0.1c-1.6,0.7-3,2.1-3.4,3.8c-0.8,2.8,1.1,6.1,3.9,6.9
			s6.1-0.9,7.1-3.7c0.2-0.7,0.3-1.5,0.2-2.2c-0.2-2.1-1.7-4.2-3.7-4.9"/>
		<path class="st6" d="M282.4,335.7c-0.6-0.2-1.1-0.3-1.7-0.3c-1.2,0-2.4,0.4-3.4,1.1c-1.3,0.8-2.2,2.1-2.6,3.5
			c-0.8,3.2,1.6,6.8,4.8,7.5c2.5,0.6,5.3-0.7,6.8-2.8c0.4-0.6,0.8-1.2,1-1.9c0.9-3.2-0.9-6.9-3.9-8.3"/>
		<path class="st6" d="M328.7,275.7c1.3-0.7,2.7-0.9,4.1-0.6"/>
		<path class="st6" d="M333.4,275.4c1.6,0.6,2.8,1.9,3.4,3.5c0.5,1.2,0.6,2.6,0.2,3.9c-0.5,1.6-1.8,2.8-3.3,3.5
			c-1.3,0.5-2.7,0.7-4,0.3c-1.2-0.4-2.3-1.2-3-2.2c-0.6-0.9-1.1-2-1.1-3.1c-0.1-0.6,0-1.3,0.2-1.9c0.4-1.5,1.6-2.8,3-3.6"/>
		<path class="st6" d="M164,273.3c-3.2-1.5-7.4,0.4-8.5,3.8c-0.4,1.1-0.4,2.3-0.1,3.4c0.6,2.3,2.4,4.3,4.7,4.8
			c2.3,0.5,4.8-0.5,6.3-2.3c0.8-0.9,1.3-1.9,1.4-3.1c0.4-2.7-1.3-5.5-3.7-6.7c-0.3-0.1-0.6-0.3-0.9-0.4c-0.4-0.1-0.8-0.2-1.2-0.2"/>
		<path class="st6" d="M295.9,129c-0.4-1.2-1.1-2.2-1.9-3.1c-0.1-0.1-0.1-0.2-0.2-0.2c-0.7-0.7-1.5-1.2-2.5-1.6"/>
		<path class="st6" d="M294,125.9L294,125.9c-2.5,0.2-7-0.4-8.1,1.8c-0.3,0.5-0.5,1.1-0.6,1.6c-0.4,1.8-0.2,3.8,0.8,5.5
			c1.2,1.9,3.4,3.3,5.6,2.9c0.6-0.1,1.1-0.3,1.6-0.6c1.7-1,2.8-3,3-4.9c0.1-1.1,0-2.1-0.4-3.1"/>
		<path class="st6" d="M295.9,129C295.9,129,295.9,129,295.9,129c14.9,21,30.7,40.7,45.6,61.7"/>
		<path class="st6" d="M341.5,190.7c-2.1-2.4-5.8-3.2-8.7-1.9c-0.6,0.3-1.2,0.7-1.7,1.1c-1.8,1.7-2.8,4.3-2.3,6.8
			c0.1,0.4,0.2,0.8,0.3,1.1c0.4,1,1.1,2,2,2.7c1.3,1.1,2.9,1.7,4.6,1.6c1-0.1,1.9-0.4,2.8-0.8c1.9-1.1,3.3-3.1,3.4-5.3
			c0.1-2,1.1-3.4,1.1-4.3C343,191.1,342.7,190.8,341.5,190.7"/>
		<path class="st6" d="M219.6,118.4c-1-0.2-2-0.1-3,0.2c-1.6,0.4-3.1,1.3-4.2,2.5c-0.9,1-1.6,2.3-1.9,3.6c-0.6,3.4,1.5,7.1,4.7,8.4
			c0.5,0.2,1.1,0.4,1.7,0.4c3.7,0.5,7.4-2.4,8-6c0.1-0.4,0.1-0.7,0.1-1.1c-0.1-4-4.2-7.3-8-6.6c-0.1,0-0.2,0.1-0.3,0.1"/>
		<path class="st6" d="M165.3,183.2c-2.3-0.6-4.8,0.3-6.4,2c-1,1-1.7,2.4-1.9,3.8c-0.4,3.8,3.1,7.5,6.9,7.3c1.2-0.1,2.3-0.5,3.3-1.1
			c2.1-1.5,3.5-4.1,3.1-6.7c-0.2-1.2-0.8-2.3-1.6-3.1C167.8,184.3,166.6,183.6,165.3,183.2c-1.2-0.4-2.4-0.4-3.6,0"/>
		<path class="st6" d="M339.7,201.2c-0.9,24.5-1.9,53.1-2.8,77.6"/>
		<path class="st6" d="M163.4,272.3c-7.1-25.1-5.7-52.5,4.1-76.7"/>
		<path class="st6" d="M167.8,283.1c7.3,21.3,21.4,40.1,39.7,53.2c0,0,0,0,0,0"/>
		<path class="st6" d="M215.2,341.1c19.2,7.2,44.3,5.6,62-4.7"/>
		<path class="st6" d="M282.1,334.9c0.3-0.2,0.6-0.5,0.9-0.7v0c17.2-13.5,31.8-30.3,42.7-49.3"/>
		<path class="st6" d="M328.7,275.8L328.7,275.8c3.9-24,3.9-50.7,2.1-74.9"/>
		<path class="st6" d="M292.7,136.4c0.2,0.2,0.4,0.4,0.6,0.6c14.5,15.9,27.1,33.6,37.3,52.6"/>
		<path class="st6" d="M170.3,185.2c9.1-21.4,25.1-39.9,44.9-52c0,0,0.1,0,0.1-0.1"/>
		<path class="st6" d="M226.1,127.7c19.4-4.1,39.8-3.6,59,1.5"/>
		<path class="st6" d="M322.9,86.9c0.1,0.1,0.2,0.1,0.3,0.1c0.5,0.2,0.9,0.4,1.4,0.5c0.3-0.7,0.6-1.4,0.9-2.1c0,0.9,1.2,1.5,1.9,1
			c0.7-0.5,0.6-1.8-0.2-2.2"/>
		<path class="st6" d="M316,97c0.8,0.5,2.2,0.1,2.6-0.8c0.5-1.3-0.1-2.7-0.8-4c0.5,0.6,1,1.1,1.6,1.7c0.7-1.2,0.9-2.5,0.8-3.8
			c0.6,1.4,2.8,1.8,3.8,0.6c0.9-1.1,0.5-3-0.7-3.6"/>
		<path class="st6" d="M316,97c-0.1-0.3-0.3-0.5-0.4-0.7C315.6,96.6,315.7,96.8,316,97z"/>
		<path class="st6" d="M297.2,126.7c-0.3-0.4-0.5-0.8-0.7-1.2c-0.4-1-0.5-2-0.4-3.1c1.5,0.4,2.8,1.5,3.6,2.8
			c-0.4-1.8-0.8-3.6-1.2-5.4c1,0.3,2,0.6,3.1,1c-1-0.5-1.3-2-0.7-2.9c0.6-0.9,2.1-1.1,2.9-0.3c-0.2-1.3-0.4-2.7-0.6-4.1
			c1,0.6,2,1.1,2.9,1.7c-0.2-1.5-0.4-3.1-0.7-4.6c0.9,0.5,1.9,1,2.9,1.6c-0.3-1.3-0.5-2.7-0.8-4c0.9,0.8,1.8,1.6,2.7,2.4
			c-0.3-1.5-0.6-3-0.9-4.5c0.6,0.5,1.1,0.9,1.7,1.4c0.5-1.4,0.4-3-0.4-4.3c0.9,0.8,1.7,1.5,2.6,2.3c-0.4-1.7-0.7-3.4-1.1-5.1
			c1.1,0.6,2.7,0.3,3.5-0.7c0.6-0.8,0.8-2,0.4-2.9"/>
		<path class="st6" d="M308.9,125.4c0.7,0.8,1.7,1.2,2.7,1.3c-0.3-1.5-0.6-3-0.8-4.5c0.5,0.7,1.1,1.3,1.7,2c0.5-1,0.6-2.3,0-3.3
			c0.7,0.4,1.4,0.8,2.1,1.2c0.9-1.1,1-2.8,0.3-4.1c0.7,0.3,1.4,0.6,2.1,0.8c0-1.7-0.1-3.4-0.2-5.2c0.7,0.3,1.4,0.7,2.1,1.1
			c0.7-1.5,0.5-3.4-0.5-4.6c0.7,0.6,1.4,1.1,2.1,1.7c-0.2-1.7-0.3-3.4-0.5-5.1c1.1,0.7,2.2,1.5,3.3,2.2c0.5-1.9,0.3-4-0.6-5.7
			c0.7,0.7,1.5,1.3,2.2,2c0.6-1.7,0.5-3.6-0.3-5.2c0.6,0.4,1.1,0.8,1.7,1.3c0.8-1.1,1-2.8,0.4-4c0.8,0.7,2.1,0.6,2.9-0.1
			c0.8-0.7,0.8-2,0.2-2.8c0.7,0.1,1.5,0.3,2.2,0.4c0.7-0.9,1.4-1.7,2.1-2.6c0.3-2-0.3-4.1-1.5-5.7c-1.2-1.7-3.1-2.9-5.1-3.1
			c-0.1,0-0.2,0-0.3,0"/>
		<path class="st6" d="M308.9,125.4c-0.1-0.2-0.3-0.4-0.5-0.6C308.6,125,308.7,125.2,308.9,125.4z"/>
		<path class="st6" d="M306.4,134.2c0-0.6-0.1-1.1-0.5-1.5c0.9,0.3,1.9,0.5,2.8,0.8c-0.4-2.5-1.2-4.9-2.5-7c0.6,1.1,1.8,1.8,3,1.9
			c0.3-1,0.2-2.1-0.4-3"/>
		<path class="st6" d="M306.4,134.2c0.2,0.6,0,1.4-0.6,1.6C306.2,135.4,306.4,134.8,306.4,134.2z"/>
		<path class="st6" d="M304.8,135.9c-1.2-0.5-0.8-2.7,0.5-2.7c0.6,0,1,0.5,1.2,1"/>
		<path class="st6" d="M332.4,86.8c0-0.1,0.1-0.2,0.1-0.2c1.4-2.7,3.2-5.2,5.4-7.3c1.6-1.6,3.5-3.1,5.5-4.2"/>
		<path class="st6" d="M343.3,70.4c-0.1,1.3,0.3,2.6,1,3.7c1.3,1.8,3.5,2.9,5.6,2.6"/>
		<path class="st6" d="M183.6,349.8c7.3,7.8,9.1,20.7,9.4,31.4c0.3,10.6-0.4,21.6,3,31.7v0"/>
		<path class="st6" d="M192.8,351.8c8,19.2,6.1,43.1,12.2,60.8"/>
		<path class="st6" d="M179.7,720.8c0-0.6,0-1.3,0-1.9c-0.2-8.2-0.3-16.4-0.4-24.6c-1.6-86.2-3.1-172.4-4.6-258.6"/>
		<path class="st6" d="M218.3,430.8c-2.4,88.1-1.6,176.3,2.4,264.3c0.3,7.5,0.7,15,1.1,22.5c0,0.9,0.1,1.7,0.1,2.6"/>
		<path class="st6" d="M195.7,721.6c-1-94.6-1.9-193.4-2.9-288"/>
		<path class="st6" d="M211.6,432.2c-6,98-6.5,191.4-1.4,289.4"/>
		<path class="st6" d="M179.1,718.6c0.2,0.1,0.3,0.2,0.5,0.3c7.6,4.8,17,6.6,25.9,5.2c1.7-0.3,3.5-0.6,5.1-1.1c4-1.1,7.7-3,11.1-5.4
			"/>
		<path class="st6" d="M177.4,694.3c-45.1,5.9-91.5,12.3-131,34.9c-5.6,3.2-11.1,6.8-15.1,11.9c-4,5.1-6.1,11.9-4.3,18.1
			c2.8,9.3,13.1,13.8,22.3,16.9c95.2,31.7,200.8,31.5,295.9-0.4c8.5-2.8,17.4-6.3,22.5-13.6c7.9-11.3,3.3-27.9-6.7-37.4
			c-10-9.5-23.9-13.5-37.4-16.6c-32.1-7.5-64.9-11.9-97.8-13.2"/>
		<path class="st6" d="M127.9,773.1c-3.3,2.9-3.1,8.6-0.2,11.9c2.9,3.3,7.9,4.3,12.1,3.1c3.4-1,6.4-3.1,8.8-5.8
			c0.6-0.6,1.1-1.3,1.6-1.9c2.3-3.1,3.9-6.6,5.5-10.2c0.2-0.5,0.4-1,0.7-1.5"/>
		<path class="st6" d="M140.4,774.9c-2.2-1.9-4.3-4-6.1-6.3c-2.4-2.9-4.4-6.1-6.1-9.4c-1.5-3-2.4-7.5,0.6-9.2
			c2.6-1.5,5.7,0.5,7.8,2.6c4.3,4.3,8,9.2,10.8,14.6"/>
		<path class="st6" d="M153.1,755.8c-0.8-2.7-0.9-5.5-0.4-8.3c0.1-0.6,0.3-1.2,0.4-1.7"/>
		<path class="st6" d="M153.2,745.8C153.2,745.8,153.2,745.8,153.2,745.8c3.7,4,10.5,4.7,14.9,1.4"/>
		<path class="st6" d="M152,747.4c-0.6-4.7,0.5-9.8,3.7-13.3c3.2-3.5,8.8-4.9,13-2.6c4.1,2.3,5.7,8.6,2.5,12.2"/>
		<path class="st6" d="M198.9,151.4c3.7,9,7.4,22.1,11.9,30.8"/>
		<path class="st6" d="M216,182.2c0,0,0-0.1,0.1-0.1c3-6.9,5.8-14.8,8.7-22.3c1.1-2.9,2.3-5.8,3.5-8.6"/>
		<path class="st6" d="M235.2,151.4c-0.2,0.1-0.4,0.1-0.5,0.2c-3.8,1.7-6.7,5-8.2,8.9c-0.8,2-1.2,4.2-1.1,6.4
			c0.3,6.5,5,12.6,11.3,14.6"/>
		<path class="st6" d="M243.9,151.7c6.8,1.9,11.8,8.7,11.8,15.8c-0.1,6.8-2.9,12.6-9.3,14.5c-0.2,0.1-0.4,0.1-0.6,0.2"/>
		<path class="st6" d="M208.2,151.3c1.5,3.4,3,6.9,4.5,10.3"/>
		<path class="st6" d="M213,161.8c1.9-3.6,3.8-7.3,5.7-10.9"/>
		<path class="st6" d="M198.9,151.4c0.8,10,0.5,21,1.3,31c4.3,0.2,6.3,0.3,10.6-0.3"/>
		<path class="st6" d="M216,182.1C216.1,182.1,216.1,182.1,216,182.1c7.2,1.2,13.5,1.2,20.6,0.1c0.3-0.1,0.7-0.1,1.1-0.2"/>
		<path class="st6" d="M259.9,184.1c1.4-2.9,2.9-5.7,4.3-8.6"/>
		<path class="st6" d="M265.2,175.1c1.7,3.3,3.1,6.1,4.8,9.5"/>
		<path class="st6" d="M260.1,184.6c2.7,0,7.3,0,10,0"/>
		<path class="st6" d="M269.9,167.9c1.6,4.4,4.6,9.1,7.4,12.9c0.2,0.3,0.4,0.5,0.6,0.8"/>
		<path class="st6" d="M277.9,153.7c0.5,8.8,0.6,17.7,0.2,26.6"/>
		<path class="st6" d="M269.9,167.9c2.4-4.8,4.8-9.5,7.1-14.3"/>
		<path class="st6" d="M260.6,150.8c1,2.4,2.6,6.7,3.6,9"/>
		<path class="st6" d="M260.1,150.4c0.2,0,0.3,0,0.5,0c3.3-0.1,6,0.5,9.3,0.4"/>
		<path class="st6" d="M269.9,150.8c-1.1,1.9-4.6,7.1-5.8,9"/>
		<path class="st6" d="M283.9,153.7c0.4,9.4,0.8,18.7,1.2,28.1"/>
		<path class="st6" d="M283.8,152.3c2.9,0.3,5.2-0.3,8.1,0"/>
		<path class="st6" d="M292.5,153.1c-3.1,9.8-4.3,18.8-7.4,28.6"/>
		<path class="st6" d="M296.7,152.7c2.4,9.4,4.7,19.1,7.2,28.6c0.1,0.2,0.1,0.3,0.1,0.5"/>
		<path class="st6" d="M296.7,152.7c2.4,0,4.8,0,7.1,0"/>
		<path class="st6" d="M304.1,152.3c0,0.2,0,0.3,0,0.5c-0.1,9.5-0.2,19-0.3,28.6c0,0.1,0,0.3,0,0.4"/>
		<path class="st6" d="M294.3,174.6c-0.8,2.8-1.6,7.1-2.4,10"/>
		<path class="st6" d="M294.2,174.1c0.3-0.4,0.5-0.9,0.8-1.3c0.2,0.5,0.4,0.9,0.5,1.4c1.2,3.2,2,6.6,2.4,9.9"/>
		<path class="st6" d="M291.9,184.6c1.5,0.1,4.3,0.5,6.1-0.4"/>
		<path class="st6" d="M180.1,284.4c0.7-28.7,1.3-57.3,2-86"/>
		<path class="st6" d="M190.6,284.9c0.7-28.5,1.3-57,2-85.6"/>
		<path class="st6" d="M197.8,294.8c1.3-32.2,2.5-64.3,3.8-96.5"/>
		<path class="st6" d="M208.9,296.3c0.6-32.5,1.2-64.9,1.7-97.4"/>
		<path class="st6" d="M215.2,308.6c2.6-36.2,3.9-72.5,4.2-108.8"/>
		<path class="st6" d="M225.5,308.5c1.5-37.1,1.3-71.7,2.8-108.7"/>
		<path class="st6" d="M232,324.3c1.2-40.7,2.4-83.9,3.6-124.6"/>
		<path class="st6" d="M241,324.3c2.8-41.7,3.9-83.6,3.2-125.4"/>
		<path class="st6" d="M255.5,324.3c1.2-41,2.4-82.1,3.6-123.1"/>
		<path class="st6" d="M250.9,199.8c-1,42-2.1,84-3.1,125.9"/>
		<path class="st6" d="M266.7,199.4c-1.3,41.2-2.9,84.2-4.3,125.4"/>
		<path class="st6" d="M271.5,323.3c1.6-42,3.2-82.5,4.9-124.5"/>
		<path class="st6" d="M279.5,310c0-0.1,0-0.1,0-0.2c1.6-37.6,3.7-73.4,5.3-111.1"/>
		<path class="st6" d="M291.9,199.3c-1,36.6-2.1,73.2-3.1,109.8"/>
		<path class="st6" d="M299,200.2c-1.3,31.7-2.6,63.4-4,95"/>
		<path class="st6" d="M306.3,200.7c-1.1,32-2.3,64-3.4,96"/>
		<path class="st6" d="M313.5,200.3c-2.7,27.1-4.1,54.4-4.1,81.7c0,0,0,0,0,0"/>
		<path class="st6" d="M320.6,200.7c-2.3,27-3.3,54.1-3,81.2c0,0.5,0,1,0,1.5"/>
		<path class="st6" d="M183.1,198.3c3.2,0.1,6.3,0.3,9.5,0.5"/>
		<path class="st6" d="M201.5,198.3c2.5-0.1,5.1,0.2,7.6,0.2c0.5,0,1,0,1.5,0"/>
		<path class="st6" d="M220.1,199.6c3.5,0,4.6,0.2,8.1,0.2"/>
		<path class="st6" d="M235.7,199.7c2.5-0.5,6.1-0.4,8.6-0.9"/>
		<path class="st6" d="M250.9,199.8c2.7,0.3,5.5,0.1,8.2,0.4"/>
		<path class="st6" d="M266.7,198.5c3.2-0.2,6.3-0.3,9.5-0.5"/>
		<path class="st6" d="M284.8,198.7c2.4,0.1,4.7,0.3,7.1,0.4c0,0,0,0,0,0"/>
		<path class="st6" d="M300,199.7c2.1,0,4.1,0,6.2,0"/>
		<path class="st6" d="M314.4,200.1c2.1,0.1,4.1,0.3,6.2,0.4"/>
		<path class="st6" d="M180.1,284.4c2.1-0.1,8.4,0.6,10.4,0.5"/>
		<path class="st6" d="M197.8,295.8c3.5,0.3,7.7,0.1,11.1,0.4"/>
		<path class="st6" d="M215.2,308.6c3.8,0.3,6.4,0.6,10.1,0.9c0,0,0.1,0,0.1,0"/>
		<path class="st6" d="M232,325.3c3.1,0.3,5.8,0.3,8.9,0.5c0.1,0,0.1,0,0.1,0"/>
		<path class="st6" d="M249.3,325.8c2.1-0.1,4.1-0.3,6.2-0.4"/>
		<path class="st6" d="M262.5,324.8c1.9,0.3,7.1-0.2,9,0.2"/>
		<path class="st6" d="M280.5,309.9c3-0.3,5.2-0.1,8.2-0.4"/>
		<path class="st6" d="M296.7,295.8c2.1-0.1,4.1-0.3,6.2-0.4"/>
		<path class="st6" d="M310,282c2.5,0,5.1,0,7.6-0.1c0.5,0,0.9,0,1.4,0"/>
	</g>
</g>
</svg>
