<?xml version="1.0" encoding="utf-8"?>
<!-- Generator: Adobe Illustrator 23.1.0, SVG Export Plug-In . SVG Version: 6.00 Build 0)  -->
<svg version="1.1" xmlns="http://www.w3.org/2000/svg" xmlns:xlink="http://www.w3.org/1999/xlink" x="0px" y="0px"
	 viewBox="0 0 1154.7 1153.5" style="enable-background:new 0 0 1154.7 1153.5;" xml:space="preserve">
<style type="text/css">
	.st0{fill:#4D4D4D;}
	.st1{fill:#666666;}
	.st2{fill:#999999;}
	.st3{fill:#333333;}
	.st4{fill:#E6E6E6;}
	.st5{fill:none;stroke:#000000;stroke-width:4;stroke-miterlimit:10;}
</style>
<g id="Layer_1">
</g>
<g id="Layer_2">
	<g id="XMLID_1_">
		<g>
			<path class="st0" d="M379,533.3l1.5-0.8c1.3-0.3,2.6-0.5,3.9-0.7l0,0.2c5.1,5.2,10.8,8.4,16.4,10.4c-3.9,4-6.6,8.9-8.2,14.1
				l-1.4-0.2c-5.8-4.2-10.8-4.6-16.5-8.8c-0.2-2.2,0-4.5,0.6-6.6C376,538.2,377.2,535.5,379,533.3z"/>
			<path class="st0" d="M696,493.6c-2.1,9.9-4.2,19.8-6.2,29.7l0.3,2c-44.6,6.4-91.1,7.9-134.1,8c-22.9-11.3-45.3-23.5-67.3-36.5
				C557.8,495.7,626.9,494.7,696,493.6z"/>
			<path class="st1" d="M695.4,489.3l1.3,1.2c-0.2,1.1-0.5,2.1-0.7,3.2c-69.1,1-138.2,2.1-207.3,3.1c-7.2-4.3-14.4-8.7-21.5-13.2
				l-3.1-1.3c9.1-21.5,19.3-42.5,30.6-63c62.5-0.3,125.4-3.3,188.5-3.6l0.9-0.1C688.3,440.1,692,464.7,695.4,489.3z"/>
			<path class="st2" d="M245.1,445.7c60.3,32.1,114.8,56.1,179.4,78.7l0.2,2.4c-12.4,0.9-24.7,2.3-36.9,4.3l-0.2-1.2
				c-71.7-32.9-139.8-64.1-211.5-96.9v-0.2c23-0.4,52.9-0.9,75.4-1.2C249.4,436.3,247.3,441,245.1,445.7z"/>
			<path class="st1" d="M755.5,511.2c-1.6,0.5-3.2,0.9-4.8,1.4l-0.7-2.5c-18-13.3-23-37.7-26.6-59.8c-1.9-11.5-3.8-22.9-5.6-34.4
				l3.1-0.5c24.8,0.2,49.6-0.2,74.5-0.6c42.6-0.8,85.3-1.7,127.6,0.2c13,0,26-1,39,0c11,1,22,1,33,2c12,2,24,2,37,4
				c22.7,3.5,44,8.6,65.1,15.6l-0.2,0.7c1.7,0.6,3.4,1.3,5,2.2c6.4,3.6,11.3,11.1,9.4,18.2c-2.5,9.3-13.8,12.5-23.4,14
				c-50.4,7.6-101.4,11.6-152.4,11.9c-4.2,0-8.3,0-12.5,0c-30.6-0.2-61.6-1.8-91.6,4.2C805.4,492.9,780.9,503.6,755.5,511.2z"/>
			<path class="st3" d="M1057.8,895.4c5.6,2.2,7.2,10.3,3.9,15.4c-3.3,5.1-9.7,7.3-15.8,7.3c-5.5,0-11-1.9-15.3-5.3l3.1,0
				c-1.6-8.8,5.7-18.1,14.6-18.8l0.8,0.1c-0.4,2.4-1,4.7-1.8,7l1.2,1.3c2.9-2.5,5.8-5,8.8-7.5L1057.8,895.4z"/>
			<path class="st2" d="M412.6,549.5c0.6,0.4,1.3,0.7,1.9,1.1c-24.2,20.1,0,50.2,2.2,72.1c3.4,33.8-25.5,71.2-58.7,80.8
				c-6.9,2-10.9,1.6-15.9,1.8l-0.3-11.8c2.5-0.3,5-0.8,7.4-1.3c10.3-2.3,19.7-7.5,27.5-14.5c13-11.7,21.5-28.6,21.9-46.1
				c0.3-15.4-4.9-30.4-7.3-45.6c-0.2-1.3-0.4-2.6-0.5-3.9c-1-8.6-0.7-17.6,1.8-25.6c1.7-5.3,4.3-10.1,8.2-14.1
				C403.6,544.7,407,546.1,412.6,549.5L412.6,549.5z"/>
			<path class="st3" d="M1034.6,883.7c3.7-0.2,9.5-0.3,13.8,0.4l1.2-0.1c0.3,3.4,0.2,6.9-0.4,10.3l-0.8-0.1
				c-8.9,0.6-16.2,10-14.6,18.8l-3.1,0c-2.5-2-4.6-4.6-5.8-7.6c-3.3-8.1,1.2-19,9.7-20.8L1034.6,883.7z"/>
			<path class="st2" d="M935.6,488.9c-31.1,0.2-62.2,1.9-93.6,10.1c-41,10-77,24-118,31c-54.4,8.9-101.3,10.7-155,10.8v-1.2
				c-4.3-2.1-8.7-4.2-13-6.3c43-0.1,89.5-1.6,134.1-8c20.8-3,41.2-7.1,60.6-12.7c1.6-0.5,3.2-0.9,4.8-1.4
				c25.4-7.6,49.9-18.3,75.9-23.5c30-6,61-4.5,91.6-4.2c4.2,0,8.3,0,12.5,0L935.6,488.9z"/>
			<path class="st2" d="M703.3,327.6c4.8,29.4,9.6,58.9,14.5,88.3c1.9,11.5,3.8,22.9,5.6,34.4c3.6,22.1,8.6,46.5,26.6,59.8l0.7,2.5
				c-19.4,5.6-39.8,9.7-60.6,12.7l-0.3-2c2.1-9.9,4.2-19.8,6.2-29.7c0.2-1.1,0.4-2.1,0.7-3.2l-1.3-1.2c-3.4-24.6-7.2-49.2-11.4-73.7
				c-3.6-21.2-7.5-42.4-11.7-63.6l1.3-0.3c1.8-1.6,3.6-3.3,5.4-4.9c6-5.4,12-10.8,17.9-16.3c1.7-1.5,3.3-3,4.9-4.5L703.3,327.6z"/>
			<path class="st2" d="M935.5,483.5c51-0.2,102-4.2,152.4-11.9c9.5-1.4,20.9-4.6,23.4-14c1.9-7.1-3-14.6-9.4-18.2
				c-1.6-0.9-3.3-1.6-5-2.2l0.2-0.7c8.6,2.8,17.2,6,25.9,9.4c2,1,4,2,6,4c2.2,2.2,3.3,5,3.2,7.8c-0.1,3.5-1.8,7-5.2,9.2
				c-28,16-60,18-91,20c-33.7,3.1-67,1.7-100.4,1.9L935.5,483.5z"/>
			<path class="st1" d="M334.5,1012.5c-0.3,1.8-0.6,3.5-0.9,4.9h-0.1c-0.3,10.2-0.7,20.4-1,30.6c-8.5-3.8-24.1-10.8-32.7-14.6
				l-0.1-0.4c6.5-1.1,12.9-2.3,19.4-3.4l0-0.1c0-0.3,0-0.6,0-0.9l1.8,0c1.9-3.4,2.6-7.6,1.2-11.3c-1.4-3.6-4.9-6.5-8.8-6.6
				c-3.9-0.1-7.8,3-8.1,6.9l0,0.2c-8.6,1-17.3,2-25.9,3.1c-2.1,0.3-4.3,0.5-6.3,1.1l-0.9-3.1v0c2.8-0.8,5.5-1.8,8.1-2.8
				c5.9-2.3,11.9-4.8,18.3-4.8l1.2-1.3c-0.1-3.3-2-6.5-4.8-8.2c-2.5-1.5-5.7-1.8-8.4-0.9l-1.7,0c-2.7,0.1-5.4,0.3-8,0.5l-0.5-4.9
				l1.3-1.8c-3-2-5.9-4.1-8.9-6.2l-4.7,0c-3.9-0.8-7.9-1.4-11.8-1.9l0.2-1.4c1.4-10.9,1-19.5,2.5-30.4
				c23.7,18.2,54.8,39.5,78.4,57.6C333.6,1012.5,334.1,1012.5,334.5,1012.5z"/>
			<path class="st1" d="M556,533.3c4.3,2.1,8.7,4.2,13,6.3v1.2c-0.6,0-1.2,0-1.8,0c-53.4,3.5-103.3,6.5-154.4,8.4l-0.2,0.3
				c-5.6-3.3-9-4.8-11.8-7.1c-5.6-2-11.2-5.2-16.4-10.4l0-0.2c1.1-0.2,2.3-0.4,3.4-0.6c12.3-2,24.6-3.4,36.9-4.3
				c7.7-0.6,15.5-1.1,23.3-1.5c16.8-0.9,33.7-1.7,50.7-3.2c-12.4-8.1-27.6-16.4-39.9-24.5l-0.8-0.3c2-5,4-10,6.1-15l3.1,1.3
				c7.1,4.5,14.3,8.9,21.5,13.2C510.7,509.8,533.1,522,556,533.3z"/>
			<path class="st4" d="M298.6,1011.3c-6.3,0-12.4,2.5-18.3,4.8c-2.6,1-5.4,2-8.1,2.8v0c-3.5,1-7.2,1.5-10.8,1.2
				c-6.5-0.7-13-5.2-13.8-11.7c9.4-3.6,19.2-5.9,29.2-6.9v0c2.7-0.3,5.4-0.5,8-0.5l1.7,0c2.8-0.9,5.9-0.6,8.4,0.9
				c2.8,1.7,4.7,4.9,4.8,8.2L298.6,1011.3z"/>
			<path class="st2" d="M1081.7,637.4c-13.3,2.1-26.9,3.4-40.5,4.2c-7.6,0.5-15.3,0.8-23,1.1c-36.5,1.4-73.3,1.5-109,7.9
				c-57,10.2-109.8,36.3-165.5,52.3c-23.5,6.7-47.4,11.7-71.5,15.4c-45.3,7-91.5,9.7-137.3,12.4c-75.6,4.4-157.3,8.8-233,13.2
				c0.1-7.2,1.3-14.1,4.5-20.5c4.8-9.8,15.8-15,26.5-17.2c3.7-0.7,6.6-0.9,9.2-1c5-0.1,9,0.2,15.9-1.8c33.2-9.6,62.2-47,58.7-80.8
				c-2.2-22-26.4-52-2.2-72.1c-0.7-0.4-1.3-0.8-1.9-1.1v0l0.2-0.3c51-1.9,100.9-4.9,154.4-8.4c0.6,0,1.2,0,1.8,0
				c53.7,0,100.6-1.9,155-10.8c41-7,77-21,118-31c31.3-8.2,62.5-9.9,93.6-10.1c33.4-0.2,66.8,1.2,100.4-1.9c31-2,63-4,91-20
				c3.3-2.2,5.1-5.7,5.2-9.2l3.5,0.1c5.8,55,3.8,110.9-6,165.3l0.7,1.8C1114.5,630.9,1098.3,634.8,1081.7,637.4z"/>
			<path class="st3" d="M1043.2,873.1c6.7-0.6,13.3-1.1,20-1.7l0.2,1.9c0.3,3.9,5.6,6.3,5.9,10.2l-0.5,1.6
				c-3.8,3.3-7.6,6.5-11.4,9.8c-2.9,2.5-5.9,5-8.8,7.5l-1.2-1.3c0.8-2.3,1.4-4.6,1.8-7c0.6-3.4,0.7-6.8,0.4-10.3l-1.2,0.1
				c-4.3-0.6-10.2-0.5-13.8-0.4c-1.5,0.1-2.7,0.1-3.2,0.2c0.2-2.8-0.2-9.8,0-12.6l0-0.1c3.9,0.7,7.8,1.5,11.6,2.2l0-0.2
				C1043.1,873.1,1043.1,873.1,1043.2,873.1z"/>
			<path class="st2" d="M409,796.5c-12.5-2.7-26-3.1-38.7-3v-0.3c-1.6-3.7-1.5-8.1,0.2-11.8l0-0.1c75.1-3.5,151.5-9,227.8-14.2
				c0.4,5.6-0.8,11.4-3.3,16.5l-2.3,0.6c-28.7,0-57,15.5-72.4,39.7c-13.2,20.9-16.8,46.3-19.5,70.8c-7,62.8-10.8,126-11.4,189.2
				l-1.3,0.6c-0.5,0-1,0-1.5,0c-12,0-23.9-0.1-35.9-0.1c3.2-63.4,6.8-130.5,10-194c1.3-26.4,1.6-56-16.4-75.5
				C435,804.8,422.5,799.3,409,796.5z"/>
			<path class="st1" d="M460.6,890.3c-3.2,63.4-6.8,130.5-10,194l-0.9,0.1c-0.2-0.2-0.3-0.3-0.5-0.5c-3.8-3.6-8.8-7.1-12.2-10.7
				c2-63.3,3.9-126.5,5.9-189.8c0.5-17.6,1-35.6-4.3-52.3c-5.4-16.7-12.5-30.6-29.6-34.7c13.5,2.8,25.9,8.3,35.3,18.4
				C462.2,834.3,462,863.9,460.6,890.3z"/>
			<path class="st2" d="M342.9,782.5l0.1,1.2c-2.3,66.2,1.4,133.7-4.5,200.1c-0.5,2.3-0.9,5.2-1.4,8.4l-2-0.3
				c-10.7-8.4-26.7-20-41.2-32.3l0,0c1.5-57,3.3-124,4.8-181.1l0.3-0.5c2.2,1.2,4.4,2.4,6.5,3.6c1.3,0.7,2.6,1.4,3.8,2.1
				c-0.6,57.5,0,110.3-1.7,167.1c4.8,3,11.8,9.2,16.6,12.2c2.8-66.1,1.1-112.6,3.9-178.7l0-1.2C333,782.9,337.9,782.7,342.9,782.5z"
				/>
			<path class="st2" d="M226.2,738L226.2,738c-1.7,48.1-3.4,101-5.1,149.2c-9.2,0.4-18.3,0.9-27.4,1.3l-2.7,0
				c0.9-55.7,1.8-111.3,2.7-167l0.6-1.1C204.9,726.3,215.6,732.2,226.2,738z"/>
			<path class="st1" d="M385.4,1010.9c0,11.4-0.1,22.8-0.1,34.2v0c-15.8,0.2-28.9,2.8-50.4,2.8h-2.4c0.3-10.2,0.7-20.4,1-30.6h0.1
				c0.3-1.4,0.6-3.1,0.9-4.9C348.6,1012.2,370,1013.2,385.4,1010.9z"/>
			<path class="st1" d="M335,991.9l2,0.3c-0.9,6.6-1.6,14.3-2.5,20.3c-0.4,0-0.9,0-1.3,0c-23.7-18.2-54.8-39.5-78.4-57.6
				c7.8-2.7,15.6-5.4,23.4-8.1c0.3-0.1,0.6-0.2,0.9-0.3l0.3,0.2c4.4,4.3,9.3,8.7,14.4,13C308.2,971.8,324.3,983.5,335,991.9z"/>
			<path class="st1" d="M385.5,1010.1c0,0.3,0,0.5,0,0.8c-15.5,2.3-36.8,1.2-51,1.6c0.9-6,1.7-13.8,2.5-20.3
				c0.4-3.2,0.9-6.1,1.4-8.4c6-66.3,2.3-133.8,4.5-200.1l-0.1-1.2c6.2-0.3,12.4-0.5,18.6-0.8l0.1,2.5c-0.5,66.5-1.1,133.1-1.6,199.6
				l1,2C373.2,996.2,378.2,1001.9,385.5,1010.1z"/>
			<path class="st1" d="M298.8,778l-0.3,0.5c-1.5,57-3.3,124-4.8,181.1l0,0c-5.1-4.3-10-8.7-14.4-13l-0.3-0.2
				c-0.3,0.1-0.6,0.2-0.9,0.3l-0.4-1c0,0,0-0.1,0-0.4c0.9-59,2.3-118.1,3.2-177.1c0.9,0.5,1.8,1,2.8,1.5
				C288.8,772.5,293.8,775.3,298.8,778z"/>
			<path class="st1" d="M328,783l0,1.2c-2.8,66.1-1.1,112.6-3.9,178.7c-4.8-2.9-11.8-9.2-16.6-12.2c1.7-56.7,1-109.6,1.7-167.1
				C315.4,783.5,321.7,783.3,328,783z"/>
			<path class="st3" d="M309.1,1016.9l-0.1,0.5c-1.2,0.1-2.4,0.3-3.6,0.4l0-0.2c0.3-3.9,4.2-7,8.1-6.9c3.9,0.1,7.4,3,8.8,6.6
				c1.4,3.7,0.7,7.9-1.2,11.3l-1.8,0C319.2,1023,314.6,1017.7,309.1,1016.9z"/>
			<path class="st3" d="M444.2,1098.9c5.8,3.8,11.7,7.6,17.6,11.4l-0.6,0.8c-7,0.4-13.2,6.8-13.5,13.8c-0.3,7.1,5.5,13.8,12.5,14.7
				l0,2.4c-2.1,0.1-4.2-0.2-6.3-0.9c-9.2-2.9-17.9-8.9-20.5-18.2C430.8,1113.8,436.9,1105.2,444.2,1098.9z"/>
			<path class="st3" d="M464,1127.9l0.5-0.2c4.5-4.6,9.5-8.6,15-11.9c3.1,1.6,1.3,11.4-0.5,14.4c-4.1,7-11.2,11.7-18.7,12l0-2.4
				c-7-0.9-12.7-7.7-12.5-14.7c0.2-7.1,6.4-13.4,13.5-13.8l0.6-0.8c0.4,0.2,0.7,0.5,1.1,0.7l2.1-0.4
				C462.1,1115.9,461.7,1122.4,464,1127.9z"/>
			<path class="st3" d="M210.6,911.1c2.7,10.8-5.5,27.1-16.4,29.3c-1.8,0.4-3.6,0.4-5.4,0.3l0.1-0.7c-6.1-3.3-9.4-10.8-7.8-17.5
				c1.6-6.7,8.1-11.9,15-12l2.2-0.4c0.8,4.4,1.7,8.8,1.5,12.7c2.9-4.4,5.9-8.7,8.8-13.1L210.6,911.1z"/>
			<path class="st4" d="M319.2,1028.6c0,0.3,0,0.6,0,0.9l0,0.1c-6.5,1.1-12.9,2.3-19.4,3.4c-6.6,1.2-13.1,2.3-19.7,3.5
				c-5.3,0.9-12.5,0.9-14.3-4.3c-1.1-3.2,1-6.8,3.8-8.7c1.1-0.7,2.3-1.2,3.5-1.5c2-0.6,4.2-0.9,6.3-1.1c8.6-1,17.3-2,25.9-3.1
				c1.2-0.1,2.4-0.3,3.6-0.4l0.1-0.5C314.6,1017.7,319.2,1023,319.2,1028.6z"/>
			<path class="st3" d="M467.6,1098.2l4.2,5.3c-2.6,1.7-4.9,3.9-6.5,6.6c-0.1,0.2-0.2,0.4-0.3,0.6l-2.1,0.4
				c-0.4-0.2-0.7-0.5-1.1-0.7c-5.9-3.8-11.7-7.6-17.6-11.4l-0.2-1.2c1.1-2.8,2.1-5.6,3.2-8.4l2.4,0.9
				C455.6,1092.9,461.6,1095.6,467.6,1098.2z"/>
			<path class="st3" d="M471.8,1103.4l-4.2-5.3c-6-2.6-12-5.2-18-7.8l-2.4-0.9c0.7-1.8,1.4-3.6,2.1-5.4c0.2,0.2,0.3,0.3,0.5,0.5
				l0.9-0.1c11.9,0,23.9,0.1,35.9,0.1v1.9c2.2,6.7,4.5,13.5,6.7,20.2l0.8,2.3c-5.1,1.8-10,4.2-14.6,7c-5.5,3.3-10.5,7.4-15,11.9
				l-0.5,0.2c-2.3-5.5-1.9-12.1,1-17.3c0.1-0.2,0.2-0.4,0.3-0.6C466.9,1107.4,469.1,1105.1,471.8,1103.4z"/>
			<path class="st3" d="M190.5,899.7c-0.3-2.8-0.7-5.6-1-8.4l1.4-0.2c0-0.9,0-1.8,0-2.7l2.7,0c9.1-0.4,18.3-0.9,27.4-1.3
				c0,0.3,0,0.7,0,1c0.3-0.4,0.5-0.7,0.8-1.1c0.1,0,0.2,0,0.3,0c0.4,2.7,0.9,5.3,1.3,8c-2.8,1-5.6,2.1-8.4,3.1l0.2,1.5
				c-2.2,3.3-4.4,6.6-6.6,9.9c-2.9,4.4-5.8,8.8-8.8,13.1c0.3-3.9-0.7-8.3-1.5-12.7l-2.2,0.4c-6.9,0.1-13.3,5.3-15,12
				c-1.6,6.7,1.7,14.3,7.8,17.5l-0.1,0.7c-9.1-0.8-17.7-8.2-19.1-17.3c-1.7-11,7.2-22.4,18.3-23.5v-0.1
				C188.9,899.7,189.7,899.7,190.5,899.7z"/>
			<path class="st4" d="M264,988.6l4.7,0c3,2.1,5.9,4.1,8.9,6.2l-1.3,1.8c-15.7,1-31.4,2-47,3l-0.8-1.6c-3.6,0-5.2-5.8-2.7-8.8
				c2.6-3,7.1-3.4,11.1-3.4c5.1,0,10.2,0.3,15.3,0.9C256.1,987.1,260.1,987.8,264,988.6z"/>
			<path class="st1" d="M189.2,888.2c-4.2-2.4-8.5-4.7-12.7-7.1l-1.3,0c-0.3-58.5-0.6-113.3-0.9-171.8c6.7,3.7,13.3,7.3,19.9,11
				l-0.6,1.1c-0.9,55.7-1.8,111.3-2.7,167c0,0.9,0,1.8,0,2.7l-1.4,0.2C189.4,890.3,189.3,889.3,189.2,888.2L189.2,888.2z"/>
			<path class="st1" d="M1043.1,872.3l0.1,0.8c-0.1,0-0.1,0-0.2,0l0,0.2c-3.9-0.7-7.8-1.5-11.6-2.2c-1.8-0.3-3.6-0.7-5.4-1
				c-3.6-74.5-4-152.2-7.6-226.7l0-0.6c7.7-0.3,15.3-0.6,23-1.1l0.1,1.8C1041.9,720.7,1042.5,794.9,1043.1,872.3z"/>
			<path class="st2" d="M1081.7,637.4c-5,78-10,156-15,233.9l-1.2-0.1c-0.8,0.1-1.5,0.1-2.3,0.2c-6.7,0.6-13.3,1.1-20,1.7l-0.1-0.8
				c-0.6-77.4-1.2-151.5-1.8-228.9l-0.1-1.8C1054.8,640.8,1068.4,639.5,1081.7,637.4z"/>
			<path class="st2" d="M694.3,327.6l2.8,3c-6,5.4-12,10.8-17.9,16.3l-1.5-1.7c-19.9-97.5-35.8-195.7-47.7-294.5
				c4.6-5.3,9.2-10.6,13.8-15.9C662.9,131.9,672.2,222.7,694.3,327.6z"/>
			<path class="st2" d="M786.5,35.3c34.3,1.6,68.7,3.2,103,4.8c-21.2,23.7-41.4,48.3-60.4,73.8C813.3,93,806.9,52.3,786.5,35.3z"/>
			<path class="st2" d="M900.8,25.2l0.2,2.2c-3.9,4.2-7.7,8.4-11.5,12.7c-34.3-1.6-68.7-3.2-103-4.8c-1.7-1.4-3.5-2.7-5.5-3.8
				l0.3-9.7C821.2,22.9,861,24.1,900.8,25.2z"/>
			<path class="st2" d="M786.5,35.3c-47.8-2.2-95.6-4.4-143.3-6.6c-0.1,0-0.2,0-0.4,0l-6.6-6.1c1-1.1,2-2.2,3-3.3l0.7-1.5
				c47.1,1.4,94.3,2.7,141.4,4.1l-0.3,9.7C783,32.6,784.8,33.8,786.5,35.3z"/>
			<path class="st2" d="M629.9,50.8c-82,94.5-164.1,188.9-246.1,283.4l-0.5,1.4c-4.7-1.9-9.3-3.8-14-5.6l0.4-1.1
				c85.9-104.5,174.8-206.7,266.5-306.2l6.6,6.1c0.1,0,0.2,0,0.4,0l-0.1,2.9c0.2,1.1,0.4,2.2,0.7,3.3
				C639.1,40.1,634.5,45.5,629.9,50.8z"/>
			<path class="st1" d="M672.4,352c4.2,21.1,8.1,42.3,11.7,63.6l-0.9,0.1c-63.1,0.3-126,3.3-188.5,3.6c4.7-8.5,9.6-17,14.7-25.3
				l-3.8-2.6c-39.9-20.4-80.8-39-122.3-55.8l0.5-1.4c82-94.5,164.1-188.9,246.1-283.4c11.9,98.8,27.9,197,47.7,294.5l1.5,1.7
				c-1.8,1.6-3.6,3.3-5.4,4.9L672.4,352z"/>
			<path class="st1" d="M702,326.2c-1.6,1.5-3.3,3-4.9,4.5l-2.8-3c-22.1-104.9-31.4-195.7-50.6-292.8c-0.2-1.1-0.4-2.2-0.7-3.3
				l0.1-2.9c47.8,2.2,95.6,4.4,143.3,6.6c20.4,17,26.8,57.7,42.6,78.6c13.6,17.8,49.8,21.8,71.7,26.5c36.3,7.9,71.3,11.2,108.3,13.7
				s69.7,3.1,99.4,25.4c29.7,22.3,34.7,55.5,21.1,90c-10.8,27.4-55.8,55.2-82,68.7c-87.8,45.2-153.7,69.3-252.2,76.3v0.2
				c-24.9,0.4-49.8,0.8-74.5,0.6l-3.1,0.5c-4.8-29.4-9.7-58.9-14.5-88.3L702,326.2z"/>
			<path class="st2" d="M288.7,724.4l1.6,0.4c-1.2,4.8-1.7,10-1.9,15.2h-0.1c-81.7-41.8-170.8-92.2-248.2-139.3l-2.3,0
				c-0.1-6.3,0.1-12.8,0.8-18.5l10,1.1c-0.2,2.1-0.3,4.2-0.3,6.1C129.9,635.5,205.3,684.3,288.7,724.4z"/>
			<path class="st4" d="M294.9,709.6l1.8,0.6c-3.1,4.3-5.1,9.3-6.4,14.6l-1.6-0.4c-83.4-40.1-158.7-88.9-240.4-134.9
				c0-1.9,0.1-4,0.3-6.1c0.4-4.3,1.2-8.5,1.8-11.5l0.7,0.2C129.9,617.8,212.1,667.2,294.9,709.6z"/>
			<path class="st2" d="M288.3,740L288.3,740c-0.2,6.7,0.3,13.5,0.8,19.9C207,713,120.9,663.5,38.8,616.6c-0.5-4.7-0.9-10.2-1-15.8
				l2.3,0C117.5,647.8,206.6,698.3,288.3,740z"/>
			<path class="st2" d="M341.8,693.5l0.3,11.8c-2.6,0.1-5.5,0.3-9.2,1c-10.7,2.1-21.7,7.4-26.5,17.2c-3.1,6.3-4.3,13.3-4.5,20.5
				c-0.2,12.2,2.6,24.9,4.2,36l-0.9,1.6c-2.2-1.2-4.3-2.4-6.5-3.6c-5-2.8-10-5.5-15.1-8.3l5.4-9.8c-0.6-6.4-1-13.2-0.8-19.9
				c0.2-5.2,0.7-10.4,1.9-15.2c1.3-5.3,3.3-10.3,6.4-14.6c1.8-2.5,4.1-4.8,6.7-6.8c8.6-6.4,19.4-7.7,30.2-8.8
				C336.4,694.2,339.1,693.9,341.8,693.5z"/>
			<path class="st2" d="M289.1,759.9l-5.4,9.8c-0.9-0.5-1.8-1-2.8-1.5c-18.1-9.9-36.4-20-54.8-30.2c-10.6-5.8-21.3-11.7-31.9-17.6
				c-6.6-3.7-13.3-7.3-19.9-11c-48.8-27-97.7-54.1-145-79.9c-9.1,0-7-26.8-6.8-41.1c0.2-14.3-3.9-28.3,6.8-37.8
				c20.8-18.7,64.2-9.8,78.4-34c7.5-12.8,6.3-37,4.2-51.7s-4.3-28.9,6.2-39.4c5.8-0.3,11.5-0.6,17.3-0.8l0.1,1.6
				c-5.1,13.3-6.6,34.4-2,53.8h0.1c-0.2,15.3-4.8,28.9-7.6,42.5c-3.3,16.4-24,24.3-40.5,27.3c-11.3,2.1-27.9-1.3-37.8,4.5
				c-9.4,5.6-7.7,16.5-9,27.3c0,0.2,0,0.3-0.1,0.5c-0.7,5.7-0.9,12.2-0.8,18.5c0.1,5.7,0.4,11.2,1,15.8
				C120.9,663.5,207,713,289.1,759.9z"/>
			<path class="st0" d="M458.8,497.6c12.4,8.1,27.6,16.4,39.9,24.5c-17,1.5-33.9,2.3-50.7,3.2l0-0.9c3.1-9.1,6.5-18.1,10-27.1
				L458.8,497.6z"/>
			<path class="st0" d="M140.2,559.7l4.5,0C218.8,602.4,297.5,642,376,676l0.8,1.7c-7.8,7-17.3,12.2-27.5,14.5
				c-2.4,0.6-4.9,1-7.4,1.3c-2.7,0.4-5.5,0.7-8.2,1l-0.1-0.6c-73.2-40.9-159.8-80-231.2-129.3C114.2,559.3,127.5,557.6,140.2,559.7z
				"/>
			<path class="st1" d="M148,456.3L148,456.3c-0.2,2.1-0.4,4.1-0.6,6.2c-3.3,32.8-4.2,64.1-2.6,97.2l-4.5,0
				c-12.7-2.1-26.1-0.4-37.8,4.9l-1.4,0.7c-15.7,1.2-34.2,2.4-49.9,3.6c-0.2,0.6-0.4,1.7-0.7,3c-0.6,2.9-1.3,7.2-1.8,11.5l-10-1.1
				c0-0.2,0-0.4,0.1-0.5c1.3-10.8-0.3-21.8,9-27.3c9.8-5.9,26.5-2.5,37.8-4.5c16.5-3,37.2-10.9,40.5-27.3
				c2.7-13.6,7.3-27.2,7.6-42.5h-0.1c-4.6-19.5-3.1-40.5,2-53.8l-0.1-1.6c40.6-2,81.3-3.9,121.9-5.9c-1.9,4.3-3.9,8.6-5.8,13
				c-22.5,0.4-52.4,0.9-75.4,1.2c-0.8,0-1.6,0-2.4,0l-0.3,0.5c-1,5.7-3.9,10.9-8,14.9C160.7,452.9,154.5,455.9,148,456.3z"/>
			<path class="st2" d="M598.2,767c-76.3,5.2-152.6,10.7-227.8,14.2c-3,0.1-6,0.3-9,0.4c-6.2,0.3-12.4,0.5-18.6,0.8
				c-5,0.2-9.9,0.4-14.8,0.6c-6.3,0.2-12.6,0.5-18.8,0.6c-1.3-0.7-2.6-1.4-3.8-2.1l0.9-1.6c-1.6-11.1-4.5-23.8-4.2-36
				c75.6-4.4,157.3-8.8,233-13.2c45.9-2.7,92-5.4,137.3-12.4c-0.5,14.7-1,29.4-1.5,44.1l-2.4-0.1C645,763.8,621.6,765.4,598.2,767z"
				/>
			<path class="st2" d="M257.3,418.7c8.1-18,16.2-36,24.3-53.9c8.5-18.9,17.1-37.9,28.4-55.3l1-1.1c19.6,6.8,39,14,58.3,21.6
				c4.7,1.8,9.3,3.7,14,5.6c41.6,16.8,82.4,35.4,122.3,55.8l3.8,2.6c-5.1,8.3-10,16.8-14.7,25.3c-11.3,20.5-21.5,41.5-30.6,63
				c-2.1,5-4.1,10-6.1,15c-3.5,9-6.9,18-10,27.1l0,0.9c-7.8,0.4-15.5,0.9-23.3,1.5l-0.2-2.4c-64.6-22.6-119.1-46.6-179.4-78.7
				c2.1-4.7,4.2-9.4,6.3-14.1C253.4,427.3,255.4,423,257.3,418.7z"/>
			<path class="st2" d="M391.3,585.9c2.4,15.2,7.6,30.2,7.3,45.6c-0.4,17.6-8.9,34.4-21.9,46.1L376,676
				c-78.4-34-157.2-73.6-231.2-116.3c-1.5-33.1-0.6-64.4,2.6-97.2l0.6,0.1c78.2,38,163.8,81.6,242,119.6l0.8-0.1
				C390.9,583.3,391.1,584.7,391.3,585.9z"/>
			<path class="st2" d="M391.3,556.3l1.4,0.2c-2.5,8-2.8,17-1.8,25.6l-0.8,0.1c-78.2-38-163.8-81.6-242-119.6l-0.6-0.1
				c0.2-2.1,0.4-4.1,0.6-6.2v0c6.5-0.4,12.7-3.4,17.3-8l3.1,0.6c65,35.7,134.8,67,204.7,91.9l2.1,0.1c-0.5,2.2-0.7,4.4-0.6,6.6
				C380.5,551.7,385.5,552.2,391.3,556.3z"/>
			<path class="st2" d="M387.6,530l0.2,1.2c-1.1,0.2-2.3,0.4-3.4,0.6c-1.3,0.2-2.6,0.5-3.9,0.7l-1.5,0.8c-1.8,2.3-3,4.9-3.7,7.6
				l-2.1-0.1c-69.9-24.8-139.7-56.1-204.7-91.9l-3.1-0.6c4.1-4,7-9.2,8-14.9l0.3-0.5c0.8,0,1.6,0,2.4,0v0.2
				C247.8,465.9,315.9,497.1,387.6,530z"/>
		</g>
		<g>
			<path class="st5" d="M135.5,426.2c-5.1,13.3-6.6,34.4-2,53.8"/>
			<path class="st5" d="M133.6,476.7c0,1.1,0,2.2,0,3.3c-0.2,15.3-4.8,28.9-7.6,42.5c-3.3,16.4-24,24.3-40.5,27.3
				c-11.3,2.1-27.9-1.3-37.8,4.5c-9.4,5.6-7.7,16.5-9,27.3c0,0.2,0,0.3-0.1,0.5c-0.7,5.7-0.9,12.2-0.8,18.5c0.1,5.7,0.4,11.2,1,15.8
				"/>
			<path class="st5" d="M257.8,418.6c-0.2,0-0.3,0-0.5,0c-40.6,2-81.3,4-121.9,5.9c-5.8,0.3-11.5,0.6-17.3,0.8"/>
			<path class="st5" d="M118.1,425.5c-10.5,10.5-8.3,24.7-6.2,39.4s3.3,38.9-4.2,51.7c-14.2,24.1-57.5,15.3-78.4,34
				c-10.6,9.5-6.5,23.5-6.8,37.8c-0.2,14.3-2.4,41.1,6.8,41.1"/>
			<path class="st5" d="M251.5,431.6c-22.5,0.4-52.4,0.9-75.4,1.2c-0.8,0-1.6,0-2.4,0"/>
			<path class="st5" d="M173.3,433.4c-1,5.7-3.9,10.9-8,14.9c-4.7,4.5-10.8,7.5-17.3,8h0"/>
			<path class="st5" d="M148,456.3c-0.2,2.1-0.4,4.1-0.6,6.2c-3.3,32.8-4.2,64.1-2.6,97.2"/>
			<path class="st5" d="M244.9,446.1c0.1-0.1,0.1-0.3,0.2-0.4c2.1-4.7,4.2-9.4,6.3-14.1c1.9-4.3,3.9-8.6,5.8-13
				c8.1-18,16.2-36,24.3-53.9c8.5-18.9,17.1-37.9,28.4-55.3"/>
			<path class="st5" d="M244.1,445.2c0.3,0.2,0.7,0.4,1,0.5c60.3,32.1,114.8,56.1,179.4,78.7"/>
			<path class="st5" d="M498.7,522.1c-17,1.5-33.9,2.3-50.7,3.2c-7.8,0.4-15.5,0.9-23.3,1.5c-12.4,0.9-24.7,2.3-36.9,4.3
				c-1.1,0.2-2.3,0.4-3.4,0.6c-1.3,0.2-2.6,0.5-3.9,0.7"/>
			<path class="st5" d="M310.9,308.3c19.6,6.8,39,14,58.3,21.6c4.7,1.8,9.3,3.7,14,5.6c41.6,16.8,82.4,35.4,122.3,55.8"/>
			<path class="st5" d="M509.4,394c-5.1,8.3-10,16.8-14.7,25.3c-11.3,20.5-21.5,41.5-30.6,63c-2.1,5-4.1,10-6.1,15
				c-3.5,9-6.9,18-10,27.1"/>
			<path class="st5" d="M458.8,497.6c12.4,8.1,27.6,16.4,39.9,24.5"/>
			<path class="st5" d="M467.2,483.6c7.1,4.5,14.3,8.9,21.5,13.2c21.9,13,44.4,25.2,67.3,36.5c4.3,2.1,8.7,4.2,13,6.3"/>
			<path class="st5" d="M176.1,433c71.7,32.9,139.8,64.1,211.5,96.9"/>
			<path class="st5" d="M168.5,448.9c65,35.7,134.8,67,204.7,91.9"/>
			<path class="st5" d="M379,533.3c-1.8,2.3-3,4.9-3.7,7.6c-0.5,2.2-0.7,4.4-0.6,6.6"/>
			<path class="st5" d="M384.5,532c5.1,5.2,10.8,8.4,16.4,10.4"/>
			<path class="st5" d="M374.7,547.5c5.8,4.2,10.8,4.6,16.5,8.8"/>
			<path class="st5" d="M148,462.5c78.2,38,163.8,81.6,242,119.6"/>
			<path class="st5" d="M400.9,542.4c-3.9,4-6.6,8.9-8.2,14.1c-2.5,8-2.8,17-1.8,25.6c0.1,1.3,0.3,2.6,0.5,3.9
				c2.4,15.2,7.6,30.2,7.3,45.6c-0.4,17.6-8.9,34.4-21.9,46.1c-7.8,7-17.3,12.2-27.5,14.5c-2.4,0.6-4.9,1-7.4,1.3
				c-2.7,0.4-5.5,0.7-8.2,1c-10.9,1.2-21.7,2.4-30.2,8.8c-2.6,2-4.9,4.3-6.7,6.8c-3.1,4.3-5.1,9.3-6.4,14.6
				c-1.2,4.8-1.7,10-1.9,15.2c-0.2,6.7,0.2,13.5,0.8,19.9"/>
			<path class="st5" d="M400.9,542.4c2.8,2.4,6.1,3.8,11.8,7.1v0c0.6,0.4,1.3,0.7,1.9,1.1"/>
			<path class="st5" d="M306.2,780c-1.6-11.1-4.5-23.8-4.2-36c0.1-7.2,1.3-14.1,4.5-20.5c4.8-9.8,15.8-15,26.5-17.2
				c3.7-0.7,6.6-0.9,9.2-1c5-0.1,9,0.2,15.9-1.8c33.2-9.6,62.2-47,58.7-80.8c-2.2-22-26.4-52-2.2-72.1"/>
			<path class="st5" d="M412.8,549.2c51-1.9,100.9-4.9,154.4-8.4"/>
			<path class="st5" d="M29.3,629.5c47.3,25.8,96.2,52.9,145,79.9c6.7,3.7,13.3,7.3,19.9,11c10.7,5.9,21.3,11.8,31.9,17.6
				c18.4,10.2,36.7,20.3,54.8,30.2c0.9,0.5,1.8,1,2.8,1.5c5,2.8,10.1,5.5,15.1,8.3c2.2,1.2,4.4,2.4,6.5,3.6c1.3,0.7,2.6,1.4,3.8,2.1
				"/>
			<path class="st5" d="M38.8,616.6C120.9,663.5,207,713,289.1,759.9"/>
			<path class="st5" d="M40.1,600.8c77.4,47,166.5,97.5,248.2,139.3"/>
			<path class="st5" d="M48.3,589.5c81.6,46,157,94.8,240.4,134.9"/>
			<path class="st5" d="M48.3,589.5c0-1.9,0.1-4,0.3-6.1c0.4-4.3,1.2-8.5,1.8-11.5c0.3-1.3,0.5-2.4,0.7-3"/>
			<path class="st5" d="M101,565.4c-15.7,1.2-34.2,2.4-49.9,3.6"/>
			<path class="st5" d="M102.4,564.6c11.8-5.3,25.1-7,37.8-4.9c1.2,0.2,2.3,0.4,3.5,0.7"/>
			<path class="st5" d="M51.1,572.1c78.8,45.7,161,95.1,243.8,137.5"/>
			<path class="st5" d="M102.4,564.6c71.4,49.3,158,88.4,231.2,129.3"/>
			<path class="st5" d="M144.8,559.7C218.8,602.4,297.5,642,376,676"/>
			<path class="st5" d="M302,743.9c75.6-4.4,157.3-8.8,233-13.2c45.9-2.7,92-5.4,137.3-12.4c24.1-3.7,48-8.6,71.5-15.4
				c55.7-16,108.5-42.1,165.5-52.3c35.7-6.4,72.6-6.5,109-7.9c7.7-0.3,15.3-0.6,23-1.1c13.6-0.9,27.2-2.1,40.5-4.2
				c16.5-2.6,32.8-6.4,48.6-12.3c0.7-0.2,1.3-0.5,1.9-0.7"/>
			<path class="st5" d="M1135.7,457.9c5.8,55,3.8,110.9-6,165.3"/>
			<path class="st5" d="M683.2,415.7c-63.1,0.3-126,3.3-188.5,3.6c-0.1,0-0.2,0-0.3,0"/>
			<path class="st5" d="M567.2,540.8c0.6,0,1.2,0,1.8,0c53.7,0,100.6-1.9,155-10.8c41-7,77-21,118-31c31.3-8.2,62.5-9.9,93.6-10.1
				c33.4-0.2,66.8,1.2,100.4-1.9c31-2,63-4,91-20c3.3-2.2,5.1-5.7,5.2-9.2c0.1-2.8-1-5.6-3.2-7.8c-2-2-4-3-6-4
				c-8.7-3.5-17.3-6.6-25.9-9.4c-21.1-6.9-42.4-12-65.1-15.6c-13-2-25-2-37-4c-11-1-22-1-33-2c-13-1-26,0-39,0
				c-42.3-1.9-85-1-127.6-0.2c-24.9,0.4-49.8,0.8-74.5,0.6"/>
			<path class="st5" d="M556,533.3c43-0.1,89.5-1.6,134.1-8c20.8-3,41.2-7.1,60.6-12.7c1.6-0.5,3.2-0.9,4.8-1.4
				c25.4-7.6,49.9-18.3,75.9-23.5c30-6,61-4.5,91.6-4.2c4.2,0,8.3,0,12.5,0c51-0.2,102-4.2,152.4-11.9c9.5-1.4,20.9-4.6,23.4-14
				c1.9-7.1-3-14.6-9.4-18.2c-1.6-0.9-3.3-1.6-5-2.2c-5.2-1.7-10.9-2.2-16.4-2.6"/>
			<path class="st5" d="M672.4,352C672.4,352,672.4,352,672.4,352c4.2,21.2,8.1,42.4,11.7,63.6c4.2,24.5,8,49.1,11.4,73.7"/>
			<path class="st5" d="M696.7,490.5c-0.2,1.1-0.5,2.1-0.7,3.2c-2.1,9.9-4.2,19.8-6.2,29.7"/>
			<path class="st5" d="M750,510.1c-18-13.3-23-37.7-26.6-59.8c-1.9-11.5-3.8-22.9-5.6-34.4c-4.8-29.4-9.7-58.9-14.5-88.3"/>
			<path class="st5" d="M673.7,351.8c1.8-1.6,3.6-3.3,5.4-4.9c6-5.4,12-10.8,17.9-16.3c1.7-1.5,3.3-3,4.9-4.5c0.6-0.5,1.1-1,1.7-1.5
				"/>
			<path class="st5" d="M639.2,19.3c-1,1.1-2,2.2-3,3.3c-91.7,99.5-180.6,201.7-266.5,306.2"/>
			<path class="st5" d="M383.8,334.1c82-94.5,164.1-188.9,246.1-283.4c4.6-5.3,9.2-10.6,13.8-15.9c0.8-1,1.7-1.9,2.5-2.9"/>
			<path class="st5" d="M629.6,48.6c0.1,0.7,0.2,1.5,0.3,2.2c11.9,98.8,27.9,197,47.7,294.5"/>
			<path class="st5" d="M643,31.5c0.2,1.1,0.4,2.2,0.7,3.3c19.2,97,28.5,187.9,50.6,292.8"/>
			<path class="st5" d="M639.9,17.7c47.1,1.4,94.3,2.7,141.4,4.1c39.8,1.1,79.7,2.3,119.5,3.4"/>
			<path class="st5" d="M642.8,28.6c0.1,0,0.2,0,0.4,0c47.8,2.2,95.6,4.4,143.3,6.6c34.3,1.6,68.7,3.2,103,4.8
				c0.9,0,1.8,0.1,2.7,0.1"/>
			<path class="st5" d="M829.2,113.8c19-25.5,39.2-50.1,60.4-73.8c3.8-4.3,7.6-8.5,11.5-12.7"/>
			<path class="st5" d="M781,31.5c1.9,1.1,3.8,2.3,5.5,3.8c20.4,17,26.8,57.7,42.6,78.6c13.6,17.8,49.8,21.8,71.7,26.5
				c36.3,7.9,71.3,11.2,108.3,13.7s69.7,3.1,99.4,25.4c29.7,22.3,34.7,55.5,21.1,90c-10.8,27.4-55.8,55.2-82,68.7
				c-87.8,45.2-153.7,69.3-252.2,76.3"/>
			<path class="st5" d="M174.3,709.4c0.3,58.5,0.6,113.3,0.9,171.8"/>
			<path class="st5" d="M193.6,721.5c-0.9,55.7-1.8,111.3-2.7,167c0,0.9,0,1.8,0,2.7"/>
			<path class="st5" d="M176.5,881.2c4.2,2.3,8.5,4.7,12.7,7.1c0.1,0,0.1,0,0.1,0.1"/>
			<path class="st5" d="M193.6,888.5c9.1-0.4,18.3-0.9,27.4-1.3c0.2,0,0.5,0,0.7,0c0.1,0,0.2,0,0.3,0c0.5,0,1-0.1,1.5-0.1"/>
			<path class="st5" d="M226.1,738c-1.7,48.1-3.4,101-5.1,149.2c0,0.3,0,0.7,0,1c0.3-0.4,0.5-0.7,0.8-1.1c0.1-0.1,0.2-0.2,0.2-0.3
				c0.6-0.9,1.3-1.7,1.9-2.6"/>
			<path class="st5" d="M277.8,945.3l0,0.4C277.8,945.8,277.8,945.6,277.8,945.3"/>
			<path class="st5" d="M277.8,945.3C277.7,944.6,277.7,945,277.8,945.3L277.8,945.3z"/>
			<path class="st5" d="M281,768.2c-1,59-2.3,118.1-3.2,177.1"/>
			<path class="st5" d="M188.1,899.8c-11.1,1.1-19.9,12.6-18.3,23.5c1.4,9.2,9.9,16.5,19.1,17.3c1.8,0.2,3.6,0.1,5.4-0.3
				c10.9-2.2,19.1-18.6,16.4-29.3"/>
			<path class="st5" d="M199.8,922.8c0.3-3.9-0.7-8.3-1.5-12.7c-0.6-3.1-1-6.2-0.8-9"/>
			<path class="st5" d="M199.8,922.8c2.9-4.4,5.9-8.7,8.8-13.1c2.2-3.3,4.4-6.6,6.6-9.9"/>
			<path class="st5" d="M196.5,899.7c-2,0-4,0-6,0c-0.8,0-1.6,0-2.4,0c-0.1,0-0.1,0-0.2,0"/>
			<path class="st5" d="M215,898.3c2.8-1,5.6-2.1,8.4-3.1c-0.4-2.7-0.9-5.3-1.3-8c0-0.1,0-0.2-0.1-0.3"/>
			<path class="st5" d="M189.2,888.3c0.1,1,0.2,2,0.4,3c0.3,2.8,0.7,5.6,1,8.4c0,0,0,0,0,0"/>
			<path class="st5" d="M252.3,985.3c1.4-10.9,1-19.5,2.5-30.4"/>
			<path class="st5" d="M254.8,954.9c7.8-2.7,15.6-5.4,23.4-8.1c0.3-0.1,0.6-0.2,0.9-0.3"/>
			<path class="st5" d="M267.8,989.4c-1.3-0.3-2.5-0.6-3.8-0.8c-3.9-0.8-7.9-1.4-11.8-1.9c-5.1-0.6-10.2-0.9-15.3-0.9
				c-4,0-8.5,0.4-11.1,3.4c-2.5,2.9-0.9,8.8,2.7,8.8c0.1,0,0.3,0,0.5,0"/>
			<path class="st5" d="M229.3,999.5c15.7-1,31.4-2,47-3"/>
			<path class="st5" d="M284.9,1000.9c-2.7,0.1-5.4,0.3-8,0.5v0c-10,1-19.8,3.3-29.2,6.9c0.8,6.5,7.3,11,13.8,11.7
				c3.6,0.4,7.3-0.2,10.8-1.2v0c2.8-0.8,5.5-1.8,8.1-2.8c5.9-2.3,11.9-4.8,18.3-4.8c0.2,0,0.4,0,0.5,0"/>
			<path class="st5" d="M309,1017.3c-1.2,0.1-2.4,0.3-3.6,0.4c-8.6,1-17.3,2-25.9,3.1c-2.1,0.3-4.3,0.5-6.3,1.1
				c-1.2,0.4-2.4,0.9-3.5,1.5c-2.9,1.8-4.9,5.4-3.8,8.7c1.7,5.2,8.9,5.2,14.3,4.3c6.6-1.1,13.1-2.3,19.7-3.5
				c6.5-1.1,12.9-2.3,19.4-3.4c0.4-0.1,0.9-0.1,1.3-0.2"/>
			<path class="st5" d="M254.8,954.9c23.7,18.2,54.8,39.5,78.4,57.6"/>
			<path class="st5" d="M333.2,1012.5c0.4,0,0.9,0,1.3,0c14.2-0.3,35.5,0.7,51-1.6c0.2,0,0.4,0,0.6-0.1c0,0,0,0,0,0"/>
			<path class="st5" d="M385.5,1009.5c0,0.2,0,0.4,0,0.7c0,0.3,0,0.5,0,0.8c0,11.4-0.1,22.8-0.1,34.2"/>
			<path class="st5" d="M333.6,1013.8c0,1.2-0.1,2.4-0.1,3.6c-0.3,10.2-0.7,20.4-1,30.6"/>
			<path class="st5" d="M299.9,1033.3c8.5,3.8,24.1,10.8,32.7,14.6"/>
			<path class="st5" d="M335,1048c21.5,0,34.6-2.6,50.4-2.8c0.7,0,1.5,0,2.2,0"/>
			<path class="st5" d="M298.6,778.5c-1.5,57-3.3,124-4.8,181.1"/>
			<path class="st5" d="M279.3,946.6c4.4,4.3,9.3,8.7,14.4,13c14.5,12.2,30.5,23.8,41.2,32.3"/>
			<path class="st5" d="M324.1,962.9c2.8-66.1,1.1-112.6,3.9-178.7"/>
			<path class="st5" d="M309.2,783.7c6.3-0.2,12.5-0.4,18.8-0.6c4.9-0.2,9.9-0.4,14.8-0.6c6.2-0.3,12.4-0.5,18.6-0.8
				c3-0.1,6-0.3,9-0.4c75.1-3.5,151.5-9,227.8-14.2c23.4-1.6,46.8-3.2,70.2-4.7"/>
			<path class="st5" d="M672.3,717.2c0,0.4,0,0.8,0,1.1c-0.5,14.7-1,29.4-1.5,44.1c0,1.1-0.1,2.2-0.1,3.3"/>
			<path class="st5" d="M324.1,962.9c-4.8-2.9-11.8-9.2-16.6-12.2c1.7-56.7,1-109.6,1.7-167.1"/>
			<path class="st5" d="M338.4,983.8c-0.5,2.3-0.9,5.2-1.4,8.4c-0.9,6.6-1.6,14.3-2.5,20.3c-0.3,1.8-0.6,3.5-0.9,4.9"/>
			<path class="st5" d="M338.4,983.8c6-66.3,2.3-133.8,4.5-200.1"/>
			<path class="st5" d="M361.6,784.2c-0.5,66.5-1.1,133.1-1.6,199.6"/>
			<path class="st5" d="M361,985.8c12.2,10.4,17.3,16.1,24.5,24.3c0.2,0.2,0.4,0.5,0.6,0.7c0,0,0,0,0.1,0.1"/>
			<path class="st5" d="M269.3,987.2c1.8-3.8,7.4-5,10.6-2.4c3.2,2.6,3.2,8.3-0.1,10.8"/>
			<path class="st5" d="M268.7,988.5c3,2.1,5.9,4.1,8.9,6.2c0.5,0.3,1,0.7,1.5,1.1"/>
			<path class="st5" d="M285.6,1001.3c0.3-0.2,0.7-0.3,1-0.4c2.8-0.9,5.9-0.6,8.4,0.9c2.8,1.7,4.7,4.9,4.8,8.2"/>
			<path class="st5" d="M305.4,1017.6c0.3-3.9,4.2-7,8.1-6.9c3.9,0.1,7.4,3,8.8,6.6c1.4,3.7,0.7,7.9-1.2,11.3"/>
			<path class="st5" d="M307.7,1016.8c0.5,0,1,0,1.4,0.1c5.5,0.8,10.1,6.1,10.1,11.7c0,0.3,0,0.6,0,0.9"/>
			<path class="st5" d="M598.2,766.4c0,0.2,0,0.4,0,0.6c0.4,5.6-0.8,11.4-3.3,16.5"/>
			<path class="st5" d="M594.9,784.1c-0.7,0-1.5,0-2.2,0c-28.7,0-57,15.5-72.4,39.7c-13.2,20.9-16.8,46.3-19.5,70.8
				c-7,62.8-10.8,126-11.4,189.2"/>
			<path class="st5" d="M370.5,781.4c-1.7,3.7-1.8,8.1-0.2,11.8"/>
			<path class="st5" d="M369.4,793.5c0.3,0,0.6,0,0.9,0c12.8-0.1,26.2,0.4,38.7,3c13.5,2.8,25.9,8.3,35.3,18.4
				c17.9,19.5,17.7,49,16.4,75.5c-3.2,63.4-6.8,130.5-10,194"/>
			<path class="st5" d="M450.6,1084.3c11.9,0,23.9,0.1,35.9,0.1c0.5,0,1,0,1.5,0"/>
			<path class="st5" d="M437,1073.3c3.4,3.6,8.4,7.1,12.2,10.7c0.2,0.2,0.3,0.3,0.5,0.5c0.3,0.3,0.5,0.5,0.7,0.8"/>
			<path class="st5" d="M409,796.5c17.1,4.1,24.2,17.9,29.6,34.7c5.4,16.8,4.9,34.7,4.3,52.3c-2,63.3-3.9,126.5-5.9,189.8"/>
			<path class="st5" d="M444.2,1098.9c5.8,3.8,11.7,7.6,17.6,11.4c0.4,0.2,0.7,0.5,1.1,0.7"/>
			<path class="st5" d="M444.2,1098.9c-7.3,6.2-13.4,14.9-10.7,24.2c2.6,9.3,11.3,15.2,20.5,18.2c2.1,0.7,4.2,0.9,6.3,0.9
				c7.5-0.2,14.6-4.9,18.7-12c1.8-3,3.6-12.8,0.5-14.4"/>
			<path class="st5" d="M480.5,1100.3c-3.1,0.3-6.1,1.4-8.7,3.1c-2.6,1.7-4.9,3.9-6.5,6.6c-0.1,0.2-0.2,0.4-0.3,0.6
				c-2.9,5.2-3.3,11.8-1,17.3c0,0,0,0.1,0,0.1"/>
			<path class="st5" d="M464.5,1127.8c4.5-4.6,9.5-8.6,15-11.9c4.6-2.9,9.5-5.2,14.6-7c0.1-0.1,0.3-0.1,0.4-0.2"/>
			<path class="st5" d="M486.5,1086.3c2.2,6.7,4.5,13.5,6.7,20.2"/>
			<path class="st5" d="M449.3,1083.9C449.3,1083.9,449.3,1083.9,449.3,1083.9c-0.7,1.9-1.4,3.7-2.1,5.5c-1.1,2.8-2.1,5.6-3.2,8.4"
				/>
			<path class="st5" d="M467.6,1098.2c-6-2.6-12-5.2-18-7.8"/>
			<path class="st5" d="M461.2,1111.2c-7,0.4-13.2,6.8-13.5,13.8c-0.3,7.1,5.5,13.8,12.5,14.7"/>
			<path class="st5" d="M196.1,910.5c-6.9,0.1-13.3,5.3-15,12c-1.6,6.7,1.7,14.3,7.8,17.5"/>
			<path class="st5" d="M1018.3,643.4c3.6,74.5,4,152.2,7.6,226.7"/>
			<path class="st5" d="M1041.3,643.4c0.6,77.3,1.2,151.5,1.8,228.9"/>
			<path class="st5" d="M1081.8,637c0,0.1,0,0.3,0,0.4c-5,78-10,156-15,233.9c-0.1,1.4-0.2,2.8-0.3,4.1"/>
			<path class="st5" d="M1025.9,870.1c1.8,0.3,3.6,0.7,5.4,1c3.9,0.7,7.8,1.5,11.6,2.2c0,0,0,0,0.1,0"/>
			<path class="st5" d="M1043,873.1c0.1,0,0.1,0,0.2,0c6.7-0.6,13.3-1.1,20-1.7c0.8-0.1,1.5-0.1,2.3-0.2"/>
			<path class="st5" d="M1031,883.9c0,0,0.1,0,0.2,0c0,0,0.1,0,0.1,0c0.5,0,1.7-0.1,3.2-0.2c3.7-0.2,9.5-0.3,13.8,0.4"/>
			<path class="st5" d="M1031.3,871.2c-0.2,2.8,0.2,9.8,0,12.6"/>
			<path class="st5" d="M1063.4,873.3c0.3,3.9,5.6,6.3,5.9,10.2"/>
			<path class="st5" d="M1068.7,885.1c-3.8,3.3-7.6,6.5-11.4,9.8c-2.9,2.5-5.9,5-8.8,7.5"/>
			<path class="st5" d="M1049.4,882.9c0,0.3,0.1,0.6,0.1,1c0.3,3.4,0.2,6.9-0.4,10.3c-0.4,2.4-1,4.7-1.8,7"/>
			<path class="st5" d="M1048.3,894c-8.9,0.6-16.2,10-14.6,18.8"/>
			<path class="st5" d="M1034.6,884.4c-8.5,1.9-13,12.7-9.7,20.8c1.2,3,3.3,5.6,5.8,7.6c4.2,3.4,9.8,5.2,15.3,5.3
				c6,0,12.5-2.2,15.8-7.3c3.3-5.1,1.7-13.2-3.9-15.4"/>
			<path class="st5" d="M486.5,496.8c0.7,0,1.5,0,2.2,0c69.1-1,138.2-2.1,207.3-3.1c0.2,0,0.4,0,0.7,0"/>
		</g>
	</g>
</g>
</svg>
