<?xml version="1.0" encoding="utf-8"?>
<!-- Generator: Adobe Illustrator 23.1.0, SVG Export Plug-In . SVG Version: 6.00 Build 0)  -->
<svg version="1.1" id="Layer_2" xmlns="http://www.w3.org/2000/svg" xmlns:xlink="http://www.w3.org/1999/xlink" x="0px" y="0px"
	 viewBox="0 0 1280 1024" style="enable-background:new 0 0 1280 1024;" xml:space="preserve">
<style type="text/css">
	.st0{fill:#A3A1A1;}
	.st1{fill:#9E7757;}
	.st2{fill:#C19C7A;}
	.st3{fill:#E6E6E6;}
	.st4{fill:#EAEBEC;}
	.st5{fill:#F3E4D5;}
	.st6{fill:none;stroke:#000000;stroke-width:4;stroke-miterlimit:10;}
</style>
<g id="XMLID_1_">
	<g>
		<path class="st0" d="M884.2,302.8c1.7,12,1.9,24.1,0.4,36.1l-0.2,1.7c-10.3-1-20.9-0.1-30,3c0.1-3.1,0.2-6.2,0.2-9.4
			c0.2-12.3,3.1-32.1,5.5-45.5l1.1-1.6c6.5,4.3,15.5,8.6,21.7,12.9c0.7,0.5,1.5,1,2.2,1.5L884.2,302.8z"/>
		<path class="st0" d="M824,479.6c3.5,6.3,8.8,11.3,14.9,15l-0.1,0.1c-0.6,1.9-1.3,3.8-2.5,5.4c-1.3,1.6-3.3,2.7-5.2,2.3
			c-1.4-0.3-2.6-1.3-3.7-2.3c-3.3-2.9-6.5-5.8-9.7-8.7l-1.6-0.7c2-5,4-9.9,6-14.9l1.4,0.5c0.7,0.6,1.5,1.1,2.2,1.7L824,479.6z"/>
		<path class="st0" d="M890,540.8l-0.6,2c-2.4,2.2-4.8,4.4-7.1,6.7c-4.1-3.5-11.1-8.4-15.2-11.9l-0.3-0.1c1.5-3.6,3.1-7.1,4.8-10.6
			l1.7,0.8c0.9,1.1,1.9,2.2,3,3.2c4,3.9,8.8,7.4,14,10.2C890.1,540.8,890.1,540.8,890,540.8z"/>
		<path class="st0" d="M867.5,587.7l-1.8,2.6c-3.3,5.7-6.6,11.4-9.9,17.2l-4.5,0.5c-4.5-2.1-9.2-3.8-14-4.8c-0.9-2.4-2-4.7-3.3-6.9
			l1.3-0.2c2.9-2.8,4.2-6.8,6-10.5c1.8-3.6,4.8-7.3,8.8-7.5c2.9-0.2,5.6,1.4,8.1,3C861.3,583.1,864.5,585.3,867.5,587.7z"/>
		<path class="st0" d="M796.5,569.7c-4.3-2-8.8-3.2-13.6-3.3l-1.8-0.9c3.3-6.5,6.3-13.1,9.2-19.7c1.3-3,2.6-6.1,5.1-8.2l11,0.2
			c3.5,2.2,6.9,4.6,10.2,7.2c0.2,0.2,0.4,0.3,0.6,0.5l-1,1c-4.8,7-11,17-15.2,24.4C799.5,570.5,798,570.1,796.5,569.7z"/>
		<path class="st0" d="M743,722.4l0-0.4c4.5,0.3,9.1,0.1,13.6-0.6l0.1,0.4c0,1,0.1,2,0.2,3c1.1,8.6,5.7,16.5,12.2,22.3l-0.4,0.5
			c-0.4,0.3-0.8,0.6-1.2,0.9c-3.8-3.2-7.2-6.9-10-11l-0.1,0.1c-3.9,0.9-5.6,6.7-9.6,6.8c-1.3,0-2.5-0.6-3.7-1.2
			c-4.2-2.3-8.1-5.1-11.7-8.3l-1.1-1.1C735,729.9,738.9,726.1,743,722.4z"/>
		<path class="st0" d="M705,788.6c-2.8-1.7-6-2.9-9.5-3.7c-3-2.2-6.2-4-9.6-5.3l-1-1c2.2-2.2,4.3-4.3,6.5-6.5c2-2,4.2-4.2,7-4.8
			c4.2-1,8.2,1.6,11.7,4.1c2.6,1.9,5.2,4,7.7,6l-1.5,1.8c-2.7,3-5.3,6.1-7.9,9.1L705,788.6z"/>
		<path class="st0" d="M643.8,725.6c5.9,0.3,10.7,4.7,14.9,8.8c1.5,1.5,2.9,2.9,4.4,4.4l-0.8,0.8c-2.9,2.7-7.8,7.3-10.6,10l-3.1,0.8
			c-5.4-4.4-11.8-7.5-18.7-8.5l-1.4-1.5c5.3-4.6,10.4-9.4,15.3-14.4L643.8,725.6z"/>
		<path class="st0" d="M696.8,681.6c1.8,5.1,4.1,10.1,6.9,14.7c-2.6,4.2-8.5,9.3-13.3,8.2c-4.8-1.1-8.7-4.6-12.1-8.2l-0.3-0.3
			c1-0.9,2-1.8,3-2.7c5-4.2,9.9-8.6,14.7-13L696.8,681.6z"/>
		<path class="st1" d="M813.5,576.5c-4-2.3-8.2-4.1-12.6-5.5c4.2-7.5,10.3-17.4,15.2-24.4l1-1c3,2.4,5.9,5.1,7,8.8
			c1,3.4,0.3,7.1-1.3,10.3c-1.5,3-3.6,5.6-5.7,8.1l-0.5-0.4c-0.8,1-1.6,1.9-2.4,2.8L813.5,576.5z"/>
		<path class="st0" d="M782.5,701.5c22.3-10.9,40.3-31.4,45.6-55.6c4.7-21.1-0.5-44.2-13.8-61.3c-4.8-6.1-10.9-11.6-17.8-14.9
			c1.5,0.4,3,0.8,4.4,1.2c4.4,1.4,8.6,3.3,12.6,5.5c8.4,4.8,15.6,11.6,20.4,19.7c1.3,2.2,2.4,4.5,3.3,6.9c1,2.6,1.8,5.3,2.5,8
			c0.4,1.6,0.7,3.2,1,4.8c1.7,10.8,0.8,22-2.2,32.6c-1.4,4.9-3.2,9.7-5.5,14.2c-9.1,18.4-24.3,33.3-41.6,44.3
			c-1.8,1.2-3.7,2.3-5.6,3.4c-8.6,4.9-17.8,8.8-27.6,10.6c-0.1,0-0.2,0-0.3,0.1c-0.4,0.1-0.8,0.1-1.2,0.2c-4.5,0.7-9.1,0.9-13.6,0.6
			c-7.2-0.5-14.3-2.5-20.6-6.1c-3.2-1.8-6-4-8.6-6.5c-4-3.8-7.3-8.2-10.2-13c-2.8-4.7-5-9.7-6.9-14.7l-1.3-1.3
			c1-0.9,1.9-1.8,2.9-2.7c0.5,0.9,1.1,1.8,1.7,2.7l-0.6,0.4c6.5,14.5,21,24.7,36.6,27.8C751.8,711.7,768.2,708.4,782.5,701.5z"/>
		<path class="st2" d="M924.2,314.3c9.9-7.3,18.7-16.2,25.4-26.5l3.5,0.3c12.3,35.7,16.7,74.2,12.6,111.8c-0.6-0.3-1.3-0.6-2-1
			c-6.9-3.2-13.4-9.4-20.5-6.9c-3.9-17.9-15.7-34-31.6-43.1c-5.7-3.3-12.4-5.7-19.4-7.1l0.1-0.5c0.3-10,2.6-22.3,0.5-31.9
			c-0.8-3.6-4.3-5.9-7.5-8c-0.8-0.5-1.5-1-2.2-1.5c-6.2-4.3-15.2-8.6-21.7-12.9l-1.1,1.6c-2.4,13.3-5.4,33.1-5.5,45.5
			c0,3.2-0.1,6.4-0.2,9.4c-0.1,2.9-0.2,5.7-0.4,8.5c-0.5,8.7-1.4,16.9-2.7,25.1h0c-1.2,7.9-2.8,15.7-4.8,24c-0.6,2.6-1.3,5.2-2,7.9
			c-0.7,2.7-1.4,5.4-2.2,8.1c-2.9,10.1-6.1,20-9.5,29.9c-3.4,9.7-7,19.3-10.8,28.9c-2,5-3.9,10-6,14.9c-1.6,3.9-3.1,7.7-4.7,11.6
			l0.1,0c-0.5,3.7,2.4,7,5.2,9.5c6.8,6.1,14.4,11.4,22.5,15.6l1.5-0.3c5.9-7.5,10.2-16.1,12.6-25.3l0.1-1.5c4.4,1,9,1.5,13.4,1.4
			c6.2-0.1,12.3-1.2,18.1-3.1l0.2,0.8c-4.8,8.9-9.3,18-13.5,27.2c-1.6,3.5-3.2,7.1-4.8,10.6c-1.9,4.3-3.7,8.7-5.4,13l-0.6,0.6
			c7.7,8.6,16.9,16,27,21.6l0.7,0.2c5.2-7.7,9.8-15.9,13.7-24.3l0.7-2.4c5.7,1.7,11.5,2.5,16.9,2.1c4.4-0.3,8.8-1.1,13-2.3l0.3,1.2
			c-15.1,30.7-30.2,61.4-45.3,92.1l-2.1-0.4c-4.8-8-11.4-15.3-18.9-21.2c1.2-3.5,3.9-6.4,6-9.4c2.2-3.2,4.1-7,3.1-10.8
			c-0.8-3-3.2-5.3-5.6-7.3c-1-0.8-2-1.6-3-2.4c-3-2.4-6.1-4.7-9.4-6.8c-2.4-1.6-5.1-3.2-8.1-3c-4,0.3-7,3.9-8.8,7.5
			c-1.8,3.6-3.1,7.7-6,10.5l-1.3,0.2c-4.8-8.1-12-14.9-20.4-19.7l0.8-1.4c0.8-0.9,1.6-1.9,2.4-2.8l0.5,0.4c2.1-2.5,4.2-5.1,5.7-8.1
			c1.5-3.2,2.3-6.9,1.3-10.3c-1.1-3.6-4-6.4-7-8.8c-0.2-0.2-0.4-0.3-0.6-0.5c-3.3-2.6-6.7-5-10.2-7.2l-11-0.2
			c-2.4,2.1-3.8,5.2-5.1,8.2c-2.9,6.7-6,13.3-9.2,19.7c-4.9,9.9-10.3,19.6-16,29c-5.8,9.6-12,18.9-18.6,27.9
			c-1.2,1.7-2.5,3.4-3.8,5.1c-7.5,9.9-15.4,19.5-23.7,28.8c-6.6,7.3-13.5,14.4-20.7,21.3c-1,0.9-1.9,1.8-2.9,2.7
			c-4.8,4.5-9.7,8.8-14.7,13c-1,0.9-2,1.7-3,2.7c-2.3,2.2-4.2,4.7-4.6,7.8c-0.8,6,4.4,10.9,9,14.7c4.7,3.8,10.5,7.8,16.2,5.9
			c7.3-2.5,7.5-7.8,13.8-13.8l1.5-1.2c2.6,2.5,5.5,4.7,8.6,6.5c6.3,3.6,13.4,5.6,20.6,6.1l0,0.4c-4.1,3.7-8,7.5-11.8,11.5
			c-1.4,1.5-2.7,3-4,4.5c-1.5,1.8-3.1,3.8-3.1,6.1c0,3.8,4.1,6.2,7.2,8.4c3.1,2.2,5.6,5.1,8.6,7.5c3,2.3,6.7,4.1,10.5,3.6
			c4.1-0.5,7.4-3.7,10-7c2.3-2.9,4.3-6.1,7-8.5c3.9,3.2,8.2,5.9,12.8,7.9c3.5,1.5,7,2.7,10.7,3.5c-19.7,22.8-40.8,44.3-63.3,64.4
			l-3,0.2c-0.8-8.3-3.3-16.6-7.5-23.5c2.2-4.9,9.2-10.2,8.5-14.6c-0.4-2.4-2.3-4.2-4.2-5.8c-1.2-1.1-2.4-2.1-3.7-3.1
			c-2.5-2.1-5.1-4.1-7.7-6c-3.4-2.5-7.5-5.1-11.7-4.1c-2.8,0.6-5,2.8-7,4.8c-2.2,2.2-4.3,4.3-6.5,6.5c-0.6,0.6-1.2,1.2-1.7,1.7
			c-3.3,3.3-6.6,6.7-10,10l-1.3,0c0.1-11-3.4-22.2-9.9-30.9l2-0.5c2.1-1.2,4.3-2.4,5.9-4.2c1.6-1.8,2.5-4.5,1.6-6.7
			c-0.5-1.4-1.6-2.5-2.7-3.6c-1.9-1.9-3.8-3.8-5.7-5.7c-1.5-1.4-2.9-2.9-4.4-4.4c-4.2-4.1-9-8.5-14.9-8.8l0,0.5
			c-5,5-10.1,9.8-15.3,14.4c-1.5,1.3-3.1,2.7-4.6,4c-6.3,5.4-12.9,10.5-19.6,15.4c-10.2,7.5-20.7,14.5-31.5,21.1
			c-2.7,1.6-5.4,3.3-8.2,4.9c-5.3,3.1-10.6,6.1-15.9,9.1c-10.5,5.8-21.3,11.4-32.1,16.8c-9.1,4.6-18.2,9-27.3,13.4
			c-4.6,2.2-9.3,4.5-13.9,6.7l0.1,1.3c5.3,4.9,10.5,9.9,15.8,14.8c2.9,2.7,5.9,5.5,9.6,6.8c4.3,1.4,9,0.7,13.1-1.1
			c4.1-1.8,9-7.2,12.5-10c4.5,4.4,9.8,7.9,15.2,11.3c0.9,0.6,1.8,1.1,2.7,1.7c1.8,1.1,3.6,2.2,5.4,3.3l-0.5,0.8
			c-2.3,0.9-4.5,1.7-6.4,3.3c-1.9,1.5-3.3,3.8-3.2,6.2c0.1,2.8,2.2,5.1,4.3,7c2.9,2.8,5.8,5.4,8.9,7.9c3.1,2.5,6.4,5.1,10.3,5.8
			c7.4,1.5,14.5-3.5,20.4-8.3l1-0.7c6,9,15.1,15.9,25.3,20.2l-0.6,1.5c-35,16.3-72.2,27.9-110.3,34.3l-1.9-1.1
			c5.6-9,8.3-19,8.3-29.5l2.8,0c7.6-2.5,21.2-4.8,29.4-9.6c-4.2-3.5-9.6-7-15-10.5c-6-3.8-12.1-7.6-16.8-11.5
			c-5.2,1.1-11.4,2.2-18,3.2c-15.3,2.3-32.6,4.4-44.9,7l-1.1-0.4c1.3-3.8,2.2-7.6,2.7-11.3l1.5,0.2c10-4.7,18.3-4.4,28.2-9.1
			c-4.4-4.1-7.9-8.3-11.5-12.5h0c-3.6-4.3-7.2-8.5-11.6-12.6c-8.4,2.2-16.8,4.1-25.3,5.6c-8.9,1.6-17.8,2.8-26.7,3.7
			c-11.7,1.1-23.4,1.7-35.2,1.6c-3.1,0-6.2-0.1-9.3-0.2c-4.6-0.2-9.2-0.4-13.9-0.8c-3.6-0.3-7.2-0.6-10.9-1
			c-9.7-1-19.3-2.5-28.8-4.4c-4.7-2.5-9.6-5.3-14.5-8.3c20.3,10.1,46.2,9.8,68.8,5.3C487.7,815.9,609.6,741.4,696,637.6
			c86.4-103.8,137.1-236.1,145.9-370.9c2.8-43.7-16.4-83.4-39.1-120.7l2.8-1.1c3.9,4.5,7.7,9.1,11.2,13.9
			c13.2,17.9,23.4,37.9,30.3,59c2.5,7.6,4.5,15.3,6.1,23.1l-0.6,1.6c1.9,3.1,4.1,5.9,6.5,8.6c1.2,1.3,2.5,2.6,3.8,3.9
			c1.6,1.5,3.4,3,5.2,4.4c5.4,4.1,11.4,7.4,17.8,9.6l0.3-0.3c1.5-4.1,1.3-8.9-0.6-12.8l-1-1.9c1.6-0.8,3.1-1.8,4.6-2.7l1.2,1.7
			c2.2,7.5,4.4,15,6.7,22.5h0c1.9,6.6,3.9,13.1,5.8,19.7l0.2,1.6c3.2,3.6,6.7,6.9,10.4,10c1.7,1.5,3.5,2.9,5.4,4.2
			c1.7,1.3,3.4,2.5,5.2,3.6L924.2,314.3z"/>
		<path class="st0" d="M753,456.4c4.2-4.9,10.3-8.2,16.7-9.2l0,0.2c3,0.3,5.6,2.4,7.2,4.9c1.6,2.5,2.4,5.5,3.2,8.4
			c0.9,3.4,1.8,6.8,2,10.4c0.1,3.5-0.7,7.2-2.9,10c-2.4,3-6.1,4.6-9.8,5.9c-6,2.2-13.4,3.6-18.4-0.4c-3.5-2.8-4.8-7.5-4.8-12
			C746.2,468,748.7,461.4,753,456.4z M767.7,468.1c3.2-2.2,3.1-7.8-0.2-9.9c-3.8-1-9.5,2.1-8.8,6C759.3,468,764.4,470.3,767.7,468.1
			z"/>
		<path class="st3" d="M767.7,468.1c-3.2,2.2-8.4,0-9.1-3.9c-0.6-3.9,5.1-7,8.8-6C770.8,460.2,770.9,465.9,767.7,468.1z"/>
		<path class="st3" d="M705,562.3c2.9,1.7,4,5.8,2.5,8.8c-1.6,3-5.6,4.3-8.6,2.9c-3-1.4-4.6-5.3-3.4-8.5
			C696.7,562.4,701.8,561.2,705,562.3z"/>
		<path class="st0" d="M707.5,571c1.6-3,0.4-7.1-2.5-8.8c-3.2-1.1-8.3,0.1-9.5,3.2c-1.2,3.1,0.3,7.1,3.4,8.5
			C701.9,575.3,705.9,574,707.5,571z M681.8,577.3c0.2-6.7,3.2-13.2,8.2-17.6c2.8-2.5,6.2-4.3,9.8-5.3l9.4,0.2
			c4.8,1,8.8,4.9,10.5,9.5c1.8,4.6,1.5,9.8,0,14.5c-2.2,7.1-7.4,13.6-14.4,16.1c-7,2.6-15.7,0.7-20.2-5.3
			C682.7,585.9,681.6,581.5,681.8,577.3z"/>
		<path class="st3" d="M795.3,171.9c4.8,0,6.1,2.3,6.3,5.1s-2.4,5.8-5.1,5c-1.9-0.6-2.9-2.6-2.9-4.6
			C793.7,175.5,794.5,173.7,795.3,171.9z"/>
		<path class="st3" d="M613.4,668c-1.9-1.4-1.6-4.3-0.7-6.5c0.6-1.5,1.5-3,2.8-3.8c0.9-0.5,2.1-0.6,3-0.2c2.1-0.1,3.8,2.2,3.8,4.3
			c-0.1,2.2-1.5,4.1-3.2,5.4C617.5,668.4,615.1,669.2,613.4,668z"/>
		<path class="st3" d="M526.9,728.8c2.3-1,4.9,1.5,4.8,3.9c-0.1,2.5-2,4.5-4,5.9c-2,1.4-4.8,2.4-6.8,1.1c-2.3-1.4-2.4-5-0.8-7.1
			C521.7,730.5,524.4,729.5,526.9,728.8L526.9,728.8z"/>
		<path class="st3" d="M428.4,785.8c1.6-2.1,4-3.4,6.3-4.5l0.2,0.4c2.3-1.2,5.4,0.9,5.8,3.5c0.4,2.7-1.4,5.4-3.5,7.1
			c-2.6,2.1-6.7,3.1-9,0.7C426.4,791.1,426.8,787.9,428.4,785.8z"/>
		<path class="st3" d="M320.5,814.6c-0.4-1.5,0.4-3,1.5-4.1c1.9-2,4.4-3.4,7.1-3.8l0.2,1.1c1.4-0.6,3.2,0.3,3.8,1.8
			c0.6,1.6-0.1,3.4-1.3,4.6c-1.2,1.2-2.8,1.8-4.4,2.3c-1.3,0.4-2.6,0.7-3.9,0.5C322.1,816.7,320.8,815.9,320.5,814.6z"/>
		<path class="st0" d="M520.1,732.6c-1.6,2.2-1.5,5.7,0.8,7.1c2.1,1.3,4.8,0.3,6.8-1.1c2-1.4,3.9-3.5,4-5.9c0.1-2.5-2.5-5-4.8-3.9
			l0,0.1C524.4,729.5,521.7,730.5,520.1,732.6z M507.3,733.6c4.4-6.8,11.8-11.5,19.7-12.6l0,0.2c7.1,2.5,15.1,5.7,17.7,12.7
			c2.4,6.5-0.8,13.8-5.3,19.1c-3.7,4.4-8.5,8-14,9.5c-5.5,1.5-11.8,0.7-16.3-3c-3.7-3-5.7-7.8-5.9-12.5
			C503.1,742.3,504.7,737.6,507.3,733.6z"/>
		<path class="st0" d="M434.7,781.2c-2.3,1.2-4.8,2.4-6.3,4.5c-1.6,2.1-2,5.3-0.2,7.2c2.3,2.4,6.4,1.4,9-0.7
			c2.2-1.7,3.9-4.4,3.5-7.1c-0.4-2.6-3.5-4.7-5.8-3.5L434.7,781.2z M452.1,785.3c1.4,6-0.8,12.5-5,17.1c-4.1,4.6-9.9,7.4-15.9,9
			c-3.5,0.9-7.3,1.4-10.9,0.7s-7.1-2.6-9-5.8c-2.8-4.7-1.6-10.9,1-15.7c4.4-8.2,12.5-14.2,21.4-16.3l5.1,0
			C445,774.2,450.6,779.3,452.1,785.3z"/>
		<path class="st0" d="M323.4,817c1.3,0.2,2.6-0.1,3.9-0.5c1.6-0.5,3.2-1.1,4.4-2.3c1.2-1.2,1.9-3,1.3-4.6c-0.5-1.5-2.4-2.4-3.8-1.8
			l-0.2-1.1c-2.7,0.4-5.3,1.8-7.1,3.8c-1,1.1-1.9,2.6-1.5,4.1C320.8,815.9,322.1,816.7,323.4,817z M343.5,809.7
			c0.8,3.8-1.7,7.5-4.4,10.1c-6,5.8-14.3,9.3-22.7,9.5c-4.7,0.1-10-1.1-12.5-5.1c-1.8-2.8-1.8-6.4-0.7-9.5c1.2-3.1,3.4-5.7,6-7.8
			c5.5-4.5,12.7-7.1,19.9-7.2l0,1.5c3,0.3,6,0.6,8.7,1.8C340.5,804.5,343,806.8,343.5,809.7z"/>
		<path class="st0" d="M612.7,661.5c-0.9,2.2-1.2,5.1,0.7,6.5c1.7,1.2,4,0.4,5.7-0.8c1.7-1.3,3.2-3.2,3.2-5.4
			c0.1-2.1-1.6-4.4-3.8-4.3c-1-0.4-2.1-0.3-3,0.2C614.1,658.5,613.3,660,612.7,661.5z M601.1,658.9c3.5-4.8,8.7-8.2,14.4-9.7
			l0.1,0.4c6.1-0.8,12.4,2.8,15.4,8.2c3,5.4,2.8,12.3,0.2,17.9c-2.6,5.6-7.4,10-12.8,12.9c-4,2.1-8.8,3.4-13,1.9
			c-5.2-1.8-8.2-7.4-9-12.9C595.5,671.2,597.2,664.3,601.1,658.9z"/>
		<path class="st0" d="M794.8,355.1c-1.4,2.4-1.3,6,1,7.6c2.4,1.7,5.8,0.5,7.9-1.5c1.7-1.6,2.9-3.9,2.9-6.2c0-2.4-1.5-4.7-3.7-5.5
			l-1.8,0.1C798.7,351.1,796.2,352.7,794.8,355.1z M815.3,356.7c0.8,6-0.2,12.4-3.5,17.5c-3.3,5.1-9.1,8.8-15.2,8.8
			c-6.1,0.1-12.3-3.8-14.3-9.5c-1-2.9-1-6-0.5-9c1-6.1,4.1-12,8.9-15.9c4.2-3.5,9.6-5.4,15-5.1l0,0.6c2.8,0.4,5.3,2.2,6.9,4.6
			C814.1,351.1,814.9,353.9,815.3,356.7z"/>
		<path class="st0" d="M814.8,263.3c1.2-1.8,2.1-3.9,1.8-6c-0.2-1.4-1.1-2.9-2.3-3.6l-2.3,0.1c-1.6-1.1-3.9-0.5-5.2,0.9
			c-1.3,1.4-1.8,3.4-2,5.2c-0.2,2.6,0.4,5.7,2.8,6.7C810.2,267.8,813.2,265.7,814.8,263.3z M819,247c5.7,3.9,9.4,10.5,9.7,17.4
			c0.3,7.3-3.5,14.7-9.5,18.9c-3.4,2.4-7.8,3.7-11.8,2.7c-3.5-0.9-6.3-3.3-8.6-6.1c-2.8-3.6-4.8-7.8-5.3-12.3
			c-0.6-5.9,1.6-12.1,5.9-16.2c3.5-3.4,8.3-5.4,13.2-5.6l0.2,7.1l-0.4,0.4c0.1,0,0.3,0,0.4,0l0-0.4L819,247z"/>
		<path class="st0" d="M801.7,177c-0.2-2.8-1.6-5.1-6.3-5.1c-0.8,1.8-1.7,3.6-1.7,5.5c0,1.9,1,4,2.9,4.6
			C799.3,182.8,801.9,179.8,801.7,177z M786.5,175.3c1.4-6.5,6.5-12.1,13-13.6l0.1-0.3c5,1,8.9,5.5,10.4,10.4
			c1.5,5.1,0.8,10.6-0.4,15.7c-0.9,3.9-2.6,8.1-6.2,9.6c-3.9,1.6-8.3-0.6-11.3-3.6C787.4,188.8,785.1,181.8,786.5,175.3z"/>
		<path class="st4" d="M942.5,445.6c0.1,10.4-0.8,21-4.4,30.7c-3.6,9.7-10.2,18.7-19.3,23.6c-9.1,4.9-21,5.3-29.7-0.5l-0.7-1.8
			c8.8-3.3,17.2-8.1,24.7-13.8c9.4-7.1,17.9-15.7,23-26.3c1.9-3.9,3.3-8.1,4.3-12.3L942.5,445.6z"/>
		<path class="st4" d="M309.5,901l-2,1c-1.9-2.8-3.6-5.7-5.2-8.6c0,0,0,0,0-0.1c-7-15.4-8.1-33.7-1.3-48.4
			c9.5,1.9,19.1,3.4,28.8,4.4c-8.3,14.1-4.2,33.9,8.6,44.1c12.8,10.2,32.5,10.1,45.7,0.4c13.2-9.7,19.1-27.9,15-43.8l0-0.4
			c8.9-0.9,17.9-2.1,26.7-3.7l0.4,2c2.5,14.8,6,28.3-2.9,40.4c-8.9,12.1-22.5,25.2-36.6,30c-20.9,7.2-49.1,6.4-67-6.6
			C315.7,908.9,312.3,905.3,309.5,901z"/>
		<path class="st1" d="M537.3,897.8c-8.2,4.8-21.8,7.1-29.4,9.6l-2.8,0c0-5-0.7-10-2-15.2c5.4-1.4,13.7-3.5,19-4.9
			C527.7,890.8,533.1,894.3,537.3,897.8z"/>
		<path class="st1" d="M869.9,258.6c2.2-0.4,4.4-0.8,6.6-1.2c2.8-0.9,5.5-2.1,8-3.4l1,1.9c1.8,4,2,8.7,0.6,12.8l-0.3,0.3
			c-6.4-2.2-12.4-5.5-17.8-9.6L869.9,258.6z"/>
		<path class="st0" d="M542.4,853.7c34.9,8.5,74.3-5.4,96.2-33.9c9.2-12,15.5-26.9,13.9-41.9s-12.5-29.5-27.4-31.9l-1.3-1.5
			c1.6-1.3,3.1-2.7,4.6-4l1.4,1.5c6.9,1,13.3,4,18.7,8.5c6.1,5,10.8,11.8,13.4,19.3c4.9,14.1,2.8,30-3.9,43.3
			c-6.7,13.3-17.6,24.2-29.8,32.7c-21.4,14.9-49,23-74,15.8l-0.5,0.8c-1.4-0.8-2.7-1.6-4.1-2.4c-1.8-1.1-3.6-2.2-5.4-3.3
			c-0.9-0.6-1.8-1.1-2.7-1.7L542.4,853.7z"/>
		<path class="st4" d="M765.1,594.6c5.8-9.5,11.1-19.1,16-29l1.8,0.9c4.8,0,9.3,1.3,13.6,3.3c-2.2-0.5-4.5-0.9-6.7-1.2l-0.3,2.1
			c17.6,7.4,29.9,26.1,31.6,45.4c1.9,21.7-7.9,43.3-22.8,59.2c-13.2,14.2-31.1,24.8-50.5,26.2c-18.2,1.4-37.4-6.3-47.8-21.1
			c-0.6-0.9-1.2-1.7-1.7-2.7c7.2-6.8,14.1-13.9,20.7-21.3l1.2,1.1c3.9,10.4,14.8,17.2,25.9,17.8c11.1,0.7,22-4,30.5-11
			c11.7-9.6,19.8-24.5,18.3-39.6s-14-29.2-29.1-29.6L765.1,594.6z"/>
		<path class="st0" d="M853.2,489.8c8.3,1.5,16.9,1.4,25.2-0.3c19-4,36-16.9,45-34.2c4.9-9.5,7.5-20,9.6-30.5
			c1.9-9.6,3.5-19.5,1.9-29.1c-2.1-12.7-9.7-23.9-19.5-32.4c-0.9-0.8-1.9-1.6-2.9-2.4c-8-6.3-17.4-11.1-27.4-13
			c-10-1.9-20.8-0.7-29.7,4.1L854,352c0.2-2.8,0.3-5.6,0.4-8.5c9-3.1,19.6-4,30-3c2.6,0.3,5.2,0.7,7.8,1.2c7,1.4,13.7,3.8,19.4,7.1
			c15.9,9.1,27.7,25.2,31.6,43.1c0.1,0.2,0.1,0.5,0.1,0.7c0.2,0.8,0.3,1.6,0.4,2.3c0.3,2,0.6,4,0.8,6c0.9,10-0.2,20.2-1.6,30.2
			c-0.7,4.7-1.5,9.4-2.6,13.9c-1.1,4.2-2.4,8.4-4.3,12.3c-5.1,10.6-13.6,19.3-23,26.3c-7.5,5.7-15.9,10.6-24.7,13.8
			c-1.2,0.4-2.3,0.8-3.5,1.2c-5.9,1.9-11.9,3-18.1,3.1c-4.5,0.1-9-0.4-13.4-1.4c-5.1-1.2-10-3.2-14.4-5.8c-6.1-3.7-11.4-8.7-14.9-15
			l1.6-1.5C833.7,484,843.3,488,853.2,489.8z"/>
		<path class="st4" d="M902.8,295.1c-1.9-6.6-3.9-13.1-5.8-19.7l3.1-0.9c7.6-5.3,13.2-13.4,15.4-22.4c2.2-9,1-18.8-3.4-27l-1.2-0.5
			c1.6-3.7,2.8-7.5,3.6-11.3c1.6-7.3,1.8-14.8,1-22.3l1.2-0.1c0.8,0.7,1.7,1.5,2.4,2.3l0,0c16.1,14.3,25.3,36.1,24.4,57.7
			c-1,21.6-12.1,42.4-29.4,55.3l-0.7,0.8c-3.7-3.1-7.2-6.4-10.4-10L902.8,295.1z"/>
		<path class="st0" d="M371.8,862.6c0.2,4.5-2.8,9-7,10.5c-4.3,1.5-9.4,0-12.1-3.6c-2-2.7-2.5-6.9,0-9.1l0.8-1.2
			c-3.7-3.2-8.2-5.7-12.9-7l0.1-1.8c4.6,0.4,9.2,0.6,13.9,0.8c3.1,0.1,6.2,0.2,9.3,0.2l0,1.5C368.2,853.9,371.6,858,371.8,862.6z"/>
		<path class="st0" d="M572.1,792.6c-2.2-1.4-4.3-3-6.2-4.7l-1.2-2.1c2.7-1.6,5.5-3.3,8.2-4.9l0.5,0.9c0.8,1.5,1.9,2.9,3.2,4.1
			c2.1,2,4.6,3.5,7.4,4.4l0,1c-0.4,2-1.5,3.8-2.9,5.1l-1.8-0.3C576.6,795.2,574.3,794,572.1,792.6z"/>
		<path class="st1" d="M884.6,338.9c1.4-12,1.3-24.2-0.4-36.1l1.1-1.4c3.3,2.1,6.7,4.4,7.5,8c2.1,9.5-0.2,21.8-0.5,31.9l-0.1,0.5
			c-2.6-0.5-5.2-0.9-7.8-1.2L884.6,338.9z"/>
		<path class="st1" d="M870.5,590.2c2.4,2,4.8,4.3,5.6,7.3c1,3.7-0.9,7.6-3.1,10.8c-2.2,3-4.8,5.9-6,9.4c-4.9-3.8-10.2-7.1-15.7-9.7
			l4.5-0.5c3.3-5.7,6.6-11.4,9.9-17.2l1.8-2.6C868.5,588.5,869.5,589.3,870.5,590.2z"/>
		<path class="st5" d="M631,658c-3-5.4-9.3-9.1-15.4-8.2l-0.1-0.4c-5.7,1.4-10.9,4.9-14.4,9.7c-3.9,5.3-5.7,12.2-4.8,18.8
			c0.8,5.5,3.8,11.1,9,12.9c4.3,1.5,9,0.2,13-1.9c5.5-2.9,10.3-7.3,12.8-12.9C633.8,670.2,634,663.4,631,658z M779.2,481
			c2.2-2.8,3-6.4,2.9-10c-0.1-3.5-1-7-2-10.4c-0.8-2.9-1.6-5.9-3.2-8.4c-1.6-2.5-4.2-4.6-7.2-4.9l0-0.2c-6.4,1-12.4,4.3-16.7,9.2
			c-4.3,5-6.8,11.6-6.8,18.1c0,4.5,1.3,9.2,4.8,12c5,4,12.4,2.6,18.4,0.4C773.1,485.7,776.8,484.1,779.2,481z M709.2,554.5l-9.4-0.2
			c-3.6,1-7,2.8-9.8,5.3c-5,4.5-8,11-8.2,17.6c-0.1,4.2,0.9,8.6,3.5,12c4.5,6,13.2,7.9,20.2,5.3c7-2.6,12.2-9,14.4-16.1
			c1.4-4.7,1.7-9.9,0-14.5C718,559.4,714,555.5,709.2,554.5z M805.7,343.6c-5.4-0.3-10.8,1.7-15,5.1c-4.8,4-7.9,9.8-8.9,15.9
			c-0.5,3-0.5,6.1,0.5,9c2,5.8,8.2,9.6,14.3,9.5c6.1-0.1,11.9-3.7,15.2-8.8c3.3-5.1,4.4-11.5,3.5-17.5c-0.4-2.8-1.1-5.6-2.7-8
			c-1.6-2.4-4.1-4.2-6.9-4.6L805.7,343.6z M812.7,245.7c-4.9,0.2-9.7,2.2-13.2,5.6c-4.3,4.2-6.5,10.3-5.9,16.2
			c0.5,4.5,2.5,8.8,5.3,12.3c2.2,2.8,5.1,5.3,8.6,6.1c4,1,8.4-0.3,11.8-2.7c6.1-4.1,9.8-11.5,9.5-18.9c-0.2-6.9-4-13.5-9.7-17.4
			l-6.2,5.8L812.7,245.7z M809.9,171.9c-1.5-4.9-5.4-9.4-10.4-10.4l-0.1,0.3c-6.4,1.5-11.6,7.1-13,13.6c-1.4,6.5,0.9,13.5,5.5,18.3
			c2.9,3,7.4,5.2,11.3,3.6c3.7-1.5,5.3-5.8,6.2-9.6C810.7,182.4,811.4,176.9,809.9,171.9z M337.8,803.3c-2.7-1.2-5.7-1.5-8.7-1.8
			l0-1.5c-7.2,0.1-14.3,2.6-19.9,7.2c-2.5,2.1-4.8,4.7-6,7.8c-1.2,3.1-1.1,6.8,0.7,9.5c2.5,4,7.8,5.2,12.5,5.1
			c8.4-0.2,16.7-3.7,22.7-9.5c2.8-2.7,5.2-6.4,4.4-10.1C343,806.8,340.5,804.5,337.8,803.3z M527,721c-8,1.1-15.3,5.8-19.7,12.6
			c-2.6,4-4.2,8.7-4,13.5c0.2,4.8,2.3,9.5,5.9,12.5c4.4,3.7,10.8,4.5,16.3,3c5.5-1.5,10.3-5.2,14-9.5c4.5-5.3,7.7-12.6,5.3-19.1
			c-2.6-7-10.6-10.3-17.7-12.7L527,721z M438.9,774.3l-5.1,0c-9,2.1-17.1,8.2-21.4,16.3c-2.6,4.8-3.9,11-1,15.7
			c1.9,3.1,5.4,5.1,9,5.8s7.3,0.2,10.9-0.7c6-1.5,11.8-4.4,15.9-9c4.1-4.6,6.4-11.1,5-17.1C450.6,779.3,445,774.2,438.9,774.3z
			 M276.5,830.4c-22.5-14.5-45.6-32.8-62-51.4l0.4-0.7c24.7,13.2,54.2,12.1,85.3,11.2c39.7-1.1,78.1-14.4,114.2-31
			c176.3-80.7,310.9-246.8,353.4-436c11.7-52.2,16.6-107.5,0.9-158.6c-10.3-33.4-30.9-64.7-58.5-85.6c31.6,19.3,59.3,42.8,89.3,64.4
			c0.7,0.5,1.5,1.1,2.2,1.6c0.3,0.6,0.7,1.1,1,1.7c22.8,37.4,42,77,39.1,120.7c-8.8,134.8-59.5,267-145.9,370.9
			c-86.3,103.8-208.2,178.3-340.7,204.4c-22.6,4.4-48.4,4.8-68.8-5.3c0,0-0.1,0-0.1,0C283.1,834.6,279.8,832.5,276.5,830.4z"/>
		<path class="st0" d="M579.4,871.7c-9-0.9-17.5-4.7-25.6-9.3l0.5-0.8c25.1,7.3,52.6-0.9,74-15.8c12.2-8.5,23.1-19.4,29.8-32.7
			c6.7-13.3,8.8-29.3,3.9-43.3c-2.6-7.5-7.3-14.3-13.4-19.3l3.1-0.8c4,2.7,7.4,6,10.3,9.9c6.5,8.7,10,19.9,9.9,30.9
			c0,0.2,0,0.4,0,0.6c-0.4,16.8-8.4,32.9-19.9,45.2c-11.5,12.3-26.2,21.2-41.5,28.3c-6.7,3.1-13.7,5.9-21,7c-2,0.3-4,0.5-6,0.5
			C582.1,871.8,580.8,871.8,579.4,871.7z"/>
		<path class="st4" d="M565.8,787.9c1.9,1.7,4,3.3,6.2,4.7l-0.1,1.2c-2.3,2.8-2.1,7.1,0.1,10c2.2,2.9,6,4.2,9.6,3.7
			c3.6-0.5,6.8-2.7,8.9-5.6c2.7-3.7,3.6-8.7,1.7-12.8c-1.9-4.1-7.1-6.6-11.3-4.9l-0.9,0.1c0,0,0,0,0,0c-0.8,0-1.7,0.6-1.9,1.4
			l-1.6,0.3c-1.2-1.2-2.3-2.6-3.2-4.1l-0.5-0.9c10.8-6.6,21.3-13.6,31.5-21.1c11.8,6.1,16.4,21.8,12.4,34.4
			c-4,12.7-14.9,22.2-26.9,27.8c-6.7,3.1-14.1,5.3-21.5,4.8c-7.4-0.5-14.8-3.9-19-9.9c-4.2-6.1-4.6-15,0.1-20.7l-0.7-1.3
			c5.4-3,10.7-6,15.9-9.1L565.8,787.9z"/>
		<path class="st4" d="M442.7,886c12.3-2.7,29.6-4.7,44.9-7l0.3,1.9c0.7,1.5,1.3,3.1,1.7,4.6c5.4,20-10.9,44.5-31.3,55.6
			c-21.6,11.8-52.9,9.5-74.2-3.1l-0.3-2.6c12-1.4,23.1-4.6,29.7-9.8c11.1-8.6,22.8-23.9,28.2-40L442.7,886z"/>
		<path class="st0" d="M402.8,960.7c9.7,3.2,42.2-0.4,52.2-2.6c28.9-6.4,52.6-43.3,38.8-67l-0.5,0.1c-0.5-2.3-1.4-4.3-2.7-5.8
			l-1.1,0.1c-0.4-1.6-1-3.1-1.7-4.6l-0.3-1.9c6.6-1,12.7-2,18-3.2c4.7,3.9,10.8,7.7,16.8,11.5c-5.3,1.4-13.7,3.5-19,4.9
			c1.3,5.1,1.9,10.2,2,15.2c0.1,10.5-2.7,20.5-8.3,29.5c-2.2,3.5-4.8,6.8-7.8,9.9c-14.8,15.3-35.7,23.6-56.8,26
			c-10,1.2-20.4,1-29.8-2.8c-9.3-3.8-17.4-17.5-18.9-27.4C386.4,951.2,394.1,957.8,402.8,960.7z"/>
		<path class="st1" d="M542.8,864c1.9-1.5,4.2-2.4,6.4-3.3l0.5-0.8c1.4,0.8,2.7,1.6,4.1,2.4c8.1,4.6,16.6,8.4,25.6,9.3l-0.1,0.5
			c1.3,3.5,3,6.8,5,9.9l-1,0.7c-5.9,4.7-13,9.8-20.4,8.3c-3.9-0.8-7.3-3.3-10.3-5.8c-3-2.5-6-5.2-8.9-7.9c-2-2-4.1-4.2-4.3-7
			C539.5,867.8,540.9,865.5,542.8,864z"/>
		<path class="st0" d="M867.3,664.6c1.7-18.8-8.8-39.1-24.8-49l-1.9,0.3c-0.3-1.6-0.6-3.2-1-4.8l0.3-0.1c1.2,0.4,2.4,0.8,3.6,1.3
			c11.1,4.4,20.8,12.2,27.3,22.2c7.1,11.1,10,25,7.3,37.9c-2.8,13.3-5.8,26.7-14.4,37.2c-13.3,16.2-24.8,29.6-47,38.6
			c-7.7,3.1-21.9,4.8-30.1,3c-13.3-2.9-22.2-15-29.6-26.5c-0.1-1-0.2-2-0.2-3l-0.1-0.4c0.4-0.1,0.8-0.1,1.2-0.2c0.1,0,0.2,0,0.3-0.1
			l0.3,1.3c8.5,14,26.9,20,43.1,17.2c16.2-2.8,30.3-13,41.4-25C855.7,700.8,865.7,683.5,867.3,664.6z"/>
		<path class="st1" d="M867.1,537.5c4.1,3.5,11.1,8.4,15.2,11.9c2.4-2.2,4.8-4.4,7.1-6.7l0.6-2c0.1,0,0.1,0,0.2,0.1c0,0,0,0,0,0
			c4,2.2,8.3,4,12.6,5.2l-0.7,2.4c-3.9,8.4-8.5,16.6-13.7,24.3l-0.7-0.2c-10.1-5.6-19.3-12.9-27-21.6l0.6-0.6
			c1.7-4.4,3.5-8.7,5.4-13L867.1,537.5z"/>
		<path class="st0" d="M914,306c17.3-12.8,28.5-33.7,29.4-55.3c1-21.5-8.2-43.3-24.4-57.7l0,0c-0.8-0.8-1.6-1.5-2.4-2.3l-1.2,0.1
			c-0.1-0.6-0.1-1.2-0.2-1.9l1-0.1c15.7,3,28.5,15.8,34.1,30.8c5.6,15,4.7,31.8,0.6,47.3c-4.5,16.7-13.5,33.2-28.6,41.6l-0.2-0.4
			c-0.9,0.6-1.8,1.1-2.7,1.7l-0.7,1c-1.8-1.3-3.6-2.8-5.4-4.2L914,306z"/>
		<path class="st0" d="M384,938c21.2,12.6,52.6,14.8,74.2,3.1c20.4-11.1,36.7-35.6,31.3-55.6l1.1-0.1c1.4,1.6,2.3,3.6,2.7,5.8
			c3.7,17.3-16,52.2-38.2,59.3c-24,7.7-51.6,3.3-72.2-11.2l0.9-1.5C383.9,937.9,383.9,938,384,938z"/>
		<path class="st0" d="M932.8,545.9c-4.3,1.2-8.6,2-13,2.3c-5.5,0.4-11.3-0.4-16.9-2.1c-4.3-1.3-8.6-3-12.6-5.2
			c19.1,6.3,41,2.5,57.8-8.6c17.7-11.6,30-30.6,35.5-51c4.5-16.9,4.7-35.2-1.7-51.5c-6.3-16-19.4-29.7-35.8-34.8
			c-0.2-0.1-0.5-0.2-0.7-0.2l-1.4,0.2c-0.1-0.8-0.3-1.6-0.4-2.3c0-0.2-0.1-0.5-0.1-0.7c7.1-2.5,13.6,3.7,20.5,6.9
			c0.7,0.3,1.3,0.6,2,1c11,5.5,18.1,12.9,22,23.7c3.3,9.1,6.2,21.4,7.7,31c1.7,10.9-1.2,22-5.1,32.3c-5.9,15.4-14.5,29.9-26.5,41.2
			C955.1,536.2,944.4,542.6,932.8,545.9z"/>
		<path class="st0" d="M866.9,617.6c7.6,5.9,14.2,13.2,18.9,21.2c3.2,5.4,5.6,11.1,6.9,16.9c2.4,10.6,2.3,21.6,0.8,32.3
			c-1.5,10.2-4.3,20.4-9.7,29.3c-4.8,7.9-11.5,14.6-18.7,20.5c-11.8,9.7-25.3,17.5-40.1,21.4c-11.1,2.9-23,3.4-34.2,0.8
			c-3.6-0.8-7.2-2-10.7-3.5c-4.6-2-8.9-4.7-12.8-7.9c0.4-0.3,0.8-0.6,1.2-0.9l0.4-0.5c2.8,2.5,5.9,4.6,9.2,6.2
			c12,5.8,26.4,5.8,39.2,1.7c12.8-4.1,24-11.9,33.9-21c12.9-11.9,23.8-26.4,29.5-43c5.7-16.6,5.9-35.5-1.6-51.3
			c-7.5-15.9-17.6-27.3-35.1-28.6l-0.5,1.3c-1.2-0.5-2.4-0.9-3.6-1.3l-0.3,0.1c-0.6-2.7-1.5-5.4-2.5-8c4.7,1.1,9.4,2.7,14,4.8
			C856.7,610.5,862,613.8,866.9,617.6z"/>
		<path class="st0" d="M876.5,257.3c-2.2,0.4-4.4,0.8-6.6,1.2l-1.9,0.7c-1.8-1.4-3.5-2.8-5.2-4.4l1.3-0.4c13.2-0.9,25.1-9.7,32-21
			c6.9-11.4,9.1-25,8.6-38.3c-0.9-24-11.2-48.3-30.5-62.7c-7.8-5.8-17-9.9-26.7-10.6l0.1-1.2c1.8,0.1,3.5,0.3,5.3,0.6
			c19.7,3.2,37,16,48.3,32.4c6,8.7,10.4,18.5,12.7,28.7c0.5,2.2,0.9,4.3,1.2,6.5c0.1,0.6,0.2,1.2,0.2,1.9c0.9,7.4,0.6,14.9-1,22.3
			c-0.8,3.9-2,7.7-3.6,11.3c-4.6,10.7-12.2,20.2-21.7,26.6c-1.5,1-3,1.9-4.6,2.7C882,255.3,879.3,256.4,876.5,257.3z"/>
		<path class="st4" d="M516.1,824.5c-1-4-0.8-8.4,0.7-12.3l-0.2-0.5c10.8-5.4,21.5-11,32.1-16.8l0.7,1.3c-4.7,5.7-4.4,14.6-0.1,20.7
			c4.2,6.1,11.6,9.5,19,9.9c7.4,0.5,14.7-1.6,21.5-4.8c12-5.6,22.9-15.1,26.9-27.8c4-12.6-0.6-28.3-12.4-34.4
			c6.7-4.9,13.2-10,19.6-15.4l1.3,1.5c14.9,2.5,25.8,17,27.4,31.9s-4.8,29.9-13.9,41.9c-21.9,28.5-61.2,42.4-96.2,33.9l-0.8,1.3
			c-5.4-3.4-10.7-6.9-15.2-11.3c-3.6-3.5-6.8-7.8-8.8-12.4c-0.9-2.1-1.5-4.3-1.9-6.6L516.1,824.5z"/>
		<path class="st0" d="M331.9,925.6c-5.8-3.4-11.4-8.1-16.4-13.5c-2.9-3.1-5.6-6.5-8-10l2-1c2.8,4.2,6.2,7.9,10.1,10.7
			c17.8,13,46.1,13.7,67,6.6c14.2-4.8,27.8-18,36.6-30c8.9-12,5.3-25.6,2.9-40.4l-0.4-2c8.5-1.5,16.9-3.4,25.3-5.6
			c4.4,4.1,8,8.3,11.6,12.6c-5,0.5-13.8,1.4-19.8,2l0.1,1c2,5.8,2.3,12,1.5,18.3c-0.5,3.8-1.4,7.6-2.7,11.3
			c-5.4,16-17.1,31.3-28.2,40c-6.6,5.1-17.7,8.4-29.7,9.8C363,937.8,339.5,934.5,331.9,925.6z"/>
		<path class="st0" d="M876.6,530.3c11.5,9,27.3,11.4,41.5,8.1c14.2-3.3,26.8-11.8,36.9-22.3c16.3-16.9,26.7-39.9,25.8-63.3
			c-0.9-23.4-14.1-46.6-35.2-56.9l0.3-0.9c16.4,5.1,29.5,18.8,35.8,34.8c6.4,16.3,6.3,34.6,1.7,51.5c-5.5,20.5-17.8,39.4-35.5,51
			c-16.9,11.1-38.7,14.9-57.8,8.6c0,0,0,0,0,0c-5.2-2.8-10-6.3-14-10.2L876.6,530.3z"/>
		<path class="st1" d="M664,759l-2,0.5c-2.9-3.8-6.3-7.2-10.3-9.9c2.9-2.7,7.8-7.3,10.6-10l0.8-0.8c1.9,1.9,3.8,3.8,5.7,5.7
			c1.1,1.1,2.2,2.2,2.7,3.6c0.8,2.3-0.1,4.9-1.6,6.7C668.3,756.6,666.1,757.8,664,759z"/>
		<path class="st3" d="M816.5,257.3c0.3,2.1-0.6,4.2-1.8,6c-1.6,2.4-4.6,4.5-7.2,3.4c-2.4-1.1-3-4.1-2.8-6.7c0.2-1.9,0.7-3.9,2-5.2
			c1.3-1.4,3.6-2,5.2-0.9l2.3-0.1C815.5,254.4,816.4,255.9,816.5,257.3z"/>
		<path class="st3" d="M806.6,355c0,2.3-1.2,4.6-2.9,6.2c-2.1,2-5.5,3.2-7.9,1.5c-2.3-1.6-2.4-5.2-1-7.6c1.4-2.4,3.9-4,6.3-5.4
			l1.8-0.1C805.1,350.2,806.5,352.6,806.6,355z"/>
		<path class="st4" d="M980.9,452.8c0.9,23.4-9.6,46.4-25.8,63.3c-10.1,10.5-22.7,19-36.9,22.3c-14.2,3.3-30,0.9-41.5-8.1l-0.4,0.4
			c-1.1-1-2-2.1-3-3.2l1.3-0.1c21.7,11.9,50.7,8.5,69-8c12.4-11.1,19.6-26.9,24.9-42.6c3.4-10.1,6.3-20.8,5.4-31.4
			c-1.4-17.9-13-33.7-27.3-44.5l-2,0.2c-0.2-2-0.4-4-0.8-6l1.4-0.2c0.2,0.1,0.5,0.1,0.7,0.2l-0.3,0.9
			C966.7,406.2,980,429.4,980.9,452.8z"/>
		<path class="st4" d="M973.9,445.4c0.8,10.7-2,21.3-5.4,31.4c-5.3,15.8-12.5,31.5-24.9,42.6c-18.4,16.5-47.4,19.8-69,8l-1.3,0.1
			l-1.7-0.8c4.2-9.2,8.8-18.3,13.5-27.2l-0.2-0.8c1.2-0.4,2.4-0.8,3.5-1.2l0.7,1.8c8.6,5.8,20.5,5.4,29.7,0.5
			c9.2-4.9,15.7-13.9,19.3-23.6c3.6-9.8,4.5-20.3,4.4-30.7l-2.1-0.5c1.2-4.6,1.9-9.3,2.6-13.9c1.5-10,2.5-20.2,1.6-30.2l2-0.2
			C960.9,411.7,972.5,427.5,973.9,445.4z"/>
		<path class="st0" d="M956.7,215.7c7.9,17,7.9,37.2,1.5,54.8c-2.2,6.1-5.1,11.8-8.6,17.2c-6.7,10.3-15.5,19.3-25.4,26.5l-0.3,0.4
			c-1.8-1.1-3.5-2.4-5.2-3.6l0.7-1c0.9-0.6,1.8-1.1,2.7-1.7l0.2,0.4c15.1-8.4,24.1-24.9,28.6-41.6c4.1-15.5,5-32.3-0.6-47.3
			c-5.6-15-18.3-27.9-34.1-30.8l-1,0.1c-0.3-2.2-0.7-4.4-1.2-6.5l0.1,0C932.6,185.5,948.8,198.8,956.7,215.7z"/>
		<path class="st0" d="M934.8,395.7c1.6,9.6,0.1,19.6-1.9,29.1c-2.1,10.5-4.7,21-9.6,30.5c-9,17.3-26,30.2-45,34.2
			c-8.3,1.7-16.9,1.8-25.2,0.3l0.2-1.1c27.2-2.5,52.6-19.7,65-44c12.4-24.3,10.8-57.8-3-81.4C925.1,371.8,932.7,383,934.8,395.7z"/>
		<path class="st4" d="M915.4,363.3c13.8,23.5,15.5,57.1,3,81.4c-12.5,24.3-37.8,41.5-65,44l-0.2,1.1c-9.9-1.8-19.4-5.7-27.6-11.7
			c-0.8-0.6-1.5-1.1-2.2-1.7l-1.4-0.5c3.8-9.6,7.4-19.2,10.8-28.9l1.2,0.4c3.3,5.2,9.4,8.1,15.5,8.5c6.1,0.4,12.2-1.5,17.7-4.4
			c17.7-9.2,29.5-29.3,27.7-49.2c-0.9-9.9-5.3-19.9-13.5-25.6c-8.2-5.7-20.4-6-27.6,0.8l-2.4-0.4c1.3-8.2,2.2-16.4,2.7-25.1l1.3,0.1
			c9-4.9,19.7-6,29.7-4.1c10,1.9,19.4,6.7,27.4,13C913.5,361.7,914.4,362.5,915.4,363.3z"/>
		<path class="st4" d="M912.1,225.1c4.3,8.2,5.6,18,3.4,27c-2.2,9-7.8,17.1-15.4,22.4l-3.1,0.9h0c-2.2-7.5-4.4-15-6.7-22.5l-1.2-1.7
			c9.6-6.4,17.2-15.9,21.7-26.6L912.1,225.1z"/>
		<path class="st4" d="M904.8,195.2c0.5,13.3-1.8,26.9-8.6,38.3c-6.9,11.3-18.8,20.1-32,21l-1.3,0.4c-1.3-1.2-2.6-2.5-3.8-3.9
			l1.4-0.3c11-4.8,20.1-13.6,25.9-24.2c5.8-10.5,8.5-22.6,8.6-34.6c0.1-14.9-3.9-30-12.3-42.2c-8.4-12.3-21.5-21.6-36.1-24.4
			c-14.6-2.8-30.6,1.1-41.5,11.3l-0.2-0.2c10.9-11.1,27.2-16.6,43-15.5l-0.1,1.2c9.7,0.7,18.9,4.8,26.7,10.6
			C893.6,146.9,903.9,171.2,904.8,195.2z"/>
		<path class="st4" d="M894.9,402.3c1.8,19.9-10,40-27.7,49.2c-5.4,2.8-11.5,4.8-17.7,4.4c-6.1-0.4-12.3-3.3-15.5-8.5l-1.2-0.4
			c3.5-9.9,6.7-19.8,9.5-29.9c0.8-2.8,1.5-5.5,2.2-8.1l1.3,0.1c1.4,1.3,2.9,2.5,4.5,3.6l-0.5,1.4c-2.2,2.9-1.5,7.4,1.2,9.8
			c2.7,2.4,6.8,2.9,10.2,1.5c3.4-1.4,5.9-4.3,7.4-7.6c1.3-3,1.8-6.5,0.9-9.7c-0.9-3.2-3.3-6-6.5-6.9c-3.2-1-7,0.3-8.7,3.1l-0.9,1.2
			c-1.7-1.3-3.3-2.7-5-4l-1.9-0.2c2-8.2,3.6-16.1,4.8-24h0l2.4,0.4c7.3-6.8,19.5-6.5,27.6-0.8C889.6,382.4,894,392.4,894.9,402.3z"
			/>
		<path class="st4" d="M852.2,215.3c9.7-7.8,14.8-20.8,13-33c-1.8-12.5-10.8-23.7-22.6-28.2c-8.5-3.3-19.4-2.6-25.3,4.3l-0.6,0.4
			c-3.5-4.8-7.3-9.4-11.2-13.9l-2.8,1.1c-0.3-0.6-0.7-1.1-1-1.7c-0.7-0.5-1.5-1-2.2-1.6l0.6-0.8c1.4-2,3-3.8,4.6-5.5l0.2,0.2
			c10.9-10.2,26.9-14.1,41.5-11.3c14.6,2.8,27.7,12.1,36.1,24.4C891,162,895,177,894.9,191.9c-0.1,12-2.7,24.1-8.6,34.6
			c-5.8,10.5-14.9,19.4-25.9,24.2l-1.4,0.3c-2.4-2.7-4.6-5.6-6.5-8.6l0.6-1.6c-1.6-7.8-3.6-15.5-6.1-23.1l1.6-0.5
			c1.1-0.8,2.2-1.6,3.3-2.4L852.2,215.3z"/>
		<path class="st0" d="M879.2,639.7c7.5,15.9,7.3,34.7,1.6,51.3c-5.7,16.6-16.6,31.1-29.5,43c-9.8,9.1-21.1,16.9-33.9,21
			c-12.7,4.1-27.1,4.2-39.2-1.7c-3.3-1.6-6.4-3.7-9.2-6.2c-6.5-5.8-11.1-13.8-12.2-22.3c7.5,11.5,16.3,23.7,29.6,26.5
			c8.2,1.7,22.4,0.1,30.1-3c22.2-9,33.8-22.4,47-38.6c8.6-10.5,11.7-23.9,14.4-37.2c2.7-12.9-0.2-26.8-7.3-37.9
			c-6.4-10-16.2-17.8-27.3-22.2l0.5-1.3C861.6,612.4,871.7,623.8,879.2,639.7z"/>
		<path class="st0" d="M858.9,408l-2.3-0.2c-1-0.8-2.1-1.7-3.2-2.5l0.9-1.2c1.7-2.8,5.5-4,8.7-3.1c3.2,0.9,5.6,3.8,6.5,6.9
			c0.9,3.2,0.4,6.6-0.9,9.7c-1.5,3.3-4,6.3-7.4,7.6c-3.4,1.4-7.5,0.9-10.2-1.5c-2.7-2.4-3.4-7-1.2-9.8l0.5-1.4
			c1,0.6,1.9,1.2,2.9,1.8l3.2-0.4C857.8,412.3,858.6,410.2,858.9,408z"/>
		<path class="st4" d="M787.4,713.4c16.6,4.5,35.6-1.3,46.7-14.5c11.4-13.6,13.7-34.2,5.5-50l-1.2-0.3c3-10.6,3.9-21.8,2.2-32.6
			l1.9-0.3c16.1,9.9,26.5,30.2,24.8,49c-1.7,18.8-11.6,36.1-24.4,50c-11.2,12-25.3,22.2-41.4,25c-16.2,2.8-34.5-3.2-43.1-17.2
			l-0.3-1.3c9.7-1.8,18.9-5.6,27.6-10.6L787.4,713.4z"/>
		<path class="st4" d="M865.2,182.2c1.8,12.3-3.4,25.3-13,33l-0.3-0.4c-1.1,0.8-2.2,1.6-3.3,2.4l-1.6,0.5
			c-6.9-21.1-17.2-41.1-30.3-59l0.6-0.4c6-6.9,16.8-7.6,25.3-4.3C854.4,158.5,863.3,169.7,865.2,182.2z"/>
		<path class="st4" d="M856.6,407.8l2.3,0.2c-0.3,2.2-1.1,4.3-2.4,6l-3.2,0.4c-1-0.6-2-1.2-2.9-1.8c-1.6-1.1-3.1-2.3-4.5-3.6
			l-1.3-0.1c0.7-2.7,1.4-5.3,2-7.9l1.9,0.2c1.7,1.3,3.3,2.7,5,4C854.5,406.1,855.6,407,856.6,407.8z"/>
		<path class="st1" d="M853.3,500.4l-0.1,1.5c-2.4,9.2-6.7,17.9-12.6,25.3l-1.5,0.3c-8.1-4.2-15.7-9.5-22.5-15.6
			c-2.8-2.5-5.7-5.8-5.2-9.5l-0.1,0c1.6-3.9,3.2-7.7,4.7-11.6l1.6,0.7c3.3,2.9,6.5,5.8,9.7,8.7c1.1,1,2.2,2,3.7,2.3
			c2,0.4,4-0.7,5.2-2.3c1.3-1.5,1.9-3.5,2.5-5.4l0.1-0.1C843.3,497.3,848.2,499.2,853.3,500.4z"/>
		<path class="st4" d="M839.6,648.9c8.2,15.8,6,36.4-5.5,50c-11.1,13.2-30.1,19-46.7,14.5l-1.7-2.9c1.9-1.1,3.8-2.2,5.6-3.4
			c17.3-11,32.6-25.9,41.6-44.3c2.2-4.5,4.1-9.3,5.5-14.2L839.6,648.9z"/>
		<path class="st0" d="M814.3,584.6c13.3,17,18.5,40.1,13.8,61.3c-5.4,24.2-23.3,44.8-45.6,55.6c-14.3,7-30.8,10.2-46.4,7
			c-15.6-3.2-30.1-13.3-36.6-27.8l0.6-0.4c10.4,14.8,29.6,22.5,47.8,21.1c19.3-1.5,37.3-12,50.5-26.2c14.8-15.9,24.6-37.5,22.8-59.2
			c-1.7-19.3-13.9-38-31.6-45.4l0.3-2.1c2.3,0.3,4.5,0.7,6.7,1.2C803.5,573,809.6,578.5,814.3,584.6z"/>
		<path class="st4" d="M795,624.6c1.4,15.1-6.6,30-18.3,39.6c-8.6,7-19.5,11.7-30.5,11c-11-0.7-22-7.4-25.9-17.8l-1.2-1.1
			c8.3-9.2,16.3-18.8,23.7-28.8l1.1,0.8c0.6,0.5,1.3,1,2,1.5l-0.8,1c-2.3,2.3-2.9,6.1-1.4,9c1.4,2.9,4.8,4.8,8,4.4
			c3.1-0.3,5.7-2.4,7.8-4.6c2.2-2.4,4.2-5.2,4.9-8.4c0.7-3.2-0.2-6.9-2.7-9c-2.5-2.1-8.9-1.8-10.9,0.9l-1.7,1.7
			c-0.6-0.5-1.1-1.1-1.7-1.7l-0.8-0.6c6.6-9,12.8-18.4,18.6-27.9l0.7,0.4C781,595.5,793.5,609.6,795,624.6z"/>
		<path class="st5" d="M768.7,163.9c15.8,51.1,10.9,106.4-0.9,158.6c-42.5,189.1-177.1,355.3-353.4,436
			c-36.1,16.5-74.5,29.8-114.2,31c-31.1,0.9-60.6,2-85.3-11.2c-6.9-3.7-13.3-8.4-19.4-14.5c-36.9-35.1-57.3-85.3-62.7-135.9
			c-5.4-50.7,3.4-102,18.2-150.7c57.9-191.2,213.9-349.7,404.1-410.8c34.2-11,70.7-19,105.8-11.2c18.1,4,34.7,12.2,49.3,23.2
			C737.8,99.2,758.3,130.5,768.7,163.9z"/>
		<path class="st1" d="M767.5,748.6c-2.8,2.4-4.8,5.6-7,8.5c-2.6,3.3-5.9,6.5-10,7c-3.8,0.5-7.5-1.3-10.5-3.6
			c-3-2.3-5.5-5.2-8.6-7.5c-3.1-2.3-7.2-4.6-7.2-8.4c0-2.3,1.6-4.3,3.1-6.1c1.3-1.5,2.7-3,4-4.5l1.1,1.1c3.6,3.2,7.5,6,11.7,8.3
			c1.2,0.6,2.4,1.3,3.7,1.2c4-0.1,5.7-5.9,9.6-6.8l0.1-0.1C760.3,741.7,763.7,745.4,767.5,748.6z"/>
		<path class="st0" d="M752.6,633.4c1.4-0.4,2.6-1.7,2.8-3.2l-1.4-0.5c-1.7-1.7-3.3-3.3-5-5l1.7-1.7c2-2.6,8.4-3,10.9-0.9
			c2.5,2.1,3.4,5.8,2.7,9c-0.7,3.2-2.6,6-4.9,8.4c-2.1,2.3-4.7,4.3-7.8,4.6c-3.2,0.3-6.5-1.5-8-4.4c-1.4-2.9-0.8-6.7,1.4-9l0.8-1
			c1.4,1.1,2.8,2.2,4.2,3.2L752.6,633.4z"/>
		<path class="st4" d="M754,629.7l1.4,0.5c-0.2,1.5-1.4,2.8-2.8,3.2l-2.5-0.3c-1.4-1.1-2.8-2.2-4.2-3.2c-0.6-0.5-1.3-1-2-1.5
			l-1.1-0.8c1.3-1.7,2.5-3.4,3.8-5.1l0.8,0.6c0.6,0.6,1.1,1.1,1.7,1.7C750.7,626.4,752.3,628.1,754,629.7z"/>
		<path class="st1" d="M725.6,786.4c0.7,4.4-6.3,9.7-8.5,14.6c-3.1-5.1-7.1-9.5-12.2-12.5l3.4-0.1c2.6-3,5.3-6.1,7.9-9.1l1.5-1.8
			c1.2,1,2.5,2,3.7,3.1C723.3,782.2,725.2,784,725.6,786.4z"/>
		<path class="st0" d="M724.6,824.6c0.8,8.2,0.1,16.3-2.1,22.9c-6.9,21.1-24.4,37.5-44.1,47.8c-17,8.9-36.7,14-55.7,10.7
			c-4.5-0.8-8.9-2-13.1-3.8c-10.2-4.2-19.3-11.2-25.3-20.2c-2.1-3.1-3.8-6.4-5-9.9l0.1-0.5c1.3,0.1,2.7,0.2,4,0.2
			c6.9,13.4,24.4,25.2,39.4,26.7c14.9,1.6,30-2.8,43.5-9.4c14.1-6.9,27.1-16.7,36.1-29.5c9-12.9,13.8-29.1,11.3-44.6
			c-2-11.9-8.5-23.1-18.1-30.2c3.5,0.7,6.6,2,9.5,3.7c5,3,9.1,7.3,12.2,12.5C721.3,808,723.7,816.3,724.6,824.6z"/>
		<path class="st1" d="M713.8,709.4l-1.5,1.2c-6.3,6-6.5,11.4-13.8,13.8c-5.7,1.9-11.5-2.1-16.2-5.9c-4.7-3.8-9.8-8.7-9-14.7
			c0.4-3.1,2.3-5.6,4.6-7.8l0.3,0.3c3.4,3.6,7.3,7.2,12.1,8.2c4.8,1.1,10.8-4,13.3-8.2C706.5,701.2,709.8,705.6,713.8,709.4z"/>
		<path class="st0" d="M713.6,815.1c2.6,15.5-2.2,31.7-11.3,44.6c-9,12.8-22,22.6-36.1,29.5c-13.5,6.6-28.5,11-43.5,9.4
			c-14.9-1.5-32.5-13.3-39.4-26.7c2,0,4-0.2,6-0.5c7.2,11.6,20.9,18.2,34.6,19c13.8,0.9,27.4-3.4,39.7-9.7
			c12.4-6.3,24-14.9,32.2-26.2c8.3-11.3,13-25.5,11.4-39.3c-1.6-13.9-10-27.2-22.6-33.1l-1.7-1.7c0.6-0.6,1.2-1.2,1.7-1.7l1,1
			c3.5,1.3,6.7,3.1,9.6,5.3C705.1,792,711.7,803.2,713.6,815.1z"/>
		<path class="st4" d="M707.4,815.2c1.6,13.9-3.2,28.1-11.4,39.3c-8.3,11.3-19.8,19.9-32.2,26.2c-12.3,6.3-26,10.6-39.7,9.7
			c-13.7-0.9-27.4-7.5-34.6-19c7.3-1.1,14.3-3.9,21-7c15.3-7,30-15.9,41.5-28.3c11.5-12.3,19.5-28.4,19.9-45.2c0-0.2,0-0.4,0-0.6
			l1.3,0c3.3-3.3,6.6-6.7,10-10l1.7,1.7C697.5,788,705.9,801.3,707.4,815.2z"/>
		<path class="st0" d="M580.8,796.5c1.5-1.4,2.5-3.2,2.9-5.1l0-1c-2.8-0.8-5.3-2.4-7.4-4.4l1.6-0.3c0.3-0.8,1.1-1.4,1.9-1.4
			c0,0,0,0,0,0l0.9-0.1c4.2-1.7,9.4,0.9,11.3,4.9c1.9,4.1,1,9.2-1.7,12.8c-2.1,2.9-5.3,5.1-8.9,5.6c-3.6,0.5-7.4-0.9-9.6-3.7
			c-2.2-2.9-2.3-7.2-0.1-10l0.1-1.2c2.2,1.4,4.5,2.6,7,3.5L580.8,796.5z"/>
		<path class="st1" d="M526.4,843.6c-3.5,2.7-8.5,8.2-12.5,10c-4.1,1.8-8.8,2.6-13.1,1.1c-3.7-1.3-6.7-4-9.6-6.8
			c-5.3-4.9-10.5-9.9-15.8-14.8l-0.1-1.3c4.6-2.2,9.3-4.5,13.9-6.7l0.4,0.9c1.9,2.9,3.9,5.9,6.5,8.3c2.7,2.3,6.1,4,9.6,3.7
			c4.1-0.3,7.6-3.2,10.4-6.3l1.4-0.4C519.7,835.9,522.8,840.1,526.4,843.6z"/>
		<path class="st0" d="M517.7,831.2l-1.4,0.4c-2.8,3.1-6.3,5.9-10.4,6.3c-3.5,0.3-7-1.3-9.6-3.7c-2.6-2.3-4.6-5.3-6.5-8.3l-0.4-0.9
			c9.1-4.4,18.2-8.8,27.3-13.4l0.2,0.5c-1.5,3.9-1.7,8.2-0.7,12.3l-0.3,0.1C516.1,826.9,516.8,829.1,517.7,831.2z"/>
		<path class="st0" d="M493.8,891.1c13.8,23.7-9.9,60.6-38.8,67c-10,2.2-42.5,5.8-52.2,2.6c-8.6-2.9-16.4-9.6-19.1-18.1v0
			c-0.3-1.1-0.6-2.1-0.8-3.3c20.6,14.5,48.2,18.9,72.2,11.2c22.2-7.1,41.9-42,38.2-59.3L493.8,891.1z"/>
		<path class="st1" d="M462.5,853c3.6,4.2,7.1,8.4,11.5,12.5c-10,4.7-18.3,4.4-28.2,9.1l-1.5-0.2c0.9-6.3,0.5-12.6-1.5-18.3l-0.1-1
			C448.7,854.4,457.5,853.5,462.5,853L462.5,853z"/>
		<path class="st4" d="M399,850.1c4.1,15.8-1.8,34-15,43.8c-13.2,9.7-32.9,9.8-45.7-0.4c-12.8-10.2-16.9-30.1-8.6-44.1
			c3.6,0.4,7.2,0.7,10.9,1l-0.1,1.8c4.8,1.4,9.2,3.8,12.9,7l-0.8,1.2c-2.5,2.2-2,6.5,0,9.1c2.7,3.6,7.9,5.2,12.1,3.6
			c4.3-1.5,7.3-6,7-10.5c-0.2-4.5-3.6-8.7-8-9.8l0-1.5c11.7,0.1,23.5-0.5,35.2-1.6L399,850.1z"/>
	</g>
	<g>
		<path class="st6" d="M195.5,763.7c-36.9-35.1-57.3-85.3-62.7-135.9c-5.4-50.7,3.4-102,18.2-150.7
			c57.9-191.2,213.9-349.7,404.1-410.8c34.2-11,70.7-19,105.8-11.2c18.1,4,34.7,12.2,49.3,23.2c27.6,20.9,48.2,52.2,58.5,85.6
			c15.8,51.1,10.9,106.4-0.9,158.6c-42.5,189.1-177.1,355.3-353.4,436c-36.1,16.5-74.5,29.8-114.2,31c-31.1,0.9-60.6,2-85.3-11.2
			C208,774.6,201.6,769.9,195.5,763.7"/>
		<path class="st6" d="M286.5,836.6c4.9,3,9.8,5.8,14.5,8.3"/>
		<path class="st6" d="M214.5,779c16.4,18.6,39.4,36.9,62,51.4c3.3,2.1,6.6,4.2,9.9,6.2"/>
		<path class="st6" d="M710.2,78.3c31.6,19.3,59.3,42.8,89.3,64.4c0.7,0.5,1.5,1.1,2.2,1.6"/>
		<path class="st6" d="M304,848.3c-7.3,15.6-4.5,37.6,5.5,52.7c2.8,4.2,6.2,7.9,10.1,10.7c17.8,13,46.1,13.7,67,6.6
			c14.2-4.8,27.8-18,36.6-30c8.9-12,5.3-25.6,2.9-40.4"/>
		<path class="st6" d="M301,844.9c9.5,1.9,19.1,3.4,28.8,4.4c3.6,0.4,7.2,0.7,10.9,1c4.6,0.4,9.2,0.6,13.9,0.8
			c3.1,0.1,6.2,0.2,9.3,0.2c11.7,0.1,23.5-0.5,35.2-1.6c8.9-0.9,17.9-2.1,26.7-3.7c8.5-1.5,16.9-3.4,25.3-5.6"/>
		<path class="st6" d="M462.5,853c3.6,4.2,7.1,8.4,11.5,12.5"/>
		<path class="st6" d="M451,840.4c4.4,4.1,8,8.3,11.6,12.6"/>
		<path class="st6" d="M445.8,874.5c10-4.7,18.3-4.4,28.2-9.1"/>
		<path class="st6" d="M275.2,829.4c0.4,0.3,0.8,0.7,1.3,1c3.1,2.4,6.4,4.4,9.9,6.2c0,0,0.1,0,0.1,0c20.3,10.1,46.2,9.8,68.8,5.3
			C487.7,815.9,609.6,741.4,696,637.6c86.4-103.8,137.1-236.1,145.9-370.9c2.8-43.7-16.4-83.4-39.1-120.7c-0.3-0.6-0.7-1.1-1-1.7"/>
		<path class="st6" d="M302.3,893.4c3.2,7.1,7.7,13.5,13.2,18.7c2.3,2.2,4.8,4.2,7.5,5.9c22.8,14.4,52.3,10,77-0.8
			c24.1-10.6,43.4-44.5,30.8-69.2"/>
		<path class="st6" d="M301,844.9c-6.8,14.8-5.7,33.1,1.3,48.4"/>
		<path class="st6" d="M301,844.9c-9.6,13.9-7.1,32.2,1.3,48.4c0,0,0,0,0,0.1c1.5,2.9,3.3,5.8,5.2,8.6c2.4,3.5,5.1,6.9,8,10
			c5,5.5,10.7,10.1,16.4,13.5c4.3,2.5,8.6,4.3,12.9,5.3c36.8,8.4,101.3-28.1,92.2-66.9"/>
		<path class="st6" d="M331.9,925.6c7.5,8.9,31,12.2,51.8,9.8c12-1.4,23.1-4.6,29.7-9.8c11.1-8.6,22.8-23.9,28.2-40
			c1.3-3.8,2.2-7.6,2.7-11.3c0.9-6.3,0.5-12.6-1.5-18.3"/>
		<path class="st6" d="M382.9,937.3c0.3,0.2,0.6,0.4,0.9,0.5c0.1,0,0.1,0.1,0.2,0.1c21.2,12.6,52.6,14.8,74.2,3.1
			c20.4-11.1,36.7-35.6,31.3-55.6c-0.4-1.6-1-3.1-1.7-4.6"/>
		<path class="st6" d="M442.7,886c12.3-2.7,29.6-4.7,44.9-7c6.6-1,12.7-2,18-3.2"/>
		<path class="st6" d="M505.5,875.8c4.7,3.9,10.8,7.7,16.8,11.5c5.4,3.5,10.8,6.9,15,10.5"/>
		<path class="st6" d="M508,907.4c7.6-2.5,21.2-4.8,29.4-9.6"/>
		<path class="st6" d="M503,891.3c0.1,0.3,0.2,0.7,0.3,1c1.3,5.1,1.9,10.2,2,15.2c0.1,10.5-2.7,20.5-8.3,29.5
			c-2.2,3.5-4.8,6.8-7.8,9.9c-14.8,15.3-35.7,23.6-56.8,26c-10,1.2-20.4,1-29.8-2.8c-9.3-3.8-17.4-17.5-18.9-27.4"/>
		<path class="st6" d="M382.9,939.3c20.6,14.5,48.2,18.9,72.2,11.2c22.2-7.1,41.9-42,38.2-59.3c-0.5-2.3-1.4-4.3-2.7-5.8"/>
		<path class="st6" d="M382.9,939.3c0.2,1.1,0.4,2.2,0.8,3.3v0c2.7,8.6,10.5,15.2,19.1,18.1c9.7,3.2,42.2-0.4,52.2-2.6
			c28.9-6.4,52.6-43.3,38.8-67"/>
		<path class="st6" d="M440.3,855.2c0.7-0.1,1.5-0.2,2.4-0.2c6-0.6,14.8-1.5,19.8-2h0"/>
		<path class="st6" d="M329.8,849.3C329.8,849.3,329.8,849.3,329.8,849.3c-8.3,14.1-4.2,34,8.6,44.2c12.8,10.2,32.5,10.1,45.7,0.4
			c13.2-9.7,19.1-27.9,15-43.8"/>
		<path class="st6" d="M340.5,852.1c4.8,1.4,9.2,3.8,12.9,7c1.7,1.5,3.3,3.1,4.6,4.9"/>
		<path class="st6" d="M352.6,860.4c-2.5,2.2-2,6.5,0,9.1c2.7,3.6,7.9,5.2,12.1,3.6c4.3-1.5,7.3-6,7-10.5c-0.2-4.5-3.6-8.7-8-9.8"/>
		<path class="st6" d="M353.8,850.8c0.2,0.1,0.5,0.2,0.7,0.3c5,2.2,9.2,6.2,11.7,11.1"/>
		<path class="st6" d="M358.9,864.7c3,1.4,6.9,0.2,8.6-2.6"/>
		<path class="st6" d="M501,892.9c0.7-0.2,1.4-0.4,2.3-0.6c5.4-1.4,13.7-3.5,19-4.9c0.8-0.2,1.5-0.4,2.1-0.6"/>
		<path class="st6" d="M498.8,938c38.1-6.4,75.3-18,110.3-34.3"/>
		<path class="st6" d="M526.4,843.6c-3.5,2.7-8.5,8.2-12.5,10c-4.1,1.8-8.8,2.6-13.1,1.1c-3.7-1.3-6.7-4-9.6-6.8
			c-5.3-4.9-10.5-9.9-15.8-14.8"/>
		<path class="st6" d="M475.4,831.9c4.6-2.2,9.3-4.5,13.9-6.7c9.1-4.4,18.2-8.8,27.3-13.4c10.8-5.4,21.5-11,32.1-16.8
			c5.4-3,10.7-6,15.9-9.1c2.7-1.6,5.5-3.3,8.2-4.9c10.8-6.6,21.3-13.6,31.5-21.1c6.7-4.9,13.2-10,19.6-15.4c1.6-1.3,3.1-2.7,4.6-4
			c5.3-4.6,10.4-9.4,15.3-14.4"/>
		<path class="st6" d="M643.7,725.6c0,0,0.1,0,0.1,0c5.9,0.3,10.7,4.7,14.9,8.8c1.5,1.5,2.9,2.9,4.4,4.4c1.9,1.9,3.8,3.8,5.7,5.7
			c1.1,1.1,2.2,2.2,2.7,3.6c0.8,2.3-0.1,4.9-1.6,6.7c-1.6,1.8-3.8,3.1-5.9,4.2"/>
		<path class="st6" d="M651.7,749.6c2.9-2.7,7.8-7.3,10.6-10"/>
		<path class="st6" d="M649.5,748.3c0.7,0.4,1.4,0.9,2.1,1.3c4,2.7,7.4,6,10.3,9.9c6.5,8.7,10,19.9,9.9,30.9c0,0.2,0,0.4,0,0.6
			c-0.4,16.8-8.4,32.9-19.9,45.2c-11.5,12.3-26.2,21.2-41.5,28.3c-6.7,3.1-13.7,5.9-21,7c-2,0.3-4,0.5-6,0.5c-1.3,0-2.7-0.1-4-0.2
			c-9-0.9-17.5-4.7-25.6-9.3c-1.4-0.8-2.7-1.6-4.1-2.4c-1.8-1.1-3.6-2.2-5.4-3.3c-0.9-0.6-1.8-1.1-2.7-1.7
			c-5.4-3.4-10.7-6.9-15.2-11.3c-3.6-3.5-6.8-7.8-8.8-12.4c-0.9-2.1-1.5-4.3-1.9-6.6"/>
		<path class="st6" d="M489.7,826c1.9,2.9,3.9,5.9,6.5,8.3c2.7,2.3,6.1,4,9.6,3.7c4.1-0.3,7.6-3.2,10.4-6.3"/>
		<path class="st6" d="M516.8,812.3c-1.5,3.9-1.7,8.2-0.7,12.3c0,0.2,0.1,0.4,0.1,0.6"/>
		<path class="st6" d="M629.8,742c6.9,1,13.3,4,18.7,8.5c6.1,5,10.8,11.8,13.4,19.3c4.9,14.1,2.8,30-3.9,43.3
			c-6.7,13.3-17.6,24.2-29.8,32.7c-21.4,14.9-49,23-74,15.8"/>
		<path class="st6" d="M542.4,853.7c34.9,8.5,74.3-5.4,96.2-33.9c9.2-12,15.5-26.9,13.9-41.9s-12.5-29.5-27.4-31.9"/>
		<path class="st6" d="M549.4,796.2c-4.7,5.7-4.4,14.6-0.1,20.7c4.2,6.1,11.6,9.5,19,9.9c7.4,0.5,14.7-1.6,21.5-4.8
			c12-5.6,22.9-15.1,26.9-27.8c4-12.6-0.6-28.3-12.4-34.4c0,0-0.1,0-0.1,0"/>
		<path class="st6" d="M565.8,787.9c1.9,1.7,4,3.3,6.2,4.7s4.5,2.6,7,3.5"/>
		<path class="st6" d="M573.3,781.9c0.8,1.5,1.9,2.9,3.2,4.1c2.1,2,4.6,3.5,7.4,4.4"/>
		<path class="st6" d="M572,793.8c-2.3,2.8-2.1,7.1,0.1,10c2.2,2.9,6,4.2,9.6,3.7c3.6-0.5,6.8-2.7,8.9-5.6c2.7-3.7,3.6-8.7,1.7-12.8
			c-1.9-4.1-7.1-6.6-11.3-4.9"/>
		<path class="st6" d="M583.8,791.3c-0.4,2-1.5,3.8-2.9,5.1c-0.7,0.6-1.4,1.2-2.2,1.6"/>
		<path class="st6" d="M580,784.2C580,784.2,580,784.2,580,784.2c-0.9,0-1.7,0.6-2,1.4"/>
		<path class="st6" d="M549.2,860.8c-2.3,0.9-4.5,1.7-6.4,3.3c-1.9,1.5-3.3,3.8-3.2,6.2c0.1,2.8,2.2,5.1,4.3,7
			c2.9,2.8,5.8,5.4,8.9,7.9c3.1,2.5,6.4,5.1,10.3,5.8c7.4,1.5,14.5-3.5,20.4-8.3"/>
		<path class="st6" d="M673.2,790.4c3.3-3.3,6.6-6.7,10-10c0.6-0.6,1.2-1.2,1.7-1.7c2.2-2.2,4.3-4.3,6.5-6.5c2-2,4.2-4.2,7-4.8
			c4.2-1,8.2,1.6,11.7,4.1c2.6,1.9,5.2,4,7.7,6c1.2,1,2.5,2,3.7,3.1c1.9,1.6,3.8,3.4,4.2,5.8c0.7,4.4-6.3,9.7-8.5,14.6"/>
		<path class="st6" d="M579.4,872.1c1.3,3.5,3,6.8,5,9.9c6,9,15.1,15.9,25.3,20.2c4.2,1.8,8.6,3,13.1,3.8c19,3.2,38.6-1.8,55.7-10.7
			c19.7-10.3,37.1-26.7,44.1-47.8c2.2-6.6,2.9-14.7,2.1-22.9c-0.8-8.3-3.3-16.6-7.5-23.5c-3.1-5.1-7.1-9.5-12.2-12.5
			c-2.8-1.7-6-2.9-9.5-3.7"/>
		<path class="st6" d="M684.8,782.1c12.7,5.9,21.1,19.3,22.6,33.1c1.6,13.9-3.2,28.1-11.4,39.3c-8.3,11.3-19.8,19.9-32.2,26.2
			c-12.3,6.3-26,10.6-39.7,9.7c-13.7-0.9-27.4-7.5-34.6-19c-0.1-0.1-0.1-0.2-0.2-0.3"/>
		<path class="st6" d="M583.4,871.8c6.9,13.4,24.4,25.2,39.4,26.7c14.9,1.6,30-2.8,43.5-9.4c14.1-6.9,27.1-16.7,36.1-29.5
			c9-12.9,13.8-29.1,11.3-44.6c-2-11.9-8.5-23.1-18.1-30.2c-3-2.2-6.2-4-9.6-5.3"/>
		<path class="st6" d="M708.3,788.5c2.6-3,5.3-6.1,7.9-9.1"/>
		<path class="st6" d="M527.2,721c-0.1,0-0.2,0-0.2,0c-8,1.1-15.3,5.8-19.7,12.6c-2.6,4-4.2,8.7-4,13.5c0.2,4.8,2.3,9.5,5.9,12.5
			c4.4,3.7,10.8,4.5,16.3,3c5.5-1.5,10.3-5.2,14-9.5c4.5-5.3,7.7-12.6,5.3-19.1c-2.6-7-10.6-10.3-17.7-12.7"/>
		<path class="st6" d="M438.9,773.5c-1.7,0.1-3.4,0.4-5.1,0.8c-9,2.1-17.1,8.2-21.4,16.3c-2.6,4.8-3.9,11-1,15.7
			c1.9,3.1,5.4,5.1,9,5.8s7.3,0.2,10.9-0.7c6-1.5,11.8-4.4,15.9-9c4.1-4.6,6.4-11.1,5-17.1c-1.4-6-7-11.1-13.2-11"/>
		<path class="st6" d="M434.7,781.2c-2.3,1.2-4.8,2.4-6.3,4.5c-1.6,2.1-2,5.3-0.2,7.2c2.3,2.4,6.4,1.4,9-0.7
			c2.2-1.7,3.9-4.4,3.5-7.1c-0.4-2.6-3.5-4.7-5.8-3.5c-0.1,0-0.2,0.1-0.3,0.2"/>
		<path class="st6" d="M527.1,728.9c-0.1,0-0.1,0-0.2,0c-2.6,0.6-5.2,1.6-6.8,3.7c-1.6,2.2-1.5,5.7,0.8,7.1c2.1,1.3,4.8,0.3,6.8-1.1
			c2-1.4,3.9-3.5,4-5.9c0.1-2.5-2.5-5-4.8-3.9"/>
		<path class="st6" d="M618.6,657.5C618.6,657.5,618.5,657.5,618.6,657.5"/>
		<path class="st6" d="M618.6,657.5c-1-0.4-2.1-0.3-3,0.2c-1.4,0.8-2.2,2.3-2.8,3.8c-0.9,2.2-1.2,5.1,0.7,6.5c1.7,1.2,4,0.4,5.7-0.8
			c1.7-1.3,3.2-3.2,3.2-5.4C622.4,659.7,620.7,657.4,618.6,657.5z"/>
		<path class="st6" d="M619.8,658.5c-0.3-0.5-0.7-0.8-1.2-1"/>
		<path class="st6" d="M617.7,648.8c-0.7,0.1-1.4,0.3-2.1,0.4c-5.7,1.4-10.9,4.9-14.4,9.7c-3.9,5.3-5.7,12.2-4.8,18.8
			c0.8,5.5,3.8,11.1,9,12.9c4.3,1.5,9,0.2,13-1.9c5.5-2.9,10.3-7.3,12.8-12.9c2.6-5.6,2.8-12.5-0.2-17.9c-3-5.4-9.3-9.1-15.4-8.2"/>
		<path class="st6" d="M708.4,553.5c-2.9-0.2-5.8,0.1-8.6,0.8c-3.6,1-7,2.8-9.8,5.3c-5,4.5-8,11-8.2,17.6c-0.1,4.2,0.9,8.6,3.5,12
			c4.5,6,13.2,7.9,20.2,5.3c7-2.6,12.2-9,14.4-16.1c1.4-4.7,1.7-9.9,0-14.5c-1.8-4.6-5.7-8.5-10.5-9.5"/>
		<path class="st6" d="M705,562.3c-3.2-1.1-8.3,0.1-9.5,3.2c-1.2,3.1,0.3,7.1,3.4,8.5c3,1.4,7.1,0,8.6-2.9
			C709,568.1,707.9,564,705,562.3z"/>
		<path class="st6" d="M770,447.2c-0.1,0-0.2,0-0.4,0.1c-6.4,1-12.4,4.3-16.7,9.2c-4.3,5-6.8,11.6-6.8,18.1c0,4.5,1.3,9.2,4.8,12
			c5,4,12.4,2.6,18.4,0.4c3.6-1.3,7.4-2.9,9.8-5.9c2.2-2.8,3-6.4,2.9-10c-0.1-3.5-1-7-2-10.4c-0.8-2.9-1.6-5.9-3.2-8.4
			c-1.6-2.5-4.2-4.6-7.2-4.9"/>
		<path class="st6" d="M767.4,458.2c-3.8-1-9.5,2.1-8.8,6c0.7,3.8,5.8,6,9.1,3.9C770.9,465.9,770.8,460.2,767.4,458.2z"/>
		<path class="st6" d="M805.2,537.5c-2.1-2.8-6.6-2.5-9.3-0.4c-0.2,0.1-0.3,0.3-0.5,0.4c-2.4,2.1-3.8,5.2-5.1,8.2
			c-2.9,6.7-6,13.3-9.2,19.7c-4.9,9.9-10.3,19.6-16,29c-5.8,9.6-12,18.9-18.6,27.9c-1.2,1.7-2.5,3.4-3.8,5.1
			c-7.5,9.9-15.4,19.5-23.7,28.8c-6.6,7.3-13.5,14.4-20.7,21.3c-1,0.9-1.9,1.8-2.9,2.7c-4.8,4.5-9.7,8.8-14.7,13c-1,0.9-2,1.7-3,2.7
			c-2.3,2.2-4.2,4.7-4.6,7.8c-0.8,6,4.4,10.9,9,14.7c4.7,3.8,10.5,7.8,16.2,5.9c7.3-2.5,7.5-7.8,13.8-13.8"/>
		<path class="st6" d="M806.4,537.8c3.5,2.2,6.9,4.6,10.2,7.2c0.2,0.2,0.4,0.3,0.6,0.5c3,2.4,5.9,5.1,7,8.8c1,3.4,0.3,7.1-1.3,10.3
			c-1.5,3-3.6,5.6-5.7,8.1c-0.1,0.2-0.3,0.4-0.4,0.5"/>
		<path class="st6" d="M678.2,696.4c3.4,3.6,7.3,7.2,12.1,8.2c4.8,1.1,10.8-4,13.3-8.2"/>
		<path class="st6" d="M696.8,681.6c1.8,5.1,4.1,10.1,6.9,14.7c2.8,4.8,6.2,9.2,10.2,13c2.6,2.5,5.5,4.7,8.6,6.5
			c6.3,3.6,13.4,5.6,20.6,6.1c4.5,0.3,9.1,0.1,13.6-0.6c0.4-0.1,0.8-0.1,1.2-0.2c0.1,0,0.2,0,0.3-0.1c9.7-1.8,18.9-5.6,27.6-10.6
			c1.9-1.1,3.8-2.2,5.6-3.4c17.3-11,32.6-25.9,41.6-44.3c2.2-4.5,4.1-9.3,5.5-14.2c3-10.6,3.9-21.8,2.2-32.6c-0.3-1.6-0.6-3.2-1-4.8
			c-0.6-2.7-1.5-5.4-2.5-8c-0.9-2.4-2-4.7-3.3-6.9c-4.8-8.1-12-14.9-20.4-19.7c-4-2.3-8.2-4.1-12.6-5.5c-1.5-0.5-2.9-0.9-4.4-1.2
			c-2.2-0.5-4.5-0.9-6.7-1.2c-0.2,0-0.5-0.1-0.7-0.1"/>
		<path class="st6" d="M782.8,568.4c2.3,0.5,4.6,1.3,6.7,2.2c17.6,7.4,29.9,26.1,31.6,45.4c1.9,21.7-7.9,43.3-22.8,59.2
			c-13.2,14.2-31.1,24.8-50.5,26.2c-18.2,1.4-37.4-6.3-47.8-21.1c-0.6-0.9-1.2-1.7-1.7-2.7c-0.1-0.1-0.1-0.2-0.2-0.3"/>
		<path class="st6" d="M743.9,628.4c0.6,0.5,1.3,1,2,1.5c1.4,1.1,2.8,2.2,4.2,3.2"/>
		<path class="st6" d="M747.3,623.1c0.6,0.6,1.1,1.1,1.7,1.7c1.7,1.7,3.3,3.3,5,5"/>
		<path class="st6" d="M751.6,633.6c0.3,0,0.7-0.1,1-0.2c1.4-0.4,2.6-1.7,2.8-3.2"/>
		<path class="st6" d="M745.1,630.9c-2.3,2.3-2.9,6.1-1.4,9c1.4,2.9,4.8,4.8,8,4.4c3.1-0.3,5.7-2.4,7.8-4.6c2.2-2.4,4.2-5.2,4.9-8.4
			c0.7-3.2-0.2-6.9-2.7-9c-2.5-2.1-8.9-1.8-10.9,0.9"/>
		<path class="st6" d="M720.3,657.4c3.9,10.4,14.8,17.2,25.9,17.8c11.1,0.7,22-4,30.5-11c11.7-9.6,19.8-24.5,18.3-39.6
			s-14-29.2-29.1-29.6"/>
		<path class="st6" d="M782.9,566.4c4.8,0,9.3,1.3,13.6,3.3c6.9,3.3,13,8.8,17.8,14.9c13.3,17,18.5,40.1,13.8,61.3
			c-5.4,24.2-23.3,44.8-45.6,55.6c-14.3,7-30.8,10.2-46.4,7c-15.6-3.2-30.1-13.3-36.6-27.8"/>
		<path class="st6" d="M785.8,713c0.5,0.2,1.1,0.3,1.6,0.5c16.6,4.5,35.6-1.3,46.7-14.5c11.4-13.6,13.7-34.2,5.5-50"/>
		<path class="st6" d="M743,722.4c-4.1,3.7-8,7.5-11.8,11.5c-1.4,1.5-2.7,3-4,4.5c-1.5,1.8-3.1,3.8-3.1,6.1c0,3.8,4.1,6.2,7.2,8.4
			c3.1,2.2,5.6,5.1,8.6,7.5c3,2.3,6.7,4.1,10.5,3.6c4.1-0.5,7.4-3.7,10-7c2.3-2.9,4.3-6.1,7-8.5c0.4-0.3,0.8-0.6,1.2-0.9"/>
		<path class="st6" d="M835.2,595.9c2.9-2.8,4.2-6.8,6-10.5c1.8-3.6,4.8-7.3,8.8-7.5c2.9-0.2,5.6,1.4,8.1,3c3.2,2.1,6.3,4.4,9.4,6.8
			c1,0.8,2,1.6,3,2.4c2.4,2,4.8,4.3,5.6,7.3c1,3.7-0.9,7.6-3.1,10.8c-2.2,3-4.8,5.9-6,9.4c0,0.1-0.1,0.2-0.1,0.3"/>
		<path class="st6" d="M814.3,575.1c0.8-0.9,1.6-1.9,2.4-2.8"/>
		<path class="st6" d="M800.9,571L800.9,571c4.2-7.5,10.3-17.4,15.2-24.4"/>
		<path class="st6" d="M837.2,603.1c4.7,1.1,9.4,2.7,14,4.8c5.5,2.6,10.8,5.9,15.7,9.7c7.6,5.9,14.2,13.2,18.9,21.2
			c3.2,5.4,5.6,11.1,6.9,16.9c2.4,10.6,2.3,21.6,0.8,32.3c-1.5,10.2-4.3,20.4-9.7,29.3c-4.8,7.9-11.5,14.6-18.7,20.5
			c-11.8,9.7-25.3,17.5-40.1,21.4c-11.1,2.9-23,3.4-34.2,0.8c-3.6-0.8-7.2-2-10.7-3.5c-4.6-2-8.9-4.7-12.8-7.9
			c-3.8-3.2-7.2-6.9-10-11c-3-4.4-5.2-9.2-6.5-14.3"/>
		<path class="st6" d="M732.4,735c3.6,3.2,7.5,6,11.7,8.3c1.2,0.6,2.4,1.3,3.7,1.2c4-0.1,5.7-5.9,9.6-6.8"/>
		<path class="st6" d="M855.7,607.5c3.3-5.7,6.6-11.4,9.9-17.2"/>
		<path class="st6" d="M758.4,722.4c8.5,14,26.9,20,43.1,17.2c16.2-2.8,30.3-13,41.4-25c12.8-13.9,22.8-31.2,24.4-50
			c1.7-18.8-8.8-39.1-24.8-49"/>
		<path class="st6" d="M756.5,724c0.2,0.3,0.3,0.5,0.5,0.8c7.5,11.5,16.3,23.7,29.6,26.5c8.2,1.7,22.4,0.1,30.1-3
			c22.2-9,33.8-22.4,47-38.6c8.6-10.5,11.7-23.9,14.4-37.2c2.7-12.9-0.2-26.8-7.3-37.9c-6.4-10-16.2-17.8-27.3-22.2
			c-1.2-0.5-2.4-0.9-3.6-1.3"/>
		<path class="st6" d="M756.7,721.8c0,1,0.1,2,0.2,3c1.1,8.6,5.7,16.5,12.2,22.3c2.8,2.5,5.9,4.6,9.2,6.2c12,5.8,26.4,5.8,39.2,1.7
			c12.8-4.1,24-11.9,33.9-21c12.9-11.9,23.8-26.4,29.5-43c5.7-16.6,5.9-35.5-1.6-51.3c-7.5-15.9-17.6-27.3-35.1-28.6"/>
		<path class="st6" d="M887.9,639.2c15.1-30.7,30.2-61.4,45.3-92.1"/>
		<path class="st6" d="M727.6,824.4c22.5-20,43.7-41.5,63.3-64.4c0.3-0.4,0.6-0.7,1-1.1"/>
		<path class="st6" d="M808.1,343.8c-0.8-0.1-1.6-0.2-2.4-0.3c-5.4-0.3-10.8,1.7-15,5.1c-4.8,4-7.9,9.8-8.9,15.9
			c-0.5,3-0.5,6.1,0.5,9c2,5.8,8.2,9.6,14.3,9.5c6.1-0.1,11.9-3.7,15.2-8.8c3.3-5.1,4.4-11.5,3.5-17.5c-0.4-2.8-1.1-5.6-2.7-8
			c-1.6-2.4-4.1-4.2-6.9-4.6"/>
		<path class="st6" d="M801.1,349.6c-2.4,1.5-4.9,3-6.3,5.4c-1.4,2.4-1.3,6,1,7.6c2.4,1.7,5.8,0.5,7.9-1.5c1.7-1.6,2.9-3.9,2.9-6.2
			c0-2.4-1.5-4.7-3.7-5.5"/>
		<path class="st6" d="M860.2,286.3c0.4,0.3,0.7,0.5,1.1,0.7c6.5,4.3,15.5,8.6,21.7,12.9c0.7,0.5,1.5,1,2.2,1.5
			c3.3,2.1,6.7,4.4,7.5,8c2.1,9.5-0.2,21.8-0.5,31.9"/>
		<path class="st6" d="M860.2,288.7c-2.4,13.3-5.4,33.1-5.5,45.5c0,3.2-0.1,6.4-0.2,9.4c-0.1,2.9-0.2,5.7-0.4,8.5
			c-0.5,8.7-1.4,16.9-2.7,25.1h0c-1.2,7.9-2.8,15.7-4.8,24c-0.6,2.6-1.3,5.2-2,7.9c-0.7,2.7-1.4,5.4-2.2,8.1
			c-2.9,10.1-6.1,20-9.5,29.9c-3.4,9.7-7,19.3-10.8,28.9c-2,5-3.9,10-6,14.9c-1.6,3.9-3.1,7.7-4.7,11.6c-0.2,0.4-0.3,0.9-0.5,1.3"/>
		<path class="st6" d="M811.4,502.4c-0.5,3.7,2.4,7,5.2,9.5c6.8,6.1,14.4,11.4,22.5,15.6"/>
		<path class="st6" d="M840.6,527.2c5.9-7.5,10.2-16.1,12.6-25.3"/>
		<path class="st6" d="M817.7,491.4c3.3,2.9,6.5,5.8,9.7,8.7c1.1,1,2.2,2,3.7,2.3c2,0.4,4-0.7,5.2-2.3c1.3-1.5,1.9-3.5,2.5-5.4"/>
		<path class="st6" d="M824,479.6c3.5,6.3,8.8,11.3,14.9,15c4.4,2.7,9.3,4.6,14.4,5.8c4.4,1,9,1.5,13.4,1.4
			c6.2-0.1,12.3-1.2,18.1-3.1c1.2-0.4,2.4-0.8,3.5-1.2c8.8-3.3,17.2-8.1,24.7-13.8c9.4-7.1,17.9-15.7,23-26.3
			c1.9-3.9,3.3-8.1,4.3-12.3c1.2-4.6,1.9-9.3,2.6-13.9c1.5-10,2.5-20.2,1.6-30.2c-0.2-2-0.4-4-0.8-6c-0.1-0.8-0.3-1.6-0.4-2.3
			c0-0.2-0.1-0.5-0.1-0.7c-3.9-17.9-15.7-34-31.6-43.1c-5.7-3.3-12.4-5.7-19.4-7.1c-2.6-0.5-5.2-0.9-7.8-1.2c-10.3-1-20.9-0.1-30,3"
			/>
		<path class="st6" d="M823.4,476.4c0.7,0.6,1.5,1.1,2.2,1.7c8.1,5.9,17.7,9.9,27.6,11.7c8.3,1.5,16.9,1.4,25.2-0.3
			c19-4,36-16.9,45-34.2c4.9-9.5,7.5-20,9.6-30.5c1.9-9.6,3.5-19.5,1.9-29.1c-2.1-12.7-9.7-23.9-19.5-32.4c-0.9-0.8-1.9-1.6-2.9-2.4
			c-8-6.3-17.4-11.1-27.4-13c-10-1.9-20.8-0.7-29.7,4.1"/>
		<path class="st6" d="M834,447.4c3.3,5.2,9.4,8.1,15.5,8.5c6.1,0.4,12.2-1.5,17.7-4.4c17.7-9.2,29.5-29.3,27.7-49.2
			c-0.9-9.9-5.3-19.9-13.5-25.6c-8.2-5.7-20.4-6-27.6,0.8"/>
		<path class="st6" d="M848.5,401.2c1.7,1.3,3.3,2.7,5,4c1.1,0.8,2.1,1.7,3.2,2.5"/>
		<path class="st6" d="M845.9,409c1.4,1.3,2.9,2.5,4.5,3.6c1,0.6,1.9,1.2,2.9,1.8"/>
		<path class="st6" d="M854.4,404.1c1.7-2.8,5.5-4,8.7-3.1c3.2,0.9,5.6,3.8,6.5,6.9c0.9,3.2,0.4,6.6-0.9,9.7c-1.5,3.3-4,6.3-7.4,7.6
			c-3.4,1.4-7.5,0.9-10.2-1.5c-2.7-2.4-3.4-7-1.2-9.8"/>
		<path class="st6" d="M854.2,416.4c0.9-0.7,1.6-1.5,2.3-2.4c1.3-1.8,2.2-3.9,2.4-6c0-0.2,0.1-0.4,0.1-0.6"/>
		<path class="st6" d="M853.4,488.7c27.2-2.5,52.6-19.7,65-44c12.4-24.3,10.8-57.8-3-81.4"/>
		<path class="st6" d="M885.1,499.5c-4.8,8.9-9.3,18-13.5,27.2c-1.6,3.5-3.2,7.1-4.8,10.6c-1.9,4.3-3.7,8.7-5.4,13"/>
		<path class="st6" d="M860.7,551C860.7,551,860.8,551,860.7,551c7.8,8.7,16.9,16,27.1,21.6"/>
		<path class="st6" d="M888.5,572.8c5.2-7.7,9.8-15.9,13.7-24.3"/>
		<path class="st6" d="M867.1,537.5c4.1,3.5,11.1,8.4,15.2,11.9"/>
		<path class="st6" d="M882.3,549.4c2.4-2.2,4.8-4.4,7.1-6.7"/>
		<path class="st6" d="M890.2,540.9c4,2.2,8.3,4,12.6,5.2c5.7,1.7,11.5,2.5,16.9,2.1c4.4-0.3,8.8-1.1,13-2.3
			c11.5-3.3,22.2-9.7,31-17.9c12-11.3,20.6-25.8,26.5-41.2c4-10.3,6.8-21.4,5.1-32.3c-1.5-9.6-4.4-21.9-7.7-31
			c-3.9-10.8-11-18.1-22-23.7c-0.6-0.3-1.3-0.6-2-1c-6.9-3.2-13.4-9.4-20.5-6.9c-0.1,0-0.1,0-0.2,0.1"/>
		<path class="st6" d="M873.3,527.5c0.9,1.1,1.9,2.2,3,3.2c4,3.9,8.8,7.4,14,10.2"/>
		<path class="st6" d="M889.1,499.4c8.6,5.8,20.5,5.4,29.7,0.5c9.2-4.9,15.7-13.9,19.3-23.6c3.6-9.8,4.5-20.3,4.4-30.7"/>
		<path class="st6" d="M874.5,527.4c21.7,11.9,50.7,8.5,69-8c12.4-11.1,19.6-26.9,24.9-42.6c3.4-10.1,6.3-20.8,5.4-31.4
			c-1.4-17.9-13-33.7-27.3-44.5"/>
		<path class="st6" d="M945.7,395.9c21,10.3,34.3,33.5,35.2,56.9c0.9,23.4-9.6,46.4-25.8,63.3c-10.1,10.5-22.7,19-36.9,22.3
			c-14.2,3.3-30,0.9-41.5-8.1"/>
		<path class="st6" d="M945.3,394.8c0.2,0.1,0.5,0.1,0.7,0.2c16.4,5.1,29.5,18.8,35.8,34.8c6.4,16.3,6.3,34.6,1.7,51.5
			c-5.5,20.5-17.8,39.4-35.5,51c-16.9,11.1-38.7,14.9-57.8,8.6c0,0,0,0,0,0c-0.1,0-0.1,0-0.2-0.1c-0.9-0.3-1.8-0.6-2.7-1"/>
		<path class="st6" d="M884.2,302.8c1.7,12,1.9,24.1,0.4,36.1"/>
		<path class="st6" d="M908,344.4c-0.1-1.4-0.2-2.8,0.3-4.1c0.4-1.3,1.6-2.5,2.9-2.6c1.3-0.1,2.4,0.8,3.4,1.5
			c9.6,7.5,19.2,15,28.8,22.6"/>
		<path class="st6" d="M942,361.7c0,6.5,0,13-0.1,19.5"/>
		<path class="st6" d="M953.1,288c12.3,35.7,16.7,74.2,12.6,111.8c0,0.3,0,0.6-0.1,0.8"/>
		<path class="st6" d="M815.8,245.8c-1.1-0.1-2.1-0.2-3.2-0.2c-4.9,0.2-9.7,2.2-13.2,5.6c-4.3,4.2-6.5,10.3-5.9,16.2
			c0.5,4.5,2.5,8.8,5.3,12.3c2.2,2.8,5.1,5.3,8.6,6.1c4,1,8.4-0.3,11.8-2.7c6.1-4.1,9.8-11.5,9.5-18.9c-0.2-6.9-4-13.5-9.7-17.4
			c-0.4-0.3-0.8-0.5-1.2-0.7"/>
		<path class="st6" d="M812,253.8c-1.6-1.1-3.9-0.5-5.2,0.9c-1.3,1.4-1.8,3.4-2,5.2c-0.2,2.6,0.4,5.7,2.8,6.7c2.6,1.2,5.6-1,7.2-3.4
			c1.2-1.8,2.1-3.9,1.8-6c-0.2-1.4-1.1-2.9-2.3-3.6c-0.5-0.3-0.9-0.4-1.5-0.5c-0.1,0-0.3,0-0.4,0"/>
		<path class="st6" d="M799.5,161.7c-6.4,1.5-11.6,7.1-13,13.6c-1.4,6.5,0.9,13.5,5.5,18.3c2.9,3,7.4,5.2,11.3,3.6
			c3.7-1.5,5.3-5.8,6.2-9.6c1.2-5.2,1.9-10.6,0.4-15.7c-1.5-4.9-5.4-9.4-10.4-10.4c-0.2,0-0.3-0.1-0.5-0.1"/>
		<path class="st6" d="M795.3,171.9c-0.8,1.8-1.7,3.6-1.7,5.5c0,1.9,1,4,2.9,4.6c2.7,0.8,5.3-2.2,5.1-5S800.1,171.9,795.3,171.9z"/>
		<path class="st6" d="M817.2,158.4c6-6.9,16.8-7.6,25.3-4.3c11.8,4.5,20.8,15.7,22.6,28.2c1.8,12.3-3.4,25.3-13,33
			c-0.2,0.2-0.4,0.3-0.6,0.5"/>
		<path class="st6" d="M805.5,144.8c3.9,4.5,7.7,9.1,11.2,13.9c13.2,17.9,23.4,37.9,30.3,59c2.5,7.6,4.5,15.3,6.1,23.1"/>
		<path class="st6" d="M848.6,217.3c1.1-0.8,2.2-1.6,3.3-2.4"/>
		<path class="st6" d="M852.5,242.4c1.9,3.1,4.1,5.9,6.5,8.6c1.2,1.3,2.5,2.6,3.8,3.9c1.6,1.5,3.4,3,5.2,4.4
			c5.4,4.1,11.4,7.4,17.8,9.6"/>
		<path class="st6" d="M886.1,268.6c1.5-4.1,1.3-8.9-0.6-12.8"/>
		<path class="st6" d="M874.9,257.8c0.5-0.2,1.1-0.3,1.6-0.5c2.8-0.9,5.5-2.1,8-3.4c1.6-0.8,3.1-1.8,4.6-2.7
			c9.6-6.4,17.2-15.9,21.7-26.6c1.6-3.7,2.8-7.5,3.6-11.3c1.6-7.3,1.8-14.8,1-22.3c-0.1-0.6-0.1-1.2-0.2-1.9
			c-0.3-2.2-0.7-4.4-1.2-6.5c-2.3-10.2-6.8-20.1-12.7-28.7c-11.3-16.4-28.6-29.2-48.3-32.4c-1.8-0.3-3.5-0.5-5.3-0.6
			c-15.7-1.1-32.1,4.4-43,15.5c-1.7,1.7-3.2,3.6-4.6,5.5"/>
		<path class="st6" d="M847.6,122c9.7,0.7,18.9,4.8,26.7,10.6c19.3,14.3,29.6,38.7,30.5,62.7c0.5,13.3-1.8,26.9-8.6,38.3
			c-6.9,11.3-18.8,20.1-32,21"/>
		<path class="st6" d="M860.5,250.7c11-4.8,20.1-13.6,25.9-24.2c5.8-10.5,8.5-22.6,8.6-34.6c0.1-14.9-3.9-30-12.3-42.2
			c-8.4-12.3-21.5-21.6-36.1-24.4c-14.6-2.8-30.6,1.1-41.5,11.3"/>
		<path class="st6" d="M877.5,257.2c-0.3,0.1-0.7,0.1-1,0.2c-2.2,0.4-4.4,0.8-6.6,1.2"/>
		<path class="st6" d="M890.3,252.9c2.2,7.5,4.4,15,6.7,22.5h0c1.9,6.6,3.9,13.1,5.8,19.7"/>
		<path class="st6" d="M900,274.5c7.6-5.3,13.2-13.4,15.4-22.4c2.2-9,1-18.8-3.4-27"/>
		<path class="st6" d="M903,296.8c3.2,3.6,6.7,6.9,10.4,10c1.7,1.5,3.5,2.9,5.4,4.2c1.7,1.3,3.4,2.5,5.2,3.6
			c3.3,2.1,6.6,4.1,10.1,5.9"/>
		<path class="st6" d="M934.3,319.9c0-4-0.1-7.9-0.1-11.9"/>
		<path class="st6" d="M924.2,314.3c9.9-7.3,18.7-16.2,25.4-26.5c3.5-5.4,6.4-11.1,8.6-17.2c6.4-17.6,6.4-37.8-1.5-54.8
			s-24.1-30.3-42.6-33.2"/>
		<path class="st6" d="M916.2,189c15.7,3,28.5,15.8,34.1,30.8c5.6,15,4.7,31.8,0.6,47.3c-4.5,16.7-13.5,33.2-28.6,41.6"/>
		<path class="st6" d="M919.1,193.1c16.1,14.3,25.3,36.1,24.4,57.7c-1,21.6-12.1,42.4-29.4,55.3"/>
		<path class="st6" d="M919.4,310.1c0.9-0.6,1.8-1.1,2.7-1.7c0.4-0.2,0.7-0.5,1.1-0.7"/>
		<path class="st6" d="M908,299.9c17.9-11.2,30-31.2,31.7-52.3c1.6-20-6.3-40.5-20.7-54.4c-0.8-0.8-1.6-1.5-2.4-2.3"/>
		<path class="st6" d="M332.4,800.1c-1.1-0.1-2.2-0.2-3.3-0.1c-7.2,0.1-14.3,2.6-19.9,7.2c-2.5,2.1-4.8,4.7-6,7.8
			c-1.2,3.1-1.1,6.8,0.7,9.5c2.5,4,7.8,5.2,12.5,5.1c8.4-0.2,16.7-3.7,22.7-9.5c2.8-2.7,5.2-6.4,4.4-10.1c-0.6-2.9-3-5.2-5.7-6.4
			c-2.7-1.2-5.7-1.5-8.7-1.8"/>
		<path class="st6" d="M329.4,806.6c-0.1,0-0.2,0-0.3,0.1c-2.7,0.4-5.3,1.8-7.1,3.8c-1,1.1-1.9,2.6-1.5,4.1c0.4,1.3,1.6,2.1,2.9,2.4
			c1.3,0.2,2.6-0.1,3.9-0.5c1.6-0.5,3.2-1.1,4.4-2.3c1.2-1.2,1.9-3,1.3-4.6c-0.5-1.5-2.4-2.4-3.8-1.8c-0.1,0-0.2,0.1-0.3,0.2"/>
	</g>
</g>
</svg>
